<?xml version="1.0" encoding="iso-8859-1"?>
<!-- Generator: Adobe Illustrator 19.0.0, SVG Export Plug-In . SVG Version: 6.00 Build 0)  -->
<svg version="1.1" id="Capa_1" xmlns="http://www.w3.org/2000/svg" xmlns:xlink="http://www.w3.org/1999/xlink" x="0px" y="0px"
	 viewBox="0 0 512.001 512.001" style="enable-background:new 0 0 512.001 512.001;" xml:space="preserve">
<path style="fill:#F0EEEE;" d="M205.908,386h100.184c39.391,0,71.325,31.933,71.325,71.325V504.5H134.583v-47.175
	C134.583,417.933,166.516,386,205.908,386z"/>
<path style="fill:#D9D4D4;" d="M306.092,386h-22.056c39.391,0,71.325,31.933,71.325,71.325V504.5h22.056v-47.175
	C377.417,417.933,345.483,386,306.092,386z"/>
<path style="fill:#FA9E3E;" d="M215.125,282.581v88.038c0,22.574,18.3,40.875,40.874,40.875l0,0c22.574,0,40.875-18.3,40.875-40.875
	v-88.038H215.125z"/>
<rect x="120.38" y="219.14" style="fill:#484655;" width="271.24" height="69.54"/>
<g>
	<path style="fill:#FA9E3E;" d="M129.616,252.468h47.937v54.967h-47.937c-15.179,0-27.484-12.305-27.484-27.484
		S114.437,252.468,129.616,252.468z"/>
	<path style="fill:#FA9E3E;" d="M382.384,252.468h-47.937v54.967h47.937c15.179,0,27.484-12.305,27.484-27.484
		S397.563,252.468,382.384,252.468z"/>
</g>
<path style="fill:#FFB56B;" d="M256,367.822L256,367.822c-60.123,0-108.862-48.739-108.862-108.862V148.855h217.724V258.96
	C364.862,319.082,316.123,367.822,256,367.822z"/>
<path style="fill:#EF9245;" d="M342.205,148.855v121.433c0,52.024-40.732,94.529-92.044,97.376c1.934,0.102,3.88,0.157,5.839,0.157
	l0,0c60.123,0,108.862-48.739,108.862-108.862V148.855H342.205z"/>
<path style="fill:#F0EEEE;" d="M423.333,81.86c0-32.825-32.253-59.436-72.039-59.436c-15.76,0-30.327,4.187-42.187,11.271
	C297.212,17.832,277.864,7.5,256,7.5s-41.212,10.332-53.107,26.195c-11.86-7.083-26.427-11.271-42.187-11.271
	c-39.786,0-72.039,26.61-72.039,59.436c0,22.328,14.932,41.77,36.998,51.928l-5.28,85.353c90.41,8.429,180.819,8.429,271.229,0
	l-5.28-85.353C408.402,123.63,423.333,104.188,423.333,81.86z"/>
<path style="fill:#D9D4D4;" d="M423.333,81.86c0-32.825-32.253-59.436-72.039-59.436c-3.553,0-7.041,0.224-10.455,0.635
	c32.142,4.192,56.828,28.916,56.828,58.801c0,22.328-13.787,41.771-34.161,51.928l4.38,87.348
	c7.909-0.608,15.819-1.257,23.729-1.995l-5.28-85.353C408.402,123.63,423.333,104.188,423.333,81.86z"/>
<g>
	<path style="fill:#E11E1D;" d="M247.26,394.68l-35.814-19.725c-4.705-2.591-10.54-1.89-14.497,1.743l-14.596,13.4l60.971,27.954
		L247.26,394.68z"/>
	<path style="fill:#E11E1D;" d="M264.74,394.68l35.814-19.725c4.705-2.591,10.54-1.89,14.497,1.743l14.596,13.4l-60.971,27.954
		L264.74,394.68z"/>
</g>
<path style="fill:#FB403F;" d="M245.115,399.648L239.75,468.5H258l17.5,12.5l-8.431-81.574c-0.466-4.504-4.26-7.926-8.788-7.926
	h-4.359C249.31,391.5,245.473,395.049,245.115,399.648z"/>
<path style="fill:#484655;" d="M290.813,288.241l-0.018,0.012C288.45,279.475,280.466,273,270.948,273
	c-5.897,0-11.199,2.496-14.948,6.472c-3.75-3.976-9.052-6.472-14.949-6.472c-9.517,0-17.502,6.475-19.846,15.253l-0.018-0.012
	c-3.264,15.553-23.237,17.999-32.854,12.338c2.682,14.774,23.854,41.453,64.112,10.099c0.21-0.14,0.407-0.296,0.612-0.443
	c0.221-0.162,0.441-0.314,0.663-0.48l-0.011-0.008c0.817-0.64,1.58-1.344,2.291-2.097c0.711,0.753,1.474,1.457,2.291,2.097
	l-0.011,0.008c0.222,0.166,0.441,0.318,0.663,0.48c0.204,0.148,0.402,0.303,0.612,0.443c40.258,31.354,61.431,4.676,64.112-10.099
	C314.05,306.241,294.077,303.795,290.813,288.241z"/>
<path d="M308.748,262.398c4.142,0,7.5-3.358,7.5-7.5v-2c0-4.142-3.358-7.5-7.5-7.5s-7.5,3.358-7.5,7.5v2
	C301.248,259.04,304.605,262.398,308.748,262.398z"/>
<path d="M203.252,262.398c4.142,0,7.5-3.358,7.5-7.5v-2c0-4.142-3.358-7.5-7.5-7.5s-7.5,3.358-7.5,7.5v2
	C195.752,259.04,199.11,262.398,203.252,262.398z"/>
<path d="M399.12,249.232V219.14c0-0.276-0.017-0.548-0.046-0.817l-4.951-80.04c22.772-12.24,36.708-33.462,36.708-56.424
	c0-36.911-35.682-66.94-79.54-66.94c-14.328,0-28.143,3.178-40.34,9.237C297.159,8.927,277.073,0,256,0s-41.159,8.927-54.95,24.157
	c-12.197-6.059-26.013-9.237-40.34-9.237c-20.979,0-40.765,6.792-55.713,19.125c-3.195,2.636-3.648,7.363-1.012,10.558
	s7.363,3.649,10.558,1.012C126.81,35.494,143.206,29.92,160.71,29.92c13.895,0,27.15,3.533,38.332,10.218
	c3.293,1.969,7.546,1.133,9.849-1.938C219.783,23.673,237.394,15,256,15s36.217,8.673,47.109,23.2
	c2.304,3.071,6.555,3.908,9.849,1.938c11.182-6.685,24.436-10.218,38.332-10.218c35.587,0,64.54,23.3,64.54,51.94
	c0,18.562-12.505,35.85-32.636,45.117c-2.813,1.295-4.54,4.186-4.35,7.276l4.83,78.076c-6.477,0.571-12.967,1.101-19.374,1.583
	c-71.863,5.376-144.737,5.376-216.599,0c-6.408-0.481-12.9-1.012-19.376-1.583l4.83-78.076c0.191-3.09-1.537-5.981-4.35-7.276
	c-20.13-9.267-32.635-26.555-32.635-45.117c0-4.292,0.646-8.536,1.919-12.615c1.234-3.954-0.97-8.16-4.924-9.395
	c-3.954-1.234-8.16,0.97-9.394,4.924C82.045,70.302,81.17,76.05,81.17,81.86c0,22.962,13.936,44.184,36.707,56.424l-4.951,80.04
	c-0.029,0.268-0.046,0.54-0.046,0.817v30.094c-11.099,6.051-18.25,17.803-18.25,30.716c0,19.294,15.697,34.99,34.99,34.99h24.366
	c12.077,21.988,30.868,39.46,53.644,49.868v1.217c-5.623-0.627-11.389,1.151-15.752,5.15l-13.316,12.226
	c-30.856,11.401-51.481,40.894-51.481,73.919v47.18c0,4.142,3.358,7.5,7.5,7.5h242.84c4.142,0,7.5-3.358,7.5-7.5v-47.18
	c0-33.029-20.62-62.516-51.471-73.913l-13.331-12.236c-4.36-3.997-10.126-5.774-15.748-5.147v-1.216
	c22.78-10.411,41.572-27.884,53.644-49.868h24.366c19.293,0,34.99-15.696,34.99-34.99
	C417.37,267.031,410.212,255.275,399.12,249.232z M384.12,227.345v17.672c-0.578-0.028-1.158-0.047-1.74-0.047h-10.02v-16.639
	C376.27,228.019,380.197,227.689,384.12,227.345z M139.64,228.331v16.639h-10.02c-0.582,0-1.162,0.018-1.74,0.047v-17.672
	C131.803,227.689,135.73,228.019,139.64,228.331z M129.62,299.94c-11.022,0-19.99-8.967-19.99-19.99
	c0-8.427,5.331-15.988,13.29-18.823c2.132-0.768,4.386-1.157,6.7-1.157h10.026c0.004,0.342,0.009,0.681,0.014,1.019
	c0,0.007,0,0.014,0,0.021c0,0.001,0,0.002,0,0.004c0.01,0.649,0.029,1.298,0.049,1.948c0.003,0.226,0.013,0.444,0.027,0.669
	c0.011,0.314,0.022,0.628,0.041,0.934c0.011,0.287,0.023,0.581,0.042,0.868c0.022,0.5,0.053,0.992,0.093,1.491
	c0.013,0.249,0.031,0.506,0.054,0.802c0.009,0.128,0.02,0.267,0.036,0.446c0.006,0.102,0.015,0.205,0.025,0.308
	c0.033,0.492,0.078,0.978,0.126,1.471c0.001,0.006,0.011,0.11,0.011,0.116l0.015,0.156c0.059,0.599,0.119,1.205,0.182,1.756
	c0.044,0.406,0.088,0.811,0.142,1.216c0.077,0.684,0.165,1.36,0.27,2.087l0.19,1.265c0.025,0.182,0.051,0.363,0.079,0.541
	c0.006,0.035,0.018,0.116,0.024,0.15c0.022,0.152,0.046,0.301,0.072,0.447l0.075,0.449c0.067,0.434,0.144,0.865,0.212,1.239
	l0.025,0.141c0.071,0.424,0.152,0.86,0.243,1.324c0.123,0.623,0.245,1.245,0.377,1.868c0.117,0.592,0.244,1.185,0.371,1.766
	c0.008,0.036,0.016,0.071,0.024,0.106l0.343,1.444c0.13,0.554,0.262,1.108,0.393,1.609c0.138,0.541,0.276,1.072,0.423,1.602
	c0.106,0.409,0.217,0.813,0.33,1.22l0.083,0.296c0.276,0.968,0.563,1.925,0.851,2.848c0.195,0.638,0.4,1.266,0.605,1.893
	c0.004,0.014,0.036,0.111,0.041,0.125c0.319,0.956,0.648,1.9,0.98,2.825c0.179,0.501,0.365,1.001,0.552,1.501H129.62V299.94z
	 M226.305,371.489c0.287,0.076,0.574,0.149,0.862,0.222c1.123,0.287,2.249,0.56,3.38,0.813c0.101,0.023,0.202,0.048,0.303,0.07
	c1.214,0.268,2.434,0.511,3.658,0.74c0.294,0.055,0.588,0.108,0.883,0.16c1.167,0.209,2.338,0.405,3.512,0.577
	c0.072,0.011,0.144,0.023,0.216,0.034c1.236,0.179,2.476,0.333,3.719,0.473c0.3,0.034,0.601,0.066,0.902,0.097
	c1.215,0.127,2.432,0.241,3.654,0.33c0.038,0.003,0.076,0.007,0.113,0.009c1.253,0.09,2.51,0.153,3.769,0.203
	c0.309,0.012,0.618,0.023,0.926,0.033c1.263,0.04,2.528,0.068,3.797,0.068c1.269,0,2.534-0.028,3.797-0.068
	c0.309-0.01,0.618-0.021,0.926-0.033c1.259-0.05,2.516-0.113,3.769-0.203c0.038-0.003,0.076-0.007,0.115-0.009
	c1.222-0.089,2.439-0.203,3.655-0.33c0.3-0.031,0.6-0.063,0.9-0.097c1.244-0.14,2.485-0.293,3.721-0.473
	c0.07-0.01,0.14-0.023,0.21-0.033c1.178-0.173,2.351-0.369,3.521-0.579c0.292-0.052,0.583-0.104,0.874-0.159
	c1.225-0.229,2.448-0.472,3.664-0.741c0.097-0.022,0.194-0.046,0.29-0.068c1.137-0.254,2.269-0.529,3.398-0.817
	c0.283-0.072,0.565-0.144,0.848-0.219c1.203-0.317,2.402-0.649,3.595-1.006c0.029-0.009,0.058-0.016,0.087-0.024v0.159
	c0,0.659-0.042,1.319-0.082,1.98l-23.79,13.102c-2.221-1.096-4.68-1.701-7.219-1.701h-4.36c-2.577,0-5.069,0.622-7.32,1.754
	l-23.889-13.155c-0.039-0.66-0.082-1.321-0.082-1.979v-0.159c0.03,0.009,0.06,0.016,0.09,0.025
	C223.91,370.841,225.105,371.172,226.305,371.489z M251.477,414.603c0.003-0.035,0.005-0.07,0.008-0.105l1.112-14.265
	c0.023-0.29,0.128-0.548,0.309-0.769c0.16-0.182,0.49-0.465,1.014-0.465h4.36c0.527,0,0.852,0.286,1.028,0.49
	c0.172,0.197,0.273,0.433,0.301,0.711l6.721,65.033l-3.971-2.837C261.087,461.488,259.563,461,258,461h-10.142L251.477,414.603z
	 M202.018,382.229c1.592-1.46,3.927-1.741,5.814-0.699l29.927,16.48c-0.05,0.35-0.089,0.702-0.117,1.058l-0.612,7.849
	l-41.287-18.927L202.018,382.229z M330.05,398.167c23.975,9.689,39.87,33.056,39.87,59.153V497H142.08v-39.68
	c0-26.089,15.894-49.458,39.867-59.154l22.494,10.312h-15.774c-4.142,0-7.5,3.358-7.5,7.5V474.5c0,4.142,3.358,7.5,7.5,7.5
	s7.5-3.358,7.5-7.5v-51.022h39.573l-3.466,44.439c-0.163,2.085,0.552,4.142,1.971,5.676c1.42,1.535,3.416,2.407,5.506,2.407h15.847
	l15.544,11.103c1.299,0.928,2.827,1.397,4.36,1.397c1.299,0,2.601-0.337,3.77-1.017c2.549-1.482,3.993-4.321,3.69-7.254
	l-5.968-57.742L330.05,398.167z M309.978,382.225l6.279,5.764l-40.892,18.744l-0.834-8.065c-0.026-0.256-0.058-0.511-0.096-0.764
	l29.739-16.377C306.056,380.487,308.39,380.77,309.978,382.225z M294.05,352.93c-12.086,4.903-24.888,7.39-38.05,7.39
	c-2.468,0-4.923-0.087-7.363-0.262c-1.469-0.105-2.931-0.246-4.388-0.414c-0.403-0.046-0.805-0.097-1.207-0.148
	c-7.807-0.994-15.44-2.887-22.819-5.676c-0.76-0.287-1.518-0.584-2.273-0.89h-0.001c-0.001,0-0.002-0.001-0.003-0.001
	c-22.943-9.294-41.667-26.637-52.727-48.841c-0.356-0.714-0.704-1.436-1.074-2.234c-0.081-0.171-0.158-0.344-0.238-0.517
	c-0.174-0.373-0.347-0.745-0.518-1.125c-0.001-0.003-0.003-0.005-0.004-0.008c-0.013-0.03-0.026-0.058-0.043-0.095l-0.132-0.302
	c-0.02-0.05-0.042-0.098-0.064-0.147c-0.005-0.011-0.008-0.022-0.013-0.033c-0.196-0.444-0.391-0.898-0.578-1.351
	c-0.038-0.093-0.078-0.186-0.12-0.277c-0.011-0.026-0.021-0.051-0.032-0.077c-0.416-0.989-0.813-1.986-1.209-3.028
	c-0.186-0.497-0.373-0.996-0.558-1.514c-0.301-0.835-0.591-1.67-0.887-2.556c-0.176-0.537-0.352-1.075-0.53-1.654
	c-0.262-0.843-0.516-1.686-0.742-2.479l-0.069-0.248c-0.093-0.337-0.187-0.671-0.273-1.01c-0.014-0.056-0.029-0.111-0.044-0.166
	c-0.124-0.442-0.238-0.885-0.364-1.378c-0.11-0.422-0.211-0.852-0.327-1.345c0-0.001,0-0.002-0.001-0.003
	c-0.224-0.95-0.439-1.901-0.634-2.852c-0.001-0.004-0.002-0.007-0.003-0.01c-0.003-0.013-0.005-0.026-0.008-0.039
	c-0.121-0.566-0.232-1.133-0.342-1.695c-0.058-0.296-0.116-0.6-0.172-0.936l-0.039-0.22c-0.059-0.329-0.119-0.659-0.169-0.988
	c-0.005-0.034-0.011-0.068-0.016-0.102l-0.09-0.54c-0.008-0.044-0.012-0.08-0.02-0.124c-0.016-0.109-0.033-0.22-0.052-0.331
	l-0.029-0.207c-0.025-0.182-0.051-0.363-0.069-0.474l-0.144-0.946c-0.078-0.538-0.148-1.075-0.208-1.621
	c-0.006-0.06-0.014-0.12-0.022-0.18c0-0.002,0-0.003-0.001-0.005c-0.041-0.301-0.073-0.604-0.105-0.905
	c0-0.002-0.001-0.004-0.001-0.005c-0.002-0.014-0.003-0.027-0.004-0.041c-0.059-0.518-0.111-1.044-0.162-1.564l-0.023-0.236
	c-0.038-0.39-0.076-0.774-0.099-1.165c-0.008-0.141-0.02-0.282-0.036-0.422c-0.004-0.05-0.009-0.103-0.014-0.159
	c-0.003-0.049-0.011-0.156-0.015-0.205c-0.011-0.147-0.024-0.29-0.03-0.432c-0.004-0.106-0.011-0.211-0.02-0.316
	c-0.031-0.376-0.055-0.743-0.07-1.119c-0.003-0.082-0.008-0.163-0.014-0.244c-0.013-0.176-0.018-0.359-0.024-0.535
	c-0.003-0.076-0.007-0.152-0.012-0.229c-0.014-0.205-0.019-0.415-0.027-0.668c-0.003-0.08-0.007-0.16-0.012-0.24
	c0,0-0.003-0.044-0.005-0.077c-0.001-0.043-0.002-0.086-0.003-0.13c-0.019-0.6-0.038-1.2-0.047-1.806
	c-0.01-0.6-0.019-1.21-0.019-1.81v-6.49v-23.036c33.652,2.329,67.504,3.509,101.359,3.509s67.708-1.18,101.36-3.509v23.036v6.49
	c0,0.6-0.009,1.21-0.019,1.81c0,0.001,0,0.001,0,0.001c0,0.002,0,0.004,0,0.005c-0.009,0.6-0.028,1.2-0.047,1.8
	c-0.001,0.036-0.002,0.072-0.002,0.107c-0.004,0.101-0.007,0.201-0.009,0.299c-0.018,0.517-0.043,1.027-0.076,1.544
	c-0.004,0.057-0.007,0.114-0.009,0.171c-0.016,0.375-0.039,0.743-0.07,1.119c-0.009,0.105-0.015,0.21-0.02,0.316
	c-0.006,0.142-0.018,0.285-0.033,0.467c-0.065,0.809-0.129,1.617-0.213,2.416c-0.005,0.044-0.009,0.089-0.013,0.133
	c-0.032,0.366-0.071,0.724-0.111,1.089l-0.014,0.125c-0.033,0.302-0.064,0.604-0.105,0.905c0,0.002,0,0.003,0,0.005
	c-0.012,0.091-0.023,0.182-0.032,0.274c-0.009,0.074-0.017,0.147-0.026,0.221v0.001c-0.011,0.071-0.023,0.17-0.033,0.254
	c0,0.002-0.001,0.005-0.001,0.008l-0.025,0.216c-0.001,0.004-0.001,0.009-0.001,0.013c-0.004,0.027-0.009,0.055-0.013,0.082
	l-0.15,1.061c-0.005,0.034-0.01,0.069-0.014,0.103c-0.013,0.1-0.023,0.196-0.04,0.292c-0.017,0.093-0.032,0.187-0.046,0.28
	l-0.019,0.133c-0.044,0.311-0.088,0.626-0.154,1.011c-0.078,0.494-0.164,0.98-0.25,1.472l-0.098,0.555l-0.051,0.284
	c-0.016,0.085-0.032,0.171-0.049,0.258l-0.029,0.151c-0.111,0.565-0.222,1.131-0.353,1.745c-0.19,0.923-0.388,1.855-0.614,2.77
	c-0.007,0.028-0.023,0.098-0.03,0.127c-0.103,0.438-0.205,0.874-0.328,1.346c-0.115,0.452-0.229,0.894-0.353,1.336
	c-0.016,0.055-0.03,0.11-0.044,0.166c-0.087,0.339-0.18,0.673-0.273,1.01l-0.052,0.189c-0.243,0.853-0.497,1.695-0.769,2.572
	c-0.167,0.546-0.344,1.083-0.533,1.663c-0.282,0.844-0.572,1.679-0.88,2.535c-0.176,0.493-0.361,0.987-0.573,1.552
	c-0.377,0.992-0.772,1.985-1.186,2.97c-0.006,0.015-0.017,0.042-0.029,0.071c-0.043,0.093-0.084,0.188-0.123,0.283
	c-0.187,0.454-0.382,0.907-0.578,1.351c-0.006,0.012-0.009,0.025-0.015,0.038c-0.02,0.047-0.042,0.094-0.062,0.142l-0.12,0.276
	c-0.019,0.04-0.037,0.08-0.055,0.12c-0.001,0.003-0.003,0.006-0.005,0.009c-0.238,0.529-0.478,1.052-0.753,1.633
	c-0.012,0.026-0.023,0.049-0.035,0.075c-0.212,0.457-0.433,0.905-0.652,1.356c-0.132,0.273-0.259,0.548-0.394,0.82
	C335.721,326.292,316.997,343.634,294.05,352.93z M382.38,299.94h-17.448c0.188-0.5,0.373-0.998,0.545-1.48
	c0.001-0.004,0.002-0.007,0.004-0.011c0.001-0.003,0.002-0.006,0.004-0.009c0-0.001,0.001-0.003,0.001-0.004
	c0.337-0.937,0.663-1.873,0.979-2.82c0.005-0.014,0.037-0.111,0.041-0.125c0.206-0.628,0.41-1.255,0.595-1.86
	c0.298-0.957,0.585-1.914,0.878-2.941l0.066-0.236c0.113-0.408,0.224-0.811,0.33-1.22c0.147-0.53,0.285-1.059,0.413-1.56
	c0.142-0.543,0.273-1.097,0.393-1.61c0.295-1.191,0.542-2.362,0.735-3.3c0.133-0.622,0.256-1.245,0.383-1.89
	c0.002-0.01,0.005-0.024,0.007-0.035c0.017-0.078,0.035-0.168,0.046-0.225l0.063-0.35c0.047-0.251,0.092-0.5,0.134-0.75
	c0-0.002,0-0.005,0.001-0.007l0.04-0.226c0.1-0.568,0.198-1.132,0.275-1.62c0.074-0.433,0.139-0.885,0.203-1.33l0.002-0.014
	c0.036-0.213,0.066-0.43,0.096-0.649c0.006-0.041,0.013-0.082,0.019-0.123h-0.001c0.003-0.022,0.007-0.042,0.009-0.064l0.135-0.955
	c0.037-0.237,0.067-0.485,0.098-0.753l0.013-0.092c0.014-0.098,0.025-0.195,0.035-0.293c0.01-0.079,0.019-0.158,0.027-0.236
	c0.051-0.391,0.094-0.782,0.137-1.172l0.013-0.122c0.048-0.448,0.096-0.889,0.136-1.338c0.093-0.899,0.168-1.811,0.247-2.799
	c0.021-0.271,0.04-0.534,0.053-0.796c0.041-0.507,0.072-1.006,0.094-1.514c0.043-0.671,0.075-1.334,0.096-2.007
	c0.001-0.034,0.002-0.068,0.002-0.103c0.005-0.107,0.008-0.216,0.01-0.325c0.02-0.657,0.04-1.314,0.05-1.964
	c0.005-0.346,0.011-0.692,0.015-1.04h10.026c2.314,0,4.568,0.389,6.724,1.165c7.935,2.826,13.267,10.387,13.267,18.814
	C402.37,290.973,393.402,299.94,382.38,299.94z"/>
<path d="M215.5,439.1c-0.41-0.27-0.85-0.5-1.3-0.69c-0.45-0.19-0.92-0.33-1.4-0.43c-0.97-0.19-1.96-0.19-2.93,0
	c-0.48,0.1-0.95,0.24-1.41,0.43c-0.45,0.19-0.88,0.42-1.29,0.69s-0.79,0.58-1.14,0.93c-1.4,1.4-2.2,3.33-2.2,5.3
	c0,0.49,0.05,0.99,0.15,1.47c0.1,0.48,0.24,0.95,0.43,1.4c0.19,0.46,0.42,0.89,0.69,1.3c0.27,0.41,0.59,0.79,0.93,1.14
	c0.35,0.34,0.73,0.66,1.14,0.93s0.84,0.5,1.29,0.69c0.46,0.19,0.93,0.33,1.41,0.43c0.48,0.09,0.97,0.14,1.46,0.14
	c0.49,0,0.98-0.05,1.47-0.14c0.48-0.1,0.95-0.24,1.4-0.43c0.45-0.19,0.89-0.42,1.3-0.69s0.79-0.59,1.14-0.93
	c0.34-0.35,0.66-0.73,0.93-1.14s0.5-0.84,0.69-1.3c0.19-0.45,0.33-0.92,0.43-1.4c0.1-0.48,0.14-0.98,0.14-1.47
	c0-1.97-0.8-3.9-2.19-5.3C216.29,439.69,215.91,439.37,215.5,439.1z"/>
<path d="M218.26,474.46c-0.19-0.45-0.42-0.88-0.69-1.29c-0.27-0.41-0.59-0.79-0.93-1.14c-0.35-0.35-0.73-0.66-1.14-0.93
	s-0.85-0.5-1.3-0.69c-0.45-0.19-0.92-0.33-1.4-0.43c-0.97-0.19-1.96-0.19-2.93,0c-0.48,0.1-0.95,0.24-1.41,0.43
	c-0.45,0.19-0.88,0.42-1.29,0.69s-0.79,0.58-1.14,0.93c-0.34,0.35-0.66,0.73-0.93,1.14c-0.27,0.41-0.5,0.84-0.69,1.29
	c-0.19,0.46-0.33,0.93-0.43,1.41c-0.1,0.48-0.15,0.98-0.15,1.461c0,1.98,0.8,3.91,2.2,5.309c0.35,0.34,0.73,0.66,1.14,0.93
	s0.84,0.5,1.29,0.69c0.46,0.19,0.93,0.33,1.41,0.43c0.48,0.09,0.97,0.14,1.46,0.14c0.49,0,0.98-0.05,1.47-0.14
	c0.48-0.1,0.95-0.24,1.4-0.43c0.45-0.19,0.89-0.42,1.3-0.69s0.79-0.59,1.14-0.93c1.39-1.4,2.19-3.329,2.19-5.309
	c0-0.48-0.04-0.98-0.14-1.461C218.59,475.39,218.45,474.92,218.26,474.46z"/>
<path d="M293.74,448.2c0.19,0.45,0.42,0.89,0.69,1.3c0.27,0.41,0.59,0.79,0.93,1.14c1.4,1.39,3.33,2.191,5.31,2.191
	c1.97,0,3.9-0.8,5.3-2.191c0.35-0.35,0.66-0.73,0.93-1.14s0.5-0.85,0.69-1.3c0.19-0.45,0.33-0.92,0.43-1.4
	c0.1-0.49,0.15-0.98,0.15-1.47s-0.05-0.98-0.15-1.461c-0.1-0.48-0.24-0.95-0.43-1.4c-0.19-0.46-0.42-0.89-0.69-1.3
	c-0.27-0.41-0.58-0.79-0.93-1.14c-1.39-1.4-3.33-2.2-5.3-2.2c-1.98,0-3.91,0.8-5.31,2.2c-0.34,0.35-0.66,0.73-0.93,1.14
	s-0.5,0.84-0.69,1.3c-0.19,0.45-0.33,0.92-0.43,1.4c-0.09,0.48-0.14,0.97-0.14,1.461c0,0.49,0.05,0.98,0.14,1.47
	C293.41,447.28,293.55,447.75,293.74,448.2z"/>
<path d="M293.74,480.2c0.19,0.45,0.42,0.89,0.69,1.3c0.27,0.41,0.59,0.79,0.93,1.14c1.4,1.39,3.33,2.191,5.31,2.191
	c1.97,0,3.9-0.8,5.3-2.191c0.35-0.35,0.66-0.73,0.93-1.14s0.5-0.85,0.69-1.3c0.19-0.45,0.33-0.92,0.43-1.4
	c0.1-0.48,0.15-0.98,0.15-1.47c0-0.48-0.05-0.98-0.15-1.461c-0.1-0.48-0.24-0.95-0.43-1.41c-0.19-0.45-0.42-0.88-0.69-1.29
	s-0.58-0.8-0.93-1.14c-1.4-1.4-3.33-2.2-5.3-2.2c-1.98,0-3.91,0.8-5.31,2.2c-0.34,0.34-0.66,0.73-0.93,1.14s-0.5,0.84-0.69,1.29
	c-0.19,0.46-0.33,0.93-0.43,1.41c-0.09,0.48-0.14,0.98-0.14,1.461c0,0.49,0.05,0.99,0.14,1.47
	C293.41,479.28,293.55,479.75,293.74,480.2z"/>
<path d="M327.957,294.428c-2.406-1.679-5.568-1.801-8.096-0.312c-3.316,1.952-9.916,2.572-15.218,0.23
	c-3.573-1.578-5.757-4.15-6.49-7.645c-0.073-0.345-0.169-0.682-0.288-1.009c-3.48-11.921-14.456-20.192-26.917-20.192
	c-5.308,0-10.501,1.538-14.949,4.34c-4.448-2.802-9.641-4.34-14.949-4.34c-12.458,0-23.431,8.267-26.914,20.183
	c-0.12,0.33-0.217,0.669-0.29,1.018c-0.733,3.495-2.917,6.067-6.49,7.645c-5.303,2.343-11.901,1.722-15.218-0.23
	c-2.528-1.489-5.691-1.367-8.096,0.312c-2.406,1.678-3.612,4.605-3.088,7.49c1.882,10.368,9.963,23.19,23.777,28.465
	c10.441,3.988,27.759,4.914,51.269-12.977c15.4,11.719,28.142,15.364,38.036,15.364c5.211,0,9.631-1.011,13.233-2.387
	c13.813-5.275,21.895-18.097,23.777-28.465C331.57,299.033,330.363,296.106,327.957,294.428z M301.918,316.37
	c-10.031,3.832-23.086-0.184-37.755-11.609c-0.144-0.112-0.255-0.194-0.407-0.295l-0.711-0.519c-0.042-0.035-0.086-0.07-0.129-0.104
	c-0.497-0.389-0.99-0.841-1.464-1.343c-1.417-1.5-3.389-2.349-5.452-2.349s-4.035,0.85-5.452,2.349
	c-0.474,0.502-0.966,0.954-1.464,1.343c-0.043,0.034-0.086,0.069-0.129,0.104l-0.673,0.493c-0.152,0.101-0.301,0.209-0.445,0.321
	c-14.669,11.425-27.725,15.44-37.755,11.609c-3.316-1.266-6.032-3.274-8.181-5.557c3.959-0.243,7.914-1.155,11.517-2.746
	c7.803-3.446,13.097-9.696,14.967-17.644c0.023-0.078,0.046-0.156,0.067-0.235c1.523-5.705,6.705-9.689,12.6-9.689
	c3.617,0,6.988,1.462,9.492,4.117c1.417,1.503,3.391,2.355,5.456,2.355c2.065,0,4.04-0.852,5.457-2.355
	c2.504-2.655,5.875-4.117,9.492-4.117c5.895,0,11.076,3.984,12.6,9.689c0.021,0.079,0.043,0.157,0.067,0.235
	c1.871,7.948,7.164,14.197,14.967,17.644c3.604,1.592,7.558,2.503,11.517,2.746C307.95,313.096,305.234,315.104,301.918,316.37z"/>
<g>
</g>
<g>
</g>
<g>
</g>
<g>
</g>
<g>
</g>
<g>
</g>
<g>
</g>
<g>
</g>
<g>
</g>
<g>
</g>
<g>
</g>
<g>
</g>
<g>
</g>
<g>
</g>
<g>
</g>
</svg>
