<?xml version="1.0" encoding="iso-8859-1"?>
<!-- Generator: Adobe Illustrator 19.0.0, SVG Export Plug-In . SVG Version: 6.00 Build 0)  -->
<svg version="1.1" id="Layer_1" xmlns="http://www.w3.org/2000/svg" xmlns:xlink="http://www.w3.org/1999/xlink" x="0px" y="0px"
	 viewBox="0 0 512 512" style="enable-background:new 0 0 512 512;" xml:space="preserve">
<path style="fill:#F2F2F2;" d="M102.773,361.228v95.799h306.455v-158.78c52.075-0.93,94.011-43.405,94.011-95.702
	c0-52.879-42.867-95.745-95.745-95.745c-22.144,0-42.514,7.538-58.733,20.159c-10.586-41.358-48.101-71.934-92.758-71.934
	s-82.172,30.575-92.758,71.934c-16.219-12.621-36.591-20.159-58.733-20.159c-52.879,0-95.745,42.867-95.745,95.745
	c0,52.297,41.936,94.772,94.011,95.702v33.774"/>
<path style="fill:#E6E6E6;" d="M146.581,332.021v-33.774c-52.075-0.93-94.011-43.405-94.011-95.702
	c0-45.34,31.526-83.293,73.846-93.2c-7.038-1.652-14.366-2.546-21.909-2.546c-52.879,0-95.745,42.867-95.745,95.745
	c0,52.297,41.936,94.772,94.011,95.702v33.774v29.207v95.799h43.808v-95.799V332.021z"/>
<rect x="102.773" y="394.039" style="fill:#F97E62;" width="306.452" height="62.99"/>
<rect x="102.773" y="394.039" style="fill:#E86B56;" width="43.808" height="62.99"/>
<path d="M407.491,98.011c-19.307,0-37.748,5.16-53.99,15.022C338.129,73.158,299.626,46.237,256,46.237
	s-82.129,26.922-97.503,66.797c-16.241-9.863-34.683-15.022-53.99-15.022C46.882,98.011,0,144.893,0,202.519
	c0,27.583,10.652,53.6,29.993,73.26c17.286,17.57,39.759,28.291,64.017,30.701v25.516c0,4.839,3.923,8.762,8.762,8.762
	s8.762-3.923,8.762-8.762v-33.774c0-4.778-3.828-8.676-8.606-8.761c-22.902-0.409-44.368-9.632-60.443-25.972
	c-16.097-16.362-24.962-38.014-24.962-60.97c0-47.963,39.021-86.983,86.985-86.983c19.509,0,37.958,6.332,53.352,18.312
	c2.332,1.814,5.421,2.332,8.215,1.376c2.796-0.956,4.921-3.256,5.653-6.118C181.578,90.631,216.23,63.761,256,63.761
	c39.768,0,74.422,26.871,84.269,65.344c0.733,2.862,2.858,5.163,5.653,6.118c2.795,0.956,5.885,0.438,8.215-1.376
	c15.394-11.98,33.843-18.312,53.352-18.312c47.963,0,86.985,39.021,86.985,86.983c0,22.956-8.865,44.609-24.962,60.969
	c-16.076,16.34-37.542,25.564-60.443,25.972c-4.777,0.085-8.606,3.983-8.606,8.761v87.028h-28.81c-4.839,0-8.762,3.923-8.762,8.762
	s3.923,8.762,8.762,8.762h28.811v45.466h-288.93v-45.466h230.912c4.839,0,8.762-3.923,8.762-8.762s-3.923-8.762-8.762-8.762H111.535
	v-24.047c0-4.839-3.923-8.762-8.762-8.762s-8.762,3.923-8.762,8.762v95.799c0,4.839,3.923,8.762,8.762,8.762h306.455
	c4.839,0,8.762-3.923,8.762-8.762V306.48c24.258-2.41,46.731-13.132,64.017-30.701C501.348,256.12,512,230.102,512,202.519
	C512,144.893,465.117,98.011,407.491,98.011z"/>
<g>
</g>
<g>
</g>
<g>
</g>
<g>
</g>
<g>
</g>
<g>
</g>
<g>
</g>
<g>
</g>
<g>
</g>
<g>
</g>
<g>
</g>
<g>
</g>
<g>
</g>
<g>
</g>
<g>
</g>
</svg>
