<svg id="Capa_1" enable-background="new 0 0 511.92 511.92" height="512" viewBox="0 0 511.92 511.92" width="512" xmlns="http://www.w3.org/2000/svg"><path d="m437.039 230.536c-17.507 0-35.184-5.501-50.088-16.592l-32.968-24.534c-14.477-10.773-32.042-16.592-50.088-16.592 0 0-34.134.617-47.936 15.408-13.802-14.791-47.936-15.408-47.936-15.408-18.046 0-35.611 5.818-50.088 16.592l-32.968 24.534c-14.045 10.452-31.51 16.592-50.088 16.592-37.751.013-67.382-29.483-67.382-29.483v58.043c0 42.611 86.532 118.088 172.639 57.191 0 0 53.499 8.465 75.823-19.329 22.324 27.794 75.823 19.329 75.823 19.329 86.106 60.897 172.639-14.58 172.639-57.191v-58.043c0 .001-29.631 29.496-67.382 29.483z" fill="#fbac42"/><g fill="#f59400"><path d="m208.405 317.145c-5.103-.358-8.268-.857-8.268-.857-.592.419-1.184.807-1.776 1.212 3.122.004 6.508-.095 10.044-.355z"/><path d="m504.421 216.076v-15.022s-24.693 24.564-57.71 28.84c20.77 2.577 39.85-3.066 57.71-13.818z"/><path d="m275.96 188.228c9.23-9.891 27.541-13.44 38.667-14.708-3.545-.457-7.127-.7-10.731-.7 0 0-22.11.406-37.936 8.275 3.836 1.907 7.307 4.247 10 7.133z"/><path d="m144.968 213.945 32.968-24.534c11.586-8.622 25.151-14.06 39.357-15.892-5.512-.628-9.269-.7-9.269-.7-18.046 0-35.611 5.818-50.088 16.592l-32.968 24.534c-11.696 8.704-25.408 14.169-39.759 15.949 20.14 2.609 42.058-2.776 59.759-15.949z"/><path d="m27.499 259.097v-43.021c-12.397-7.463-20-15.022-20-15.022v58.043c0 32.944 51.728 85.516 114.989 79.539-53.81-5.119-94.989-50.145-94.989-79.539z"/><path d="m351.783 316.288s-7.581 1.199-18.224 1.212c26.117 17.904 52.215 23.386 75.874 21.135-18.563-1.753-38.116-8.532-57.65-22.347z"/><path d="m275.96 296.959c-2.875 3.58-6.271 6.554-10 9.027 18.186 12.058 44.363 12.085 57.555 11.159-16.433-1.209-36.098-5.922-47.555-20.186z"/></g><path d="m336.111 310.167-2.49-1.761c-23.297 3.685-57.046 2.244-71.813-16.142l-5.848-7.28-5.848 7.28c-14.721 18.328-48.642 19.807-71.813 16.142l-2.489 1.761c-47.633 33.684-90.194 20.365-111.323 9.428-30.977-16.034-49.487-43.349-49.487-60.494v-42.237c11.437 8.159 29.677 18.445 51.255 20.716l1.57-14.918c-30.776-3.238-54.803-26.697-55.033-26.926l-12.792-12.737v76.101c0 49.474 92.744 125.631 182.03 65.004 11.336 1.313 50.705 4.123 73.93-16.338 23.227 20.463 62.597 17.65 73.931 16.338 25.973 17.615 54.629 25.109 83.045 21.692l-1.791-14.893c-25.928 3.117-51.171-3.859-75.034-20.736z"/><path d="m511.911 183.088-12.774 12.64c-.276.273-27.997 27.313-62.079 27.313-16.357 0-32.547-5.376-45.631-15.117l-32.969-24.53c-15.659-11.655-35.034-18.073-54.558-18.073-4.313.047-12.648.817-20.232 2.298-11.654 2.276-20.938 5.872-27.711 10.722-16.879-12.079-44.386-12.956-47.802-13.018-18.254-.197-38.369 5.922-54.691 18.071l-32.973 24.531c-11.416 8.499-24.933 13.627-39.088 14.833l1.273 14.946c16.94-1.443 33.113-7.579 46.77-17.746l32.973-24.531c13.069-9.729 29.238-15.092 45.534-15.106 8.674.169 33.008 2.828 42.523 13.026l5.483 5.877 5.483-5.877c9.477-10.156 33.85-12.843 42.528-13.026 16.295.016 32.461 5.379 45.531 15.107l32.969 24.529c15.663 11.661 35.043 18.083 54.566 18.083 21.504 0 42.378-8.675 59.882-21.171v42.231c0 28.25-38.595 60.357-71.796 69.128l3.832 14.502c48.892-12.916 82.964-54.441 82.964-83.631z"/><path d="m381.674 254.649 6.822-13.359c15.046 7.684 31.832 11.746 48.543 11.746 11.5 0 23.239-2.08 34.892-6.182l4.98 14.148c-33.232 11.702-66.766 8.187-95.237-6.353zm-13.723-8.191c-2.352-1.626-3.424-2.457-12.288-9.054l8.955-12.033c8.006 5.958 9.684 7.242 11.86 8.746zm-24.322-18.008-12.033-8.955 8.955-12.033 12.033 8.955z" fill="#fff"/></svg>