<svg height="511pt" viewBox="-44 0 511 511.99389" width="511pt" xmlns="http://www.w3.org/2000/svg"><path d="m78.480469 39.71875c-1.148438 0-23.066407 85.714844-24.125 85.539062-21.363281 39.898438-28.691407 110.34375-18.539063 166.046876 4.148438 23.660156 12.710938 46.332031 25.246094 66.824218 6.445312-15.007812 26.21875 62.058594 43.167969 47.140625h216.277343c16.945313 14.917969 36.722657-62.148437 43.164063-47.140625 12.535156-20.492187 21.101563-43.164062 25.246094-66.824218 10.152343-55.703126 2.828125-126.148438-18.535157-166.046876-1.058593.175782-47.253906-83.332031-48.402343-83.332031zm0 0" fill="#802d40"/><path d="m212.367188 308.871094 65.105468 161.191406-65.105468 11.582031c-52.171876-.089843-109.285157-69.226562-142.476563-123.515625 7.707031-18.9375 19.421875-35.984375 34.339844-49.964844 8.339843-7.480468 18.097656-13.210937 28.6875-16.859374 51.203125-17.039063 77.597656 15.359374 79.449219 17.566406zm0 0" fill="#fb7b76"/><path d="m354.84375 358.128906c-30.070312 50.304688-83.800781 81.714844-142.386719 83.246094h-.089843v-132.503906c1.855468-2.207032 28.25-34.605469 79.449218-17.566406 10.59375 3.648437 20.347656 9.378906 28.691406 16.859374 14.917969 13.980469 26.632813 31.027344 34.335938 49.964844zm0 0" fill="#ff5364"/><path d="m320.507812 308.164062c-8.34375-7.480468-18.097656-13.210937-28.691406-16.859374-51.199218-17.039063-77.59375 15.359374-79.449218 17.566406-1.851563-2.207032-28.246094-34.605469-79.449219-17.566406-10.589844 3.648437-20.347657 9.378906-28.6875 16.859374-5.378907-32.101562 5.34375-64.796874 28.6875-87.480468 44.140625-44.136719 79.449219-8.828125 61.796875 8.828125-17.65625 17.65625-8.828125 44.050781 17.566406 44.136719h.175781c26.394531-.085938 35.222657-26.480469 17.566407-44.136719s17.65625-52.964844 61.792968-8.828125c23.34375 22.683594 34.066406 55.378906 28.691406 87.480468zm0 0" fill="#2c2f38"/><path d="m323.15625 97.804688c-3.03125 3.09375-4.769531 7.230468-4.855469 11.5625v3.707031c-1.503906-6.53125-7.945312-13.859375-23.304687-13.859375-7.46875-.121094-14.800782 2.03125-21.011719 6.179687-5.136719 3.269531-8.363281 8.835938-8.652344 14.917969v-4.234375c0-7.859375-5.914062-18.980469-23.566406-18.980469-7.511719-.117187-14.832031 2.34375-20.746094 6.972656-5.308593 3.964844-8.5 10.148438-8.652343 16.773438-.152344-6.625-3.34375-12.808594-8.648438-16.773438-5.914062-4.628906-13.238281-7.089843-20.746094-6.972656-17.65625 0-23.570312 11.121094-23.570312 18.980469v4.234375c-.285156-6.082031-3.511719-11.648438-8.652344-14.917969-6.210938-4.148437-13.539062-6.300781-21.007812-6.179687-15.359376 0-21.804688 7.328125-23.304688 13.859375v-7.945313c-.054688-3.101562-1.105469-6.105468-3-8.5625l1.058594-.792968h.175781c7.949219-5.777344 16.398437-10.828126 25.246094-15.09375.089843 0 .089843-.089844.175781-.089844 51.984375-25.070313 112.5625-25.070313 164.546875 0 .089844 0 .089844.089844.175781.089844 8.851563 4.265624 17.300782 9.316406 25.25 15.09375h.175782c.96875.707031 1.941406 1.414062 2.914062 2.03125zm0 0" fill="#fb7b76"/><g fill="#fac176"><path d="m212.367188 112.015625v28.511719c-.671876 5.84375-5.886719 10.078125-11.738282 9.535156h-29.484375c-5.855469.542969-11.070312-3.691406-11.742187-9.535156v-33.277344c0-7.859375 5.914062-18.980469 23.570312-18.980469 7.507813-.117187 14.832032 2.34375 20.746094 6.972657 5.304688 3.964843 8.496094 10.152343 8.648438 16.773437zm0 0"/><path d="m159.402344 111.484375v24.277344c0 5.296875-6.003906 9.535156-13.328125 9.535156h-26.660157c-7.414062 0-13.328124-4.238281-13.328124-9.535156v-8.738281c.242187-.679688.363281-1.398438.351562-2.121094v-20.65625c1.5-6.53125 7.945312-13.859375 23.304688-13.859375 7.46875-.121094 14.796874 2.035156 21.007812 6.179687 5.140625 3.269532 8.367188 8.835938 8.652344 14.917969zm0 0"/><path d="m265.332031 107.25v33.277344c-.667969 5.84375-5.882812 10.078125-11.738281 9.535156h-29.484375c-5.855469.542969-11.070313-3.691406-11.742187-9.535156v-28.511719c.152343-6.621094 3.34375-12.808594 8.652343-16.773437 5.914063-4.628907 13.234375-7.089844 20.746094-6.972657 17.652344 0 23.566406 11.121094 23.566406 18.980469zm0 0"/><path d="m318.652344 127.023438v8.738281c0 5.296875-5.914063 9.535156-13.328125 9.535156h-26.660157c-7.328124 0-13.332031-4.238281-13.332031-9.535156v-24.277344c.289063-6.082031 3.515625-11.648437 8.652344-14.917969 6.210937-4.144531 13.542969-6.300781 21.011719-6.179687 15.359375 0 21.800781 7.328125 23.304687 13.859375v20.65625c-.015625.722656.105469 1.441406.351563 2.121094zm0 0"/></g><path d="m350.519531 34.246094c-64.53125-64.265625-138.152343-18.363282-138.152343-18.363282s-73.621094-45.902343-138.152344 18.363282c-83.332032 83.242187-92.070313 238.875-45.988282 358.3125 46.078126 119.433594 184.140626 119.433594 184.140626 119.433594s138.152343 0 184.144531-119.433594c45.992187-119.4375 37.339843-275.070313-45.992188-358.3125zm29.574219 257.058594c-4.148438 23.660156-12.714844 46.332031-25.25 66.824218-30.070312 50.304688-83.800781 81.714844-142.386719 83.246094h-.175781c-58.589844-1.53125-112.320312-32.941406-142.390625-83.246094-12.535156-20.492187-21.097656-43.164062-25.246094-66.824218-10.152343-55.703126-2.824219-108.492188 18.539063-148.390626 6.488281-12.308593 14.691406-23.632812 24.363281-33.632812l.441406-.441406.175781-.179688c4.816407-4.367187 9.917969-8.40625 15.273438-12.09375l1.058594-.792968h.175781c7.949219-5.777344 16.398437-10.828126 25.246094-15.09375.089843 0 .089843-.089844.175781-.089844 51.984375-25.070313 112.5625-25.070313 164.546875 0 .089844 0 .089844.089844.175781.089844 8.851563 4.265624 17.300782 9.316406 25.25 15.09375h.175782c.96875.707031 1.941406 1.414062 2.914062 2.03125 4.660156 3.378906 9.136719 7.003906 13.417969 10.855468l.175781.179688.441406.441406c9.667969 10 17.871094 21.324219 24.363282 33.632812 21.363281 39.898438 28.6875 92.6875 18.539062 148.390626zm0 0" fill="#df4d60"/><path d="m212.367188 120.84375v28.511719c-.671876 5.84375-5.886719 10.078125-11.738282 9.535156h-29.484375c-5.855469.542969-11.070312-3.691406-11.742187-9.535156v-33.277344c0-7.859375 5.914062-18.980469 23.570312-18.980469 7.507813-.117187 14.832032 2.34375 20.746094 6.972656 5.304688 3.964844 8.496094 10.148438 8.648438 16.773438zm0 0" fill="#f5efca"/><path d="m159.402344 120.3125v24.277344c0 5.296875-6.003906 9.535156-13.328125 9.535156h-26.660157c-7.414062 0-13.328124-4.238281-13.328124-9.535156v-8.738282c.242187-.679687.363281-1.398437.351562-2.121093v-20.65625c1.5-6.53125 7.945312-13.859375 23.304688-13.859375 7.46875-.121094 14.796874 2.03125 21.007812 6.179687 5.140625 3.269531 8.367188 8.835938 8.652344 14.917969zm0 0" fill="#f5efca"/><path d="m265.332031 116.078125v33.277344c-.667969 5.84375-5.882812 10.078125-11.738281 9.535156h-29.484375c-5.855469.542969-11.070313-3.691406-11.742187-9.535156v-28.511719c.152343-6.625 3.34375-12.808594 8.652343-16.773438 5.914063-4.628906 13.234375-7.089843 20.746094-6.972656 17.652344 0 23.566406 11.121094 23.566406 18.980469zm0 0" fill="#f5efca"/><path d="m318.652344 135.851562v8.738282c0 5.296875-5.914063 9.535156-13.328125 9.535156h-26.660157c-7.328124 0-13.332031-4.238281-13.332031-9.535156v-24.277344c.289063-6.082031 3.515625-11.648438 8.652344-14.917969 6.210937-4.148437 13.542969-6.300781 21.011719-6.179687 15.359375 0 21.800781 7.328125 23.304687 13.859375v20.65625c-.015625.722656.105469 1.441406.351563 2.121093zm0 0" fill="#f5efca"/><path d="m361.554688 142.914062c-1.078126.179688-2.171876.265626-3.265626.261719h-26.660156c-5.425781.480469-10.582031-2.433593-12.976562-7.324219v-19.773437c.007812-1.011719-.109375-2.019531-.351563-3.003906v-3.707031c.085938-4.332032 1.824219-8.46875 4.855469-11.5625 4.660156 3.378906 9.136719 7.003906 13.417969 10.855468l.175781.179688.441406.441406c9.667969 10 17.871094 21.324219 24.363282 33.632812zm0 0" fill="#f9eab0"/><path d="m106.4375 105.128906v7.945313c-.242188.984375-.363281 1.992187-.351562 3.003906v19.773437c-2.394532 4.890626-7.554688 7.804688-12.976563 7.324219h-26.660156c-1.09375.003907-2.1875-.082031-3.265625-.261719 6.488281-12.308593 14.691406-23.632812 24.363281-33.632812l.441406-.441406.175781-.179688c4.816407-4.367187 9.917969-8.40625 15.273438-12.09375 1.894531 2.457032 2.945312 5.460938 3 8.5625zm0 0" fill="#f9eab0"/><path d="m221.195312 414.890625c-4.875 0-8.828124-3.953125-8.828124-8.828125 0-8.332031-17.503907-8.828125-17.652344-8.828125-4.878906 0-8.828125-3.953125-8.828125-8.828125s3.949219-8.824219 8.828125-8.824219c12.207031 0 35.308594 5.53125 35.308594 26.480469 0 4.875-3.953126 8.828125-8.828126 8.828125zm0 0" fill="#ff5364"/><path d="m203.539062 370.753906c-4.875 0-8.824218-3.953125-8.824218-8.828125 0-20.949219 23.101562-26.484375 35.308594-26.484375 4.875 0 8.828124 3.953125 8.828124 8.828125s-3.953124 8.828125-8.828124 8.828125c-.335938 0-17.65625.53125-17.65625 8.828125 0 4.875-3.953126 8.828125-8.828126 8.828125zm0 0" fill="#fb7b76"/></svg>