<svg viewBox="0 -115 512.00019 512" xmlns="http://www.w3.org/2000/svg"><path d="m55.867188 274.882812h401.988281c4.308593-2.867187 27.066406-39.421874 23.441406-55.5-3.667969-16.265624 6.539063-37.710937.078125-52.851562-6.457031-15.128906-22.234375-20.941406-31.324219-34.574219-8.972656-13.460937-6.9375-37.4375-18.324219-49.082031-11.429687-11.691406-33.789062-8.484375-46.828124-17.492188-13.203126-9.121093-19.699219-32.210937-34.195313-38.429687s-34.113281 5.671875-49.550781 2.507813c-15.246094-3.125-29.332032-21.96875-45.152344-21.96875-15.816406 0-29.902344 18.84375-45.148438 21.96875-15.4375 3.164062-35.054687-8.726563-49.550781-2.507813-14.496093 6.21875-20.992187 29.308594-34.195312 38.429687-13.039063 9.007813-35.398438 5.800782-46.828125 17.492188-11.386719 11.644531-9.351563 35.621094-18.324219 49.082031-9.089844 13.632813-24.871094 19.445313-31.324219 34.574219-6.460937 15.140625 3.746094 36.585938.078125 52.851562-3.628906 16.078126 20.847657 52.632813 25.160157 55.5zm0 0" fill="#a0e557"/><path d="m191.972656 71.160156c-33.070312-33.070312-87.902344-31.851562-122.472656 2.71875-34.570312 34.570313-35.789062 89.402344-2.71875 122.472656 33.070312 33.070313 87.902344 31.851563 122.472656-2.71875 34.570313-34.570312 35.785156-89.402343 2.71875-122.472656zm0 0" fill="#fd8f31"/><path d="m125.523438 189.230469c-14.0625 0-27.101563-5.292969-36.714844-14.90625-20.871094-20.871094-19.652344-56.050781 2.71875-78.417969 11.363281-11.363281 26.175781-17.625 41.707031-17.625 14.066406 0 27.101563 5.292969 36.714844 14.90625 9.925781 9.925781 15.210937 23.402344 14.890625 37.957031-.335938 15.070313-6.589844 29.441407-17.609375 40.460938-11.363281 11.367187-26.175781 17.625-41.707031 17.625zm0 0" fill="#efa335"/><path d="m442.496094 73.878906c-34.570313-34.570312-89.402344-35.785156-122.472656-2.71875-33.070313 33.070313-31.851563 87.902344 2.71875 122.472656 34.570312 34.570313 89.402343 35.789063 122.472656 2.71875 33.066406-33.070312 31.851562-87.902343-2.71875-122.472656zm0 0" fill="#fd8f31"/><path d="m386.476562 189.230469c14.066407 0 27.105469-5.292969 36.714844-14.90625 20.871094-20.871094 19.652344-56.050781-2.71875-78.417969-11.363281-11.363281-26.171875-17.625-41.703125-17.625-14.066406 0-27.105469 5.292969-36.714843 14.90625-9.925782 9.925781-15.214844 23.402344-14.890626 37.957031.332032 15.070313 6.585938 29.441407 17.609376 40.460938 11.363281 11.367187 26.171874 17.625 41.703124 17.625zm0 0" fill="#efa335"/><g fill="#fc4e51"><path d="m111.539062 225.230469c-3.316406-22.664063-29.214843-37.636719-57.84375-33.441407-28.628906 4.191407-49.148437 25.960938-45.832031 48.621094 3.320313 22.664063 29.21875 37.636719 57.847657 33.441406 28.628906-4.191406 49.148437-25.960937 45.828124-48.621093zm0 0"/><path d="m458.359375 191.765625c-28.628906-4.191406-54.527344 10.78125-57.847656 33.441406-3.316407 22.660157 17.199219 44.429688 45.828125 48.625 28.632812 4.191407 54.53125-10.78125 57.847656-33.441406 3.320312-22.664063-17.199219-44.433594-45.828125-48.625zm0 0"/><path d="m305.710938 71.257812c0-19.105468-22.257813-34.589843-49.710938-34.589843s-49.710938 15.484375-49.710938 34.589843c0 19.101563 22.257813 34.589844 49.710938 34.589844s49.710938-15.488281 49.710938-34.589844zm0 0"/></g><path d="m256 59.820312c-115.304688 0-209.417969 90.746094-214.816406 204.714844-.265625 5.640625 4.277344 10.34375 9.921875 10.34375h409.792969c5.644531 0 10.1875-4.703125 9.917968-10.34375-5.398437-113.96875-99.507812-204.714844-214.816406-204.714844zm0 0" fill="#fccf3f"/><path d="m256 59.820312c-9.765625 0-19.371094.664063-28.792969 1.925782 105.152344 14.082031 186.25 104.132812 186.25 213.136718h47.441407c5.644531 0 10.1875-4.707031 9.917968-10.347656-5.398437-113.96875-99.507812-204.714844-214.816406-204.714844zm0 0" fill="#efa335"/><path d="m498.667969 204.019531c-2.761719-2.929687-5.859375-5.574219-9.21875-7.933593 1.558593-10.976563 3.15625-22.324219-1.183594-32.496094-2.960937-6.941406-7.421875-12.089844-12.101563-16.492188 2.792969-27.855468-6.917968-57.070312-28.367187-78.515625-17.839844-17.84375-41.277344-28.097656-66-28.882812-23.273437-.734375-45.230469 6.980469-62.339844 21.800781-2.863281-.851562-5.753906-1.632812-8.65625-2.367188-7.09375-17.605468-29.203125-29.957031-54.800781-29.957031-25.59375 0-47.707031 12.351563-54.800781 29.957031-2.902344.734376-5.789063 1.515626-8.65625 2.367188-17.105469-14.820312-39.0625-22.539062-62.335938-21.800781-24.722656.785156-48.164062 11.039062-66.003906 28.882812-21.449219 21.449219-31.160156 50.660157-28.367187 78.515625-4.675782 4.402344-9.140626 9.554688-12.101563 16.492188-4.339844 10.171875-2.738281 21.519531-1.183594 32.496094-3.359375 2.359374-6.457031 5.003906-9.21875 7.933593-10.257812 10.882813-14.839843 24.1875-12.894531 37.460938 2.902344 19.832031 20.554688 35.628906 44.0625 39.574219 2.082031.851562 4.324219 1.316406 6.605469 1.316406h409.789062c2.28125 0 4.523438-.464844 6.605469-1.316406 23.511719-3.949219 41.160156-19.742188 44.0625-39.574219 1.945312-13.273438-2.636719-26.578125-12.894531-37.460938zm-117.347657-149.34375c20.902344.664063 40.746094 9.363281 55.882813 24.5 25.332031 25.332031 31.414063 63.34375 16.347656 93.058594-3.164062-6.074219-6.605469-12.007813-10.332031-17.777344 4.664062-16.285156 2.382812-34.121093-6.464844-49.527343-2.0625-3.585938-6.640625-4.824219-10.230468-2.765626-3.585938 2.0625-4.824219 6.640626-2.761719 10.230469 4.40625 7.671875 6.695312 16.09375 6.820312 24.4375-.40625-.515625-.824219-1.027343-1.238281-1.539062-.300781-.375-.601562-.757813-.90625-1.128907-.554688-.679687-1.117188-1.347656-1.679688-2.019531-.621093-.742187-1.246093-1.484375-1.875-2.222656-.339843-.394531-.683593-.785156-1.027343-1.179687-.875-1.003907-1.757813-2.003907-2.652344-2.992188-.167969-.183594-.335937-.367188-.503906-.554688-1.082031-1.1875-2.175781-2.367187-3.285157-3.535156-.027343-.03125-.058593-.0625-.089843-.09375-7.292969-7.671875-15.113281-14.816406-23.414063-21.375-.125-.097656-.25-.203125-.378906-.300781-1.066406-.839844-2.148438-1.667969-3.230469-2.488281-.359375-.269532-.714843-.550782-1.074219-.816406-.597656-.449219-1.203124-.882813-1.804687-1.324219-4.429687-3.25-8.960937-6.324219-13.589844-9.222657 1.621094-.167968 3.265625-.261718 4.933594-.261718 7.910156 0 15.527344 1.820312 22.644531 5.414062 1.085938.546875 2.238282.804688 3.371094.804688 2.738281 0 5.375-1.507813 6.695312-4.117188 1.863282-3.695312.382813-8.199218-3.3125-10.0625-9.230468-4.660156-19.121093-7.023437-29.398437-7.023437-8.179687 0-16.277344 1.644531-23.648437 4.761719-6.089844-3.035157-12.308594-5.78125-18.644532-8.238282 12.996094-8.722656 28.527344-13.15625 44.847656-12.640625zm-125.320312-10.515625c13.339844 0 25.566406 4.160156 33.390625 10.667969-1.277344-.191406-2.554687-.367187-3.835937-.539063-.203126-.027343-.402344-.054687-.605469-.078124-1.21875-.160157-2.4375-.3125-3.660157-.449219-.28125-.03125-.566406-.058594-.851562-.089844-2.324219-.253906-4.65625-.476563-6.996094-.65625-.238281-.019531-.480468-.042969-.722656-.058594-.808594-.0625-1.617188-.109375-2.425781-.160156-.84375-.054687-1.691407-.109375-2.539063-.152344-.707031-.035156-1.417968-.070312-2.125-.097656-1.023437-.046875-2.046875-.082031-3.070312-.113281-.570313-.015625-1.144532-.035156-1.714844-.046875-1.613281-.035157-3.226562-.058594-4.84375-.058594-1.613281 0-3.226562.023437-4.84375.058594-.570312.011719-1.140625.03125-1.710938.046875-1.027343.03125-2.046874.066406-3.070312.113281-.710938.027344-1.421875.0625-2.128906.097656-.847656.046875-1.691406.097657-2.535156.152344-.8125.050781-1.621094.097656-2.429688.160156-.230469.015625-.464844.039063-.695312.054688-2.351563.183593-4.695313.40625-7.03125.660156-.277344.03125-.558594.058594-.839844.089844-1.222656.140625-2.445313.292969-3.667969.449219-.199219.027343-.394531.050781-.59375.078124-1.28125.171876-2.5625.347657-3.839844.539063 7.824219-6.507813 20.050781-10.667969 33.386719-10.667969zm-181.199219 35.015625c15.132813-15.136719 34.980469-23.835937 55.878907-24.5.855468-.027343 1.707031-.039062 2.558593-.039062 15.382813 0 29.980469 4.414062 42.289063 12.683593-6.335938 2.453126-12.554688 5.199219-18.644532 8.234376-7.371093-3.117188-15.464843-4.761719-23.648437-4.761719-10.320313 0-20.246094 2.382812-29.511719 7.082031-3.6875 1.867188-5.164062 6.378906-3.292968 10.066406 1.320312 2.605469 3.957031 4.105469 6.6875 4.105469 1.140624 0 2.296874-.261719 3.382812-.8125 7.144531-3.621094 14.789062-5.457031 22.734375-5.457031 1.667969 0 3.3125.09375 4.933594.261718-4.621094 2.890626-9.144531 5.960938-13.5625 9.199219-.613281.449219-1.230469.894531-1.835938 1.347657-.355469.265624-.703125.539062-1.054687.804687-1.089844.824219-2.175782 1.65625-3.25 2.5-.125.097656-.246094.199219-.371094.296875-8.300781 6.558594-16.125 13.703125-23.417969 21.378906-.03125.03125-.058593.0625-.089843.09375-1.109376 1.167969-2.203126 2.347656-3.285157 3.539063-.167969.183593-.335937.367187-.503906.550781-.894531.988281-1.777344 1.988281-2.652344 2.992188-.339843.394531-.6875.785156-1.027343 1.179687-.628907.738281-1.253907 1.480469-1.875 2.226563-.5625.667968-1.125 1.335937-1.675782 2.011718-.308594.375-.609375.757813-.914062 1.136719-.414063.511719-.828125 1.019531-1.234375 1.53125.125-8.324219 2.40625-16.722656 6.792969-24.382813 2.054687-3.589843.8125-8.167968-2.777344-10.222656-3.589844-2.054687-8.167969-.8125-10.226563 2.777344-8.8125 15.386719-11.078125 33.199219-6.425781 49.457031-3.726562 5.769531-7.167969 11.703125-10.332031 17.777344-15.066407-29.714844-8.980469-67.726563 16.351562-93.058594zm-36.839843 150.941407c-.089844.441406-.183594.882812-.273438 1.328124-.164062.847657-.324219 1.699219-.484375 2.550782-.140625.75-.273437 1.503906-.40625 2.257812-.125.71875-.253906 1.4375-.371094 2.160156-.234375 1.429688-.460937 2.859376-.667969 4.292969-.058593.402344-.109374.808594-.164062 1.210938-.164062 1.1875-.324219 2.378906-.46875 3.570312-.066406.53125-.128906 1.0625-.1875 1.59375-.136719 1.171875-.261719 2.347657-.378906 3.523438-.042969.421875-.085938.839843-.125 1.261719-.148438 1.566406-.28125 3.132812-.394532 4.707031-.023437.351562-.042968.703125-.066406 1.054687-.058594.835938-.117187 1.671875-.164062 2.507813-10.164063-4.945313-17.140625-13.214844-18.546875-22.828125-1.265625-8.644532 1.921875-17.527344 8.976562-25.011719 2.8125-2.980469 6.089844-5.597656 9.734375-7.800781.226563-.113282.441406-.234375.652344-.371094 3.480469-2.03125 7.269531-3.703125 11.300781-4.949219-3.300781 9.425781-5.957031 19.089844-7.964843 28.941407zm-1.3125-41.546876c-.921876-7.296874-1.304688-14.007812.867187-19.097656.59375-1.386718 1.296875-2.6875 2.097656-3.929687 2.140625 6.785156 5.085938 13.351562 8.871094 19.554687-4.09375.832032-8.054687 1.996094-11.835937 3.472656zm426.652343 76.816407c-.011719.0625-.027343.125-.042969.183593-.019531.078126-.042968.148438-.066406.21875-.242187.644532-.742187 1.105469-1.203125 1.335938-.015625.007812-.03125.015625-.046875.023438-.285156.136718-.625.242187-1.042968.242187h-409.792969c-.417969 0-.761719-.105469-1.042969-.242187-.015625-.007813-.03125-.015626-.046875-.023438-.460937-.230469-.964844-.691406-1.203125-1.335938-.027344-.070312-.050781-.140624-.070312-.214843-.015626-.0625-.027344-.125-.039063-.1875-.027344-.152344-.042969-.316407-.035156-.492188v-.003906c.074219-1.597656.171875-3.195313.285156-4.789063.035156-.53125.085937-1.058593.125-1.585937.082031-1.0625.167969-2.121094.265625-3.179687.058594-.652344.132812-1.304688.199219-1.953126.09375-.925781.191406-1.847656.296875-2.769531.085937-.726562.179687-1.453125.273437-2.179687.105469-.832032.210938-1.664063.324219-2.492188.113281-.800781.234375-1.601562.355469-2.402344.109375-.726562.222656-1.453124.339843-2.183593.144532-.894531.296876-1.789063.453126-2.683594.105468-.597656.214843-1.191406.324218-1.785156.1875-1.019531.382813-2.039063.585938-3.050781.085937-.425782.171875-.847657.261718-1.273438.242188-1.179688.492188-2.363281.761719-3.539062.039063-.183594.082031-.363282.125-.546876 2.671875-11.683593 6.359375-23.128906 11.054688-34.25.074219-.171874.125-.351562.183593-.53125.363282-.851562.738282-1.699218 1.113282-2.546874.0625-.121094.132812-.234376.1875-.355469 6.710937-15.128907 15.148437-29.257813 25.039062-42.160157.152344-.203124.304688-.402343.457032-.601562.828124-1.066406 1.667968-2.121094 2.511718-3.171875.335938-.417969.667969-.839844 1.007813-1.253906.601562-.734375 1.210937-1.457031 1.824219-2.183594.574218-.683594 1.144531-1.375 1.734374-2.054687.144532-.167969.292969-.332032.4375-.5 4.214844-4.847657 8.667969-9.523438 13.359376-14.011719 2.402343-2.300781 4.855468-4.535157 7.347656-6.703125.039062-.03125.074218-.066406.113281-.097656 1.128906-.984376 2.273437-1.949219 3.421875-2.90625.226562-.183594.453125-.375.679688-.558594 1-.824219 2.007812-1.636719 3.019531-2.441406.425781-.335938.851562-.671876 1.277343-1.003907.847657-.664062 1.699219-1.320312 2.558594-1.96875.671875-.507812 1.347656-1.007812 2.023438-1.503906.644531-.476563 1.289062-.953125 1.9375-1.421875 1.050781-.753906 2.109375-1.496094 3.171875-2.230469.304687-.210937.605469-.421875.910156-.632812 16.457031-11.238281 34.597656-20.152344 53.941406-26.3125.085938-.027344.164063-.066407.246094-.097657 5.082031-1.609374 10.234375-3.015624 15.441406-4.226562.019531-.007812.042969-.007812.0625-.011719 30.898438-7.203125 63.695313-7.203125 94.59375 0 .023438.003907.046875.003907.070313.011719 5.203125 1.210938 10.351562 2.617188 15.433594 4.226562.082031.027344.160156.070313.246093.09375 19.34375 6.164063 37.484375 15.078126 53.941407 26.316407.304687.207031.605468.421875.910156.632812 1.0625.734375 2.121094 1.476563 3.171875 2.230469.648437.46875 1.292969.945312 1.9375 1.417969.675781.5 1.351562 1 2.023437 1.507812.859375.648438 1.710938 1.304688 2.558594 1.96875.425781.332031.851562.664063 1.277344 1.003907 1.011718.800781 2.019531 1.617187 3.019531 2.441406.226563.183594.453125.371094.679687.558594 1.148438.957031 2.289063 1.921874 3.421876 2.90625.039062.03125.074218.0625.113281.097656 2.492187 2.167968 4.945312 4.402344 7.347656 6.699218 4.691406 4.488282 9.144531 9.167969 13.359375 14.015626.144531.167968.292969.332031.4375.5.589844.679687 1.15625 1.367187 1.734375 2.054687.613281.726563 1.222656 1.449219 1.824219 2.183594.339844.414062.671875.835937 1.007812 1.253906.84375 1.050781 1.683594 2.105469 2.511719 3.171875.152344.199219.304687.398438.457031.597656 9.894532 12.90625 18.328125 27.03125 25.039063 42.160156.054687.125.125.238282.1875.359376.375.847656.75 1.695312 1.113281 2.546874.058594.175782.109375.355469.183594.53125 4.695312 11.121094 8.382812 22.566407 11.054687 34.253907.042969.179687.085938.359375.125.539062.265625 1.179688.519531 2.363281.761719 3.546875.089844.421875.175781.84375.261719 1.265625.203125 1.015625.398437 2.035157.585937 3.054688.109375.59375.21875 1.1875.320313 1.78125.160156.898437.3125 1.792969.457031 2.691406.117188.726563.230469 1.449219.339844 2.175781.121094.804688.242187 1.605469.351562 2.410156.117188.824219.222656 1.65625.328125 2.484376.09375.726562.1875 1.453124.273438 2.183593.105469.917969.199219 1.84375.296875 2.765625.066406.652344.136718 1.304688.199218 1.957032.097657 1.058593.179688 2.117187.261719 3.175781.042969.53125.089844 1.058593.128907 1.589843.109374 1.59375.207031 3.191407.285156 4.789063.003906.179687-.015625.339844-.039063.496094zm.226563-80.304688c3.777344-6.195312 6.722656-12.757812 8.863281-19.539062.796875 1.242187 1.503906 2.542969 2.09375 3.929687 2.171875 5.089844 1.792969 11.796875.871094 19.089844-.089844-.035156-.1875-.0625-.277344-.097656-1.011719-.390625-2.039063-.757813-3.078125-1.101563-.261719-.089843-.523438-.179687-.789062-.265625-1.140626-.363281-2.292969-.707031-3.460938-1.019531-.246094-.066406-.496094-.121094-.742188-.183594-.960937-.246093-1.925781-.46875-2.902343-.675781-.195313-.042969-.382813-.097656-.578125-.136719zm33.210937 54.226563c-1.40625 9.613281-8.382812 17.882812-18.542969 22.828125-.046874-.835938-.109374-1.671875-.164062-2.503907-.023438-.355468-.046875-.707031-.070312-1.0625-.113282-1.570312-.246094-3.136718-.390626-4.703124-.039062-.421876-.085937-.84375-.128906-1.265626-.117187-1.171874-.242187-2.34375-.375-3.515624-.0625-.535157-.125-1.066407-.191406-1.601563-.144531-1.1875-.300781-2.371094-.464844-3.554687-.054687-.410157-.105468-.816407-.167968-1.222657-.207032-1.433593-.429688-2.863281-.667969-4.289062-.117188-.726563-.246094-1.445313-.371094-2.167969-.132813-.75-.265625-1.5-.40625-2.25-.15625-.851562-.316406-1.707031-.484375-2.558594-.089844-.4375-.179688-.875-.269531-1.308594-2.007813-9.851562-4.664063-19.511718-7.964844-28.933593.289063.089843.578125.183593.863281.277343.488282.15625.972656.324219 1.457032.492188.550781.199219 1.101562.402344 1.644531.617188.28125.109374.554687.226562.832031.339843 2.3125.960938 4.550781 2.0625 6.695312 3.328125.089844.054688.191407.09375.285157.144532 3.710937 2.222656 7.054687 4.871093 9.910156 7.902343 7.050781 7.480469 10.238281 16.363281 8.972656 25.007813zm0 0"/><path d="m170.757812 32.617188c4.714844-.085938 10.09375 1.066406 15.789063 2.273437 6.085937 1.289063 12.316406 2.609375 18.507813 2.609375 2.445312 0 4.882812-.203125 7.300781-.699219 8.394531-1.722656 15.816406-6.878906 22.992187-11.863281 7.367188-5.121094 14.328125-9.953125 20.652344-9.953125 6.328125 0 13.285156 4.835937 20.65625 9.953125 7.175781 4.984375 14.597656 10.140625 22.992188 11.863281 8.542968 1.75 17.320312-.109375 25.808593-1.910156 6.242188-1.324219 12.140625-2.570313 17.148438-2.210937 4.117187.296874 7.714843-2.8125 8.007812-6.941407.296875-4.125-2.808593-7.710937-6.9375-8.007812-7.117187-.507813-14.339843 1.023437-21.324219 2.503906-7.308593 1.546875-14.214843 3.007813-19.695312 1.886719-5.382812-1.101563-11.246094-5.175782-17.453125-9.488282-8.9375-6.210937-18.183594-12.632812-29.203125-12.632812-11.015625 0-20.261719 6.421875-29.199219 12.632812-6.207031 4.3125-12.070312 8.386719-17.453125 9.488282-5.480468 1.125-12.386718-.339844-19.695312-1.886719-6.253906-1.328125-12.734375-2.691406-19.125-2.597656-4.136719.066406-7.441406 3.472656-7.375 7.609375.0625 4.136718 3.488281 7.445312 7.605468 7.371094zm0 0"/></svg>