<svg viewBox="0 -66 512.00002 512" xmlns="http://www.w3.org/2000/svg"><path d="m504.632812 190.335938s-.132812-2.355469-.132812-14.722657l-325.1875-166.300781c-2.476562-1.265625-5.238281-1.878906-8.019531-1.808594-90.855469 2.320313-163.792969 76.699219-163.792969 168.109375v14.71875h497.132812zm0 0" fill="#efa335"/><path d="m478.019531 232.835938c0-14.363282 11.4375-26.058594 25.703125-26.46875.429688-.011719.777344-.355469.777344-.785157v-29.96875h-497v90.511719c0 2.539062 2.054688 4.59375 4.589844 4.59375h.164062c18.761719 0 33.96875 15.207031 33.96875 33.96875s-15.207031 33.96875-33.96875 33.96875h-.046875c-2.589843 0-4.707031 2.117188-4.707031 4.707031v10.710938c0 9.984375 8.09375 18.078125 18.078125 18.078125h460.84375c9.984375 0 18.078125-8.09375 18.078125-18.078125v-93.980469c0-.433594-.347656-.773438-.777344-.785156-14.265625-.414063-25.703125-12.105469-25.703125-26.472656zm0 0" fill="#fccf3f"/><path d="m503.722656 206.367188c.429688-.011719.777344-.355469.777344-.785157v-29.96875h-57.609375v157.960938c0 9.984375-8.09375 18.078125-18.078125 18.078125h-421.3125v2.421875c0 9.984375 8.09375 18.078125 18.078125 18.078125h460.84375c9.984375 0 18.078125-8.09375 18.078125-18.078125v-93.980469c0-.433594-.347656-.773438-.777344-.785156-14.265625-.414063-25.703125-12.105469-25.703125-26.472656 0-14.363282 11.4375-26.058594 25.703125-26.46875zm0 0" fill="#efc03c"/><path d="m371.464844 175.613281c0-12.570312-15.207032-22.757812-33.96875-22.757812-18.761719 0-33.96875 10.1875-33.96875 22.757812 0 12.570313 15.207031 22.761719 33.96875 22.761719 18.761718 0 33.96875-10.191406 33.96875-22.761719zm0 0" fill="#ffe497"/><path d="m264.234375 345.671875c0 14.625-11.855469 26.480469-26.480469 26.480469s-26.480468-11.855469-26.480468-26.480469 11.855468-26.480469 26.480468-26.480469 26.480469 11.855469 26.480469 26.480469zm0 0" fill="#ffe497"/><path d="m263.546875 351.652344h-51.585937c2.714843 11.742187 13.226562 20.5 25.792968 20.5 12.570313 0 23.082032-8.757813 25.792969-20.5zm0 0" fill="#f4d484"/><g fill="#ffe497"><path d="m168.738281 239.8125c0 22.949219-18.605469 41.550781-41.554687 41.550781-22.945313 0-41.550782-18.601562-41.550782-41.550781s18.605469-41.550781 41.550782-41.550781c22.949218 0 41.554687 18.601562 41.554687 41.550781zm0 0"/><path d="m172.742188 55.941406c0-11.800781-11.605469-21.367187-25.921876-21.367187-14.320312 0-25.925781 9.566406-25.925781 21.367187 0 11.800782 11.605469 21.367188 25.925781 21.367188 14.316407 0 25.921876-9.566406 25.921876-21.367188zm0 0"/><path d="m440.835938 304.6875c0 22.300781-18.078126 40.375-40.375 40.375-22.300782 0-40.378907-18.074219-40.378907-40.375s18.078125-40.375 40.378907-40.375c22.296874 0 40.375 18.074219 40.375 40.375zm0 0"/></g><path d="m503.945312 213.863281c4.515626-.132812 8.054688-3.769531 8.054688-8.28125v-29.96875c0-.019531-.003906-.042969-.003906-.066406 0-.160156-.011719-.320313-.023438-.480469-.007812-.09375-.007812-.1875-.019531-.28125-.015625-.128906-.039063-.253906-.058594-.378906s-.039062-.246094-.0625-.367188c-.019531-.085937-.046875-.167968-.066406-.253906-.039063-.15625-.078125-.308594-.125-.460937-.015625-.054688-.039063-.105469-.054687-.15625-.0625-.175781-.125-.351563-.199219-.523438-.023438-.046875-.046875-.097656-.070313-.144531-.078125-.167969-.15625-.335938-.242187-.492188-.050781-.089843-.105469-.175781-.160157-.265624-.070312-.113282-.136718-.230469-.210937-.339844-.089844-.132813-.1875-.253906-.285156-.378906-.046875-.0625-.09375-.128907-.144531-.191407-.109376-.132812-.226563-.257812-.347657-.382812-.046875-.050781-.089843-.101563-.140625-.152344-.105468-.105469-.222656-.203125-.335937-.304687-.070313-.0625-.136719-.128907-.210938-.1875-.09375-.078126-.191406-.144532-.289062-.21875-.105469-.078126-.210938-.15625-.320313-.230469-.078125-.050781-.160156-.097657-.242187-.144531-.136719-.085938-.273438-.167969-.414063-.242188-.019531-.007812-.039062-.023438-.058594-.035156l-267.539062-136.816406c-3.6875-1.882813-8.207031-.425782-10.089844 3.261718-1.886718 3.6875-.425781 8.207032 3.261719 10.09375l239.816406 122.644532h-66.714843c-4.144532 0-7.5 3.355468-7.5 7.496093 0 4.144531 3.355468 7.5 7.5 7.5h90.351562v16.5625c-15.28125 3.382813-26.480469 16.882813-26.480469 33.164063 0 16.277344 11.203125 29.777344 26.480469 33.160156v88.074219c0 5.832031-4.746094 10.578125-10.578125 10.578125h-220.496094c3.667969-5.421875 5.808594-11.957032 5.808594-18.980469 0-18.738281-15.242187-33.980469-33.980469-33.980469-18.734375 0-33.980468 15.242188-33.980468 33.980469 0 7.023437 2.144531 13.558594 5.808593 18.980469h-184.003906c-5.832031 0-10.578125-4.746094-10.578125-10.578125v-8.007813c21.589844-1.417968 38.722656-19.4375 38.722656-41.378906 0-21.945312-17.132812-39.960938-38.722656-41.378906v-80.195313h253.671875c4.140625 0 7.5-3.355469 7.5-7.5 0-4.140625-3.359375-7.496093-7.5-7.496093h-253.496094c1.804688-39.394532 17.804688-76.34375 45.515625-104.726563 29.414063-30.132813 68.761719-47.316406 110.789063-48.386719 1.546875-.042968 3.074219.300782 4.417969.988282l26.292968 13.445312c3.6875 1.882812 8.203125.425781 10.089844-3.265625 1.886719-3.6875.425781-8.203125-3.261719-10.089844l-26.292969-13.445312c-3.5625-1.820313-7.585937-2.714844-11.625-2.63281275-45.960937 1.17578175-88.984374 19.96484375-121.144531 52.90624975-32.214843 33-49.957031 76.578125-49.957031 122.703125v90.511719c0 6.667969 5.425781 12.09375 12.089844 12.09375h.164062c14.597656 0 26.46875 11.875 26.46875 26.46875 0 14.597656-11.871094 26.472656-26.515625 26.472656-6.730469-.003906-12.207031 5.472656-12.207031 12.203125v10.710938c0 14.101562 11.472656 25.578125 25.578125 25.578125h460.84375c14.105469 0 25.578125-11.476563 25.578125-25.578125v-93.980469c0-4.511719-3.539062-8.148438-8.0625-8.285156-10.328125-.296875-18.417969-8.628906-18.417969-18.96875 0-10.34375 8.089844-18.675782 18.425781-18.976563zm-266.191406 150.789063c-10.464844 0-18.980468-8.515625-18.980468-18.980469s8.515624-18.980469 18.980468-18.980469c10.46875 0 18.980469 8.515625 18.980469 18.980469s-8.511719 18.980469-18.980469 18.980469zm0 0"/><path d="m337.496094 145.355469c-23.253906 0-41.46875 13.292969-41.46875 30.257812 0 16.96875 18.214844 30.261719 41.46875 30.261719s41.46875-13.292969 41.46875-30.261719c0-16.964843-18.214844-30.257812-41.46875-30.257812zm0 45.519531c-12.519532 0-26.46875-6.269531-26.46875-15.261719 0-8.992187 13.949218-15.257812 26.46875-15.257812 12.519531 0 26.46875 6.265625 26.46875 15.257812 0 8.992188-13.949219 15.261719-26.46875 15.261719zm0 0"/><path d="m78.132812 239.8125c0 27.046875 22.003907 49.050781 49.050782 49.050781 27.050781 0 49.054687-22.003906 49.054687-49.050781s-22.003906-49.050781-49.054687-49.050781c-27.046875 0-49.050782 22.003906-49.050782 49.050781zm83.105469 0c0 18.777344-15.277343 34.054688-34.054687 34.054688s-34.050782-15.277344-34.050782-34.054688 15.273438-34.050781 34.050782-34.050781 34.054687 15.273437 34.054687 34.050781zm0 0"/><path d="m146.820312 27.074219c-18.429687 0-33.421874 12.949219-33.421874 28.867187 0 15.917969 14.992187 28.867188 33.421874 28.867188 18.425782 0 33.421876-12.949219 33.421876-28.867188 0-15.917968-14.996094-28.867187-33.421876-28.867187zm0 42.734375c-9.988281 0-18.425781-6.351563-18.425781-13.867188 0-7.519531 8.4375-13.867187 18.425781-13.867187 9.984376 0 18.421876 6.351562 18.421876 13.867187s-8.4375 13.867188-18.421876 13.867188zm0 0"/><path d="m352.585938 304.6875c0 26.398438 21.476562 47.875 47.875 47.875 26.398437 0 47.875-21.476562 47.875-47.875s-21.476563-47.875-47.875-47.875c-26.398438 0-47.875 21.476562-47.875 47.875zm47.875-32.878906c18.128906 0 32.875 14.75 32.875 32.878906s-14.746094 32.875-32.875 32.875c-18.128907 0-32.875-14.746094-32.875-32.875s14.746093-32.878906 32.875-32.878906zm0 0"/></svg>