<?xml version="1.0" encoding="iso-8859-1"?>
<!-- Generator: Adobe Illustrator 19.0.0, SVG Export Plug-In . SVG Version: 6.00 Build 0)  -->
<svg xmlns="http://www.w3.org/2000/svg" xmlns:xlink="http://www.w3.org/1999/xlink" version="1.1" id="Layer_1" x="0px" y="0px" viewBox="0 0 505.415 505.415" style="enable-background:new 0 0 505.415 505.415;" xml:space="preserve" width="512" height="512">
<g>
	<g>
		<path style="fill:#FFB83B;" d="M305.843,391.706l-72.597,72.597c-41.564,41.564-107.107,44.538-152.086,8.922    c-3.471-2.743-6.815-5.71-10.02-8.915l-29.403-29.403c-44.769-44.769-44.768-117.344,0-162.113l72.597-72.597    c44.762-44.762,117.337-44.762,162.106,0.007l29.403,29.403c3.205,3.205,6.172,6.549,8.915,10.02    C350.373,284.605,347.399,350.149,305.843,391.706z"/>
		<path style="fill:#FFE239;" d="M305.843,391.706l-72.597,72.597c-41.564,41.564-107.107,44.538-152.086,8.922    c-35.63-44.992-32.663-110.529,8.908-152.1l72.597-72.597c41.564-41.564,107.1-44.531,152.093-8.901    C350.373,284.605,347.399,350.149,305.843,391.706z"/>
		<polygon style="fill:#58B741;" points="497.194,154.348 393.334,186.688 328.344,206.918 298.784,173.098 350.344,7.498     383.644,76.658 464.104,40.588 428.044,121.048   "/>
		<polygon style="fill:#70D65B;" points="425.344,226.208 321.544,245.308 283.624,207.388 259.384,183.148 278.494,79.348     316.054,144.238 382.654,122.038 360.454,188.638   "/>
		<polygon style="fill:#70D65B;" points="374.209,192.643 412.384,121.808 395.444,109.208 464.104,40.588 428.044,121.048     497.194,154.348   "/>
		<polygon style="fill:#58B741;" points="382.654,122.038 311.604,190.008 284.244,180.888 283.624,207.388 259.384,183.148     278.494,79.348 316.054,144.238   "/>
	</g>
	<path d="M500.449,147.594l-62.58-30.134l33.079-73.802c1.273-2.839,0.66-6.17-1.541-8.371c-2.2-2.2-5.53-2.813-8.371-1.541   l-73.802,33.079L357.1,4.245c-1.337-2.776-4.235-4.445-7.308-4.226c-3.072,0.227-5.694,2.309-6.61,5.25l-10.583,33.99   c-1.231,3.955,0.977,8.159,4.932,9.391c3.952,1.23,8.159-0.976,9.391-4.932l4.923-15.813l25.042,52.002   c1.762,3.66,6.118,5.253,9.825,3.59l62.499-28.012l-28.013,62.499c-1.662,3.707-0.07,8.063,3.59,9.825l52.003,25.041   l-106.055,33.074l-1.232-0.714l20.266-60.796c0.898-2.695,0.197-5.666-1.812-7.675c-2.009-2.009-4.981-2.709-7.675-1.812   l-60.797,20.265l-0.649-1.121l18.46-59.437c1.231-3.955-0.977-8.159-4.932-9.391c-3.956-1.23-8.159,0.977-9.391,4.932   l-14.384,46.198l-23.609-40.779c-1.573-2.718-4.674-4.168-7.77-3.632c-3.095,0.536-5.528,2.943-6.097,6.033l-17.635,95.829   c-46.276-24.993-105.402-17.975-144.45,21.074l-72.597,72.597c-47.618,47.618-47.618,125.098,0,172.716l29.4,29.4   c6.87,6.87,14.522,12.901,22.743,17.925c3.535,2.162,8.151,1.045,10.311-2.488c2.16-3.535,1.046-8.151-2.488-10.311   c-7.21-4.407-13.925-9.7-19.958-15.733l-29.4-29.4c-25.925-25.926-35.753-61.941-29.496-95.522h22.691v58.358   c0,4.142,3.357,7.5,7.499,7.5l58.366,0.006v58.359c0,4.142,3.357,7.5,7.499,7.5l58.367,0.006v22.753   c-16.764,3.146-34.342,2.302-51.314-2.907c-3.96-1.214-8.155,1.009-9.371,4.969c-1.215,3.96,1.009,8.155,4.969,9.371   c11.869,3.644,23.992,5.417,36.008,5.417c31.899,0,63.004-12.517,86.291-35.804l72.597-72.597   c39.457-39.457,46.218-99.416,20.286-145.901l95.269-17.532c3.089-0.568,5.497-3.001,6.033-6.097s-0.914-6.196-3.632-7.77   l-40.779-23.609l111.104-34.593c2.942-0.916,5.024-3.538,5.25-6.611C504.901,151.829,503.225,148.931,500.449,147.594z    M179.466,450.813l-58.367-0.006v-58.359c0-4.142-3.357-7.5-7.499-7.5l-58.366-0.006v-58.359c0-4.142-3.358-7.5-7.5-7.5H21.478   c3.796-11.119,9.469-21.732,17.018-31.343h48.081v58.358c0,4.142,3.357,7.5,7.499,7.5l58.367,0.006v58.359   c0,4.142,3.357,7.5,7.499,7.5l58.366,0.006v48.065c-9.529,7.489-20.133,13.218-31.343,17.068v-26.289   C186.965,454.171,183.608,450.813,179.466,450.813z M233.308,453.638v-41.668c0-4.142-3.357-7.5-7.499-7.5l-58.366-0.006v-58.359   c0-4.142-3.357-7.5-7.499-7.5l-58.367-0.006v-58.359c0-4.142-3.358-7.5-7.5-7.5H52.401l31.344-31.344h49.176v58.358   c0,4.142,3.357,7.5,7.499,7.5l58.366,0.006v58.359c0,4.142,3.357,7.5,7.499,7.5l58.366,0.006v49.169L233.308,453.638z    M279.652,407.294v-41.668c0-4.142-3.357-7.5-7.499-7.5l-58.366-0.006V299.76c0-4.142-3.357-7.5-7.499-7.5l-58.366-0.006v-58.359   c0-4.142-3.358-7.5-7.5-7.5H98.745l20.89-20.89c3.838-3.838,7.898-7.319,12.137-10.452h47.491v58.358c0,4.142,3.357,7.5,7.499,7.5   l58.366,0.006v58.359c0,4.142,3.357,7.5,7.499,7.5l58.367,0.006v47.508c-3.154,4.253-6.643,8.303-10.456,12.116L279.652,407.294z    M325.994,345.927v-26.643c0-4.142-3.357-7.5-7.499-7.5l-58.367-0.006v-58.359c0-4.142-3.357-7.5-7.499-7.5l-58.366-0.006v-58.359   c0-4.142-3.358-7.5-7.5-7.5h-26.474c37.551-12.956,80.923-4.475,110.85,25.452l29.4,29.4   c20.234,20.234,31.377,47.136,31.377,75.751C331.915,322.853,329.884,334.736,325.994,345.927z M322.575,237.491   c-3.446-4.599-7.25-9.013-11.43-13.193l-29.4-29.4c-4.604-4.604-9.49-8.757-14.598-12.471l15.039-81.721l27.38,47.292   c1.783,3.08,5.487,4.483,8.862,3.357l52.366-17.455l-17.456,52.366c-1.125,3.376,0.277,7.079,3.357,8.862l47.292,27.38   L322.575,237.491z"/>
</g>















</svg>
