<?xml version="1.0" encoding="iso-8859-1"?>
<!-- Generator: Adobe Illustrator 19.0.0, SVG Export Plug-In . SVG Version: 6.00 Build 0)  -->
<svg version="1.1" id="Capa_1" xmlns="http://www.w3.org/2000/svg" xmlns:xlink="http://www.w3.org/1999/xlink" x="0px" y="0px"
	 viewBox="0 0 512.001 512.001" style="enable-background:new 0 0 512.001 512.001;" xml:space="preserve">
<path style="fill:#4E901E;" d="M229.532,258.807v55.827c0,22.732-15.69,42.856-39.816,55.235c-4.715,2.418-9.741,4.544-15.048,6.33
	c-8.326,2.809-17.305,4.795-26.745,5.808c-0.11,0.01-0.231,0.02-0.341,0.03c-4.625,0.492-9.36,0.742-14.175,0.742h-0.873
	c-4.775-0.03-9.47-0.311-14.044-0.813c-5.166-0.572-10.192-1.435-15.048-2.568c-9.029-2.097-17.455-5.106-25.079-8.898
	c-5.467-2.699-10.503-5.798-15.048-9.239c-16.141-12.189-26.032-28.591-26.032-46.628v-55.827H229.532z"/>
<path style="fill:#5EAC24;" d="M229.532,258.807v55.827c0,22.732-15.69,42.856-39.816,55.235c-4.715,2.418-9.741,4.544-15.048,6.33
	c-8.326,2.809-17.305,4.795-26.745,5.808c-0.11-0.02-0.231-0.03-0.341-0.04c-5.166-0.572-10.192-1.435-15.048-2.568
	c-9.029-2.097-17.455-5.106-25.079-8.898c-5.467-2.699-10.503-5.798-15.048-9.239c-16.141-12.189-26.032-28.591-26.032-46.628
	v-55.827H229.532z"/>
<path style="fill:#4E901E;" d="M504.273,135.576c0,13.252-2.699,25.912-7.574,37.439c-14.717,34.74-49.196,59.278-89.142,59.278
	H104.256c-53.188,0-96.716-43.518-96.716-96.716c0-12.78,2.518-25.009,7.082-36.205c2.127-5.257,4.725-10.293,7.714-15.048
	c3.892-6.19,8.467-11.908,13.613-17.054c0.09-0.09,0.181-0.181,0.271-0.271C53.736,49.624,77.792,38.86,104.256,38.86h303.301
	C460.754,38.86,504.273,82.378,504.273,135.576z"/>
<path style="fill:#5EAC24;" d="M504.273,135.576c0,13.252-2.699,25.912-7.574,37.439c-17.505,17.395-41.592,28.179-68.076,28.179
	H125.323c-53.188,0-96.716-43.518-96.716-96.716c0-12.78,2.518-25.009,7.082-36.205c0.171-0.421,0.351-0.853,0.532-1.274
	C53.736,49.624,77.792,38.86,104.256,38.86h303.301C460.754,38.86,504.273,82.378,504.273,135.576z"/>
<g>
	<circle style="fill:#91DC5A;" cx="408.184" cy="135.579" r="96.125"/>
	<ellipse style="fill:#91DC5A;" cx="133.403" cy="258.459" rx="96.125" ry="68.146"/>
</g>
<ellipse style="fill:#B6E892;" cx="133.534" cy="257.466" rx="77.245" ry="50.54"/>
<path style="fill:#4E901E;" d="M400.072,349.093v55.827c0,11.286-3.872,21.929-10.724,31.299
	c-4.033,5.528-9.109,10.614-15.048,15.128c-6.16,4.695-13.252,8.778-21.067,12.088c-4.765,2.026-9.791,3.762-15.048,5.176
	c-6.27,1.695-12.861,2.939-19.692,3.672c-0.211,0.02-0.411,0.04-0.622,0.06c-4.544,0.482-9.189,0.722-13.924,0.722
	c-0.371,0-0.752,0-1.124-0.01c-27.196-0.211-51.684-8.447-68.968-21.508c-5.919-4.464-10.995-9.5-15.048-14.977
	c-7.022-9.46-10.985-20.224-10.985-31.65v-55.827H400.072z"/>
<path style="fill:#5EAC24;" d="M400.072,349.093v55.827c0,11.286-3.872,21.929-10.724,31.299
	c-4.033,5.528-9.109,10.614-15.048,15.128c-6.16,4.695-13.252,8.778-21.067,12.088c-4.765,2.026-9.791,3.762-15.048,5.176
	c-6.27,1.695-12.861,2.939-19.692,3.672c-21.779-2.337-41.15-9.861-55.546-20.736c-5.919-4.464-10.995-9.5-15.048-14.977
	c-7.022-9.46-10.985-20.224-10.985-31.65v-55.827H400.072z"/>
<ellipse style="fill:#91DC5A;" cx="303.943" cy="348.745" rx="96.125" ry="68.146"/>
<g>
	<ellipse style="fill:#B6E892;" cx="304.074" cy="347.752" rx="77.245" ry="50.54"/>
	<circle style="fill:#B6E892;" cx="408.525" cy="134.907" r="80.736"/>
</g>
<path d="M15.895,147.705c-2.179-15.767-0.156-32.606,6.852-48.333h111.794c4.153,0,7.524-3.371,7.524-7.524
	c0-4.153-3.371-7.524-7.524-7.524H31.294c16.161-22.933,42.846-37.94,72.961-37.94h101.762c4.153,0,7.524-3.371,7.524-7.524
	c0-4.163-3.371-7.524-7.524-7.524H104.255c-63.004,0-111.884,55.81-103.267,118.415c0.571,4.206,4.478,7.001,8.477,6.43
	C13.578,155.62,16.457,151.818,15.895,147.705z"/>
<path d="M494.733,78.626c0.01,0,0-0.01,0-0.01c-0.09-0.171-0.191-0.331-0.301-0.492c-19.472-29.303-51.955-46.788-86.875-46.788
	H236.114c-4.163,0-7.524,3.361-7.524,7.524c0,4.153,3.361,7.524,7.524,7.524h119.338c-67.771,40.202-67.881,138.117,0,178.385
	h-62.849c-4.153,0-7.524,3.371-7.524,7.524s3.371,7.524,7.524,7.524h114.954C490.114,239.817,540.371,147.635,494.733,78.626z
	 M408.189,224.177c-48.855,0-88.601-39.746-88.601-88.601s39.746-88.601,88.601-88.601c28.751,0,56.312,13.836,73.714,39.485
	C520.82,144.762,479.117,224.177,408.189,224.177z"/>
<circle cx="410.411" cy="89.343" r="10.533"/>
<circle cx="374.798" cy="124.454" r="10.533"/>
<circle cx="398.373" cy="181.635" r="10.533"/>
<circle cx="461.573" cy="140.264" r="10.533"/>
<path d="M376.267,294.42c-38.459-27.268-99.011-28.407-139.301-3.531c-0.045-33.876,0.933-39.385-2.989-51.072h28.53
	c4.153,0,7.524-3.371,7.524-7.524s-3.371-7.524-7.524-7.524h-35.964c-32.279-48.386-123.392-57.655-172.446-15.64
	c-12.73-8.688-23.274-20.655-30.206-34.991c-1.816-3.742-6.31-5.317-10.052-3.501c-3.742,1.806-5.307,6.31-3.501,10.052
	c7.704,15.93,19.251,29.363,33.175,39.385c-9.039,11.386-13.844,24.387-13.844,38v0.15c0.06,52.998-0.13,50.53,0.15,51.935
	c0.12,0.492-4.655,33.025,31.179,58.415c38.462,27.271,99.021,28.407,139.311,3.531c0,20.167-0.099,29.673,0.14,28.731
	c0,0.01,0,0.01,0,0.01c-5.156,69.109,108.855,105.885,175.817,58.405c20.204-14.325,31.329-33.617,31.329-54.332
	c0-53.981,0-56.198,0-56.198C407.586,328.026,396.461,308.745,376.267,294.42z M44.716,258.044
	c0.015-16.787,9.97-31.026,23.484-41.02c46.864-34.814,129.442-20.805,149.614,22.792c4.426,9.551,3.93,16.791,4.103,18.298
	c-0.073,35.393-42.805,60.582-88.601,60.582c-46.196,0-88.51-25.571-88.601-60.512L44.716,258.044L44.716,258.044z M200.299,353.878
	c-3.24,2.528-6.781,4.875-10.584,7.002v-21.234c0-3.825-2.748-7.235-6.543-7.715c-4.591-0.582-8.505,2.985-8.505,7.462v28.36
	c-8.397,3.06-17.546,5.217-27.086,6.31v-10.34c0-3.825-2.748-7.235-6.543-7.715c-4.591-0.582-8.505,2.985-8.505,7.462v11.396
	c-54.974-0.321-98.933-35.623-85.441-74.606c17.235,18.749,47.872,33.486,86.223,33.486c37.076,0,66.953-13.773,84.476-31.645
	c0.81-0.826,2.216-0.459,2.535,0.652c0.003,0.011,0.006,0.022,0.01,0.034c0.151,0.528-0.011,1.096-0.398,1.485
	C196.492,327.808,200.828,351.329,200.299,353.878z M302.824,465.532c-54.703-0.471-98.663-35.703-85.09-74.596
	c20.245,22.021,52.59,33.183,85.09,33.437V465.532z M389.348,421.302v-4.665c0-4.153-3.371-7.524-7.524-7.524
	s-7.524,3.371-7.524,7.524v25.09c-5.889,5.247-13.011,9.831-21.067,13.533v-10.533c0-4.153-3.371-7.524-7.524-7.524
	s-7.524,3.371-7.524,7.524v16.091c-6.41,1.856-13.222,3.21-20.314,3.973V423.63c11.149-1.147,47.487-5.732,72.289-32.695
	C393.842,401.469,393.27,411.822,389.348,421.302z M382.436,376.831c-39.788,51.905-152.07,38.074-165.715-17.515
	c-4.977-19.574,4.122-37.47,20.214-50.199c16.262-12.851,40.268-20.997,67.012-20.997
	C369.837,288.12,413.585,336.373,382.436,376.831z"/>
<path d="M241.881,84.326h-77.245c-4.155,0-7.524,3.369-7.524,7.524s3.369,7.524,7.524,7.524h77.245c4.155,0,7.524-3.369,7.524-7.524
	S246.037,84.326,241.881,84.326z"/>
<path d="M127.184,151.205H89.064c-4.155,0-7.524,3.369-7.524,7.524s3.369,7.524,7.524,7.524h38.121c4.155,0,7.524-3.369,7.524-7.524
	S131.341,151.205,127.184,151.205z"/>
<path d="M149.756,158.729c0,4.155,3.369,7.524,7.524,7.524h127.738c4.156,0,7.524-3.369,7.524-7.524s-3.368-7.524-7.524-7.524
	H157.28C153.125,151.205,149.756,154.574,149.756,158.729z"/>
<path d="M124.429,244.381c4.143,0,7.735-1.856,9.44-4.564c0.702-1.093,1.093-2.327,1.093-3.621c0-4.524-4.715-8.196-10.533-8.196
	s-10.533,3.672-10.533,8.196c0,1.294,0.391,2.528,1.093,3.621C116.694,242.525,120.286,244.381,124.429,244.381z"/>
<ellipse cx="114.734" cy="275.232" rx="10.533" ry="8.316"/>
<ellipse cx="163.218" cy="260.686" rx="10.533" ry="8.818"/>
<ellipse cx="294.975" cy="326.474" rx="10.533" ry="8.193"/>
<ellipse cx="285.274" cy="365.518" rx="10.533" ry="8.316"/>
<ellipse cx="333.758" cy="350.972" rx="10.533" ry="8.818"/>
<g>
</g>
<g>
</g>
<g>
</g>
<g>
</g>
<g>
</g>
<g>
</g>
<g>
</g>
<g>
</g>
<g>
</g>
<g>
</g>
<g>
</g>
<g>
</g>
<g>
</g>
<g>
</g>
<g>
</g>
</svg>
