<?xml version="1.0" encoding="UTF-8" standalone="no"?>
<!DOCTYPE svg PUBLIC "-//W3C//DTD SVG 1.1//EN" "http://www.w3.org/Graphics/SVG/1.1/DTD/svg11.dtd">
<svg width="100%" height="100%" viewBox="0 0 512 512" version="1.1" xmlns="http://www.w3.org/2000/svg" xmlns:xlink="http://www.w3.org/1999/xlink" xml:space="preserve" xmlns:serif="http://www.serif.com/" style="fill-rule:evenodd;clip-rule:evenodd;stroke-linejoin:round;stroke-miterlimit:1.41421;">
    <g transform="matrix(1.20369,0,0,1.24231,-52.1437,-28.3823)">
        <path d="M390.56,427.424L121.44,427.424C109.489,427.424 99.116,418.884 96.82,407.156L64.8,243.6L447.2,243.6L415.2,407.156C412.903,418.891 402.518,427.433 390.56,427.424Z" style="fill:rgb(185,93,79);fill-rule:nonzero;"/>
    </g>
    <g transform="matrix(1.20369,0,0,1.24231,-52.1437,-28.3823)">
        <path d="M415.2,407.156L447.2,243.6L284.8,243.6C279.416,252.984 268.8,263.796 249.284,275.552C167.74,324.724 216.008,427.432 281.356,427.432L390.556,427.432C402.518,427.442 412.906,418.896 415.2,407.156Z" style="fill:rgb(162,79,65);fill-rule:nonzero;"/>
    </g>
    <g transform="matrix(1.20369,0,0,1.24231,-52.1437,-28.3823)">
        <rect x="50.316" y="207.744" width="411.364" height="35.848" style="fill:rgb(251,190,44);fill-rule:nonzero;"/>
    </g>
    <g transform="matrix(1.20369,0,0,1.24231,-52.1437,-28.3823)">
        <path d="M151.5,293.076C151.5,289.236 148.34,286.076 144.5,286.076L122.5,286.076C118.66,286.076 115.5,289.236 115.5,293.076C115.5,296.916 118.66,300.076 122.5,300.076L144.5,300.076C148.34,300.076 151.5,296.916 151.5,293.076Z" style="fill:rgb(251,190,44);fill-rule:nonzero;"/>
    </g>
    <g transform="matrix(1.20369,0,0,1.24231,-52.1437,-28.3823)">
        <path d="M278.3,300.076L322.9,300.076C326.74,300.076 329.9,296.916 329.9,293.076C329.9,289.236 326.74,286.076 322.9,286.076L278.3,286.076C274.46,286.076 271.3,289.236 271.3,293.076C271.3,296.916 274.46,300.076 278.3,300.076Z" style="fill:rgb(251,190,44);fill-rule:nonzero;"/>
    </g>
    <g transform="matrix(1.20369,0,0,1.24231,-52.1437,-28.3823)">
        <path d="M189.1,300.076L233.7,300.076C237.54,300.076 240.7,296.916 240.7,293.076C240.7,289.236 237.54,286.076 233.7,286.076L189.1,286.076C185.26,286.076 182.1,289.236 182.1,293.076C182.1,296.916 185.26,300.076 189.1,300.076Z" style="fill:rgb(251,190,44);fill-rule:nonzero;"/>
    </g>
    <g transform="matrix(1.20369,0,0,1.24231,-52.1437,-28.3823)">
        <path d="M389.5,286.076L367.5,286.076C363.66,286.076 360.5,289.236 360.5,293.076C360.5,296.916 363.66,300.076 367.5,300.076L389.5,300.076C393.34,300.076 396.5,296.916 396.5,293.076C396.5,289.236 393.34,286.076 389.5,286.076Z" style="fill:rgb(251,190,44);fill-rule:nonzero;"/>
    </g>
    <g transform="matrix(1.20369,0,0,1.24231,-52.1437,-28.3823)">
        <path d="M173.376,334.56C173.376,330.72 170.216,327.56 166.376,327.56L144.376,327.56C140.536,327.56 137.376,330.72 137.376,334.56C137.376,338.4 140.536,341.56 144.376,341.56L166.376,341.56C170.216,341.56 173.376,338.4 173.376,334.56Z" style="fill:rgb(251,190,44);fill-rule:nonzero;"/>
    </g>
    <g transform="matrix(1.20369,0,0,1.24231,-52.1437,-28.3823)">
        <path d="M245.076,334.56C245.076,330.72 241.916,327.56 238.076,327.56L202.224,327.56C198.384,327.56 195.224,330.72 195.224,334.56C195.224,338.4 198.384,341.56 202.224,341.56L238.072,341.56C238.073,341.56 238.075,341.56 238.076,341.56C241.916,341.56 245.076,338.4 245.076,334.56C245.076,334.56 245.076,334.56 245.076,334.56Z" style="fill:rgb(251,190,44);fill-rule:nonzero;"/>
    </g>
    <g transform="matrix(1.20369,0,0,1.24231,-52.1437,-28.3823)">
        <path d="M309.776,327.56L273.924,327.56C270.084,327.56 266.924,330.72 266.924,334.56C266.924,338.4 270.084,341.56 273.924,341.56L309.776,341.56C313.616,341.56 316.776,338.4 316.776,334.56C316.776,330.72 313.616,327.56 309.776,327.56Z" style="fill:rgb(251,190,44);fill-rule:nonzero;"/>
    </g>
    <g transform="matrix(1.20369,0,0,1.24231,-52.1437,-28.3823)">
        <path d="M367.624,327.56L345.624,327.56C341.784,327.56 338.624,330.72 338.624,334.56C338.624,338.4 341.784,341.56 345.624,341.56L367.624,341.56C371.464,341.56 374.624,338.4 374.624,334.56C374.624,330.72 371.464,327.56 367.624,327.56Z" style="fill:rgb(251,190,44);fill-rule:nonzero;"/>
    </g>
    <g transform="matrix(1.20369,0,0,1.24231,-52.1437,-28.3823)">
        <path d="M184.876,369.044L162.876,369.044C159.036,369.044 155.876,372.204 155.876,376.044C155.876,379.884 159.036,383.044 162.876,383.044L184.876,383.044C188.716,383.044 191.876,379.884 191.876,376.044C191.876,372.204 188.716,369.044 184.876,369.044Z" style="fill:rgb(251,190,44);fill-rule:nonzero;"/>
    </g>
    <g transform="matrix(1.20369,0,0,1.24231,-52.1437,-28.3823)">
        <path d="M279.708,369.044L232.292,369.044C228.452,369.044 225.292,372.204 225.292,376.044C225.292,379.884 228.452,383.044 232.292,383.044L279.708,383.044C283.548,383.044 286.708,379.884 286.708,376.044C286.708,372.204 283.548,369.044 279.708,369.044Z" style="fill:rgb(251,190,44);fill-rule:nonzero;"/>
    </g>
    <g transform="matrix(1.20369,0,0,1.24231,-52.1437,-28.3823)">
        <path d="M349.124,369.044L327.124,369.044C323.284,369.044 320.124,372.204 320.124,376.044C320.124,379.884 323.284,383.044 327.124,383.044L349.124,383.044C352.964,383.044 356.124,379.884 356.124,376.044C356.124,372.204 352.964,369.044 349.124,369.044Z" style="fill:rgb(251,190,44);fill-rule:nonzero;"/>
    </g>
    <g transform="matrix(1.20369,0,0,1.24231,-52.1437,-28.3823)">
        <path d="M284.8,243.6L461.692,243.6L461.692,207.744L281.348,207.744C281.348,207.744 297.304,221.792 284.8,243.6Z" style="fill:rgb(253,144,37);fill-rule:nonzero;"/>
    </g>
    <g>
        <g transform="matrix(1.20369,0,0,1.24231,-52.1437,-28.3823)">
            <path d="M119.5,214.744L122.5,214.744C126.34,214.744 129.5,211.584 129.5,207.744C129.5,203.904 126.34,200.744 122.5,200.744L119.5,200.744C115.66,200.744 112.5,203.904 112.5,207.744C112.5,211.584 115.66,214.744 119.5,214.744Z" style="fill:rgb(99,0,0);fill-rule:nonzero;"/>
        </g>
        <g transform="matrix(1.20369,0,0,1.24231,-52.1437,-28.3823)">
            <path d="M261.861,236.584C261.793,237.44 57.32,236.584 57.32,236.584L57.32,214.744L95,214.744C98.84,214.744 102,211.584 102,207.744C102,203.904 98.84,200.744 95,200.744L50.32,200.744C46.48,200.744 43.32,203.904 43.32,207.744L43.32,243.6C43.32,247.44 46.48,250.6 50.32,250.6L261.861,250.6C267.91,250.618 273.113,250.2 272.895,243.6C272.64,235.853 261.861,236.584 261.861,236.584Z" style="fill:rgb(99,0,0);fill-rule:nonzero;"/>
        </g>
        <g transform="matrix(1.20369,0,0,1.24231,-52.1437,-28.3823)">
            <path d="M289.124,214.756L454.68,214.756L454.68,236.604L312.68,236.604C308.84,236.604 305.68,239.764 305.68,243.604C305.68,247.444 308.84,250.604 312.68,250.604L438.728,250.604L425.036,320.516C424.949,320.96 424.905,321.41 424.905,321.862C424.905,325.197 427.288,328.091 430.56,328.732C431.006,328.817 431.458,328.86 431.912,328.86C435.24,328.848 438.121,326.466 438.76,323.2L452.976,250.604L461.68,250.604C465.52,250.604 468.68,247.444 468.68,243.604L468.68,207.744C468.68,203.904 465.52,200.744 461.68,200.744L291.172,200.744L215.576,200.744L200.764,200.74L148.5,200.74C144.66,200.74 141.5,203.9 141.5,207.74C141.5,211.58 144.66,214.74 148.5,214.74L222.872,214.74" style="fill:rgb(99,0,0);fill-rule:nonzero;"/>
        </g>
        <g transform="matrix(1.20369,0,0,1.24231,-52.1437,-28.3823)">
            <path d="M422.62,369.176C418.853,368.456 415.156,370.943 414.404,374.704L408.312,405.808C406.643,414.257 399.173,420.409 390.56,420.424L121.436,420.424C112.825,420.407 105.356,414.259 103.684,405.812L77.18,270.456C76.54,267.183 73.645,264.8 70.31,264.8C66.47,264.8 63.31,267.96 63.31,271.8C63.31,272.251 63.353,272.701 63.44,273.144L89.944,408.504C92.907,423.49 106.16,434.399 121.436,434.424L390.564,434.424C405.842,434.4 419.097,423.489 422.056,408.5L428.148,377.392C428.235,376.949 428.279,376.498 428.279,376.046C428.279,372.71 425.894,369.815 422.62,369.176Z" style="fill:rgb(99,0,0);fill-rule:nonzero;"/>
        </g>
        <g transform="matrix(1.20369,0,0,1.24231,-52.1437,-28.3823)">
            <path d="M428.424,339.544C424.659,338.826 420.964,341.31 420.208,345.068L419.368,349.364C418.629,353.134 421.122,356.844 424.892,357.584C425.338,357.669 425.79,357.712 426.244,357.712C429.574,357.706 432.461,355.327 433.104,352.06L433.944,347.764C434.683,343.995 432.192,340.286 428.424,339.544Z" style="fill:rgb(99,0,0);fill-rule:nonzero;"/>
        </g>
        <g transform="matrix(1.20369,0,0,1.24231,-52.1437,-28.3823)">
            <path d="M144.5,286.076L122.5,286.076C118.66,286.076 115.5,289.236 115.5,293.076C115.5,296.916 118.66,300.076 122.5,300.076L144.5,300.076C148.34,300.076 151.5,296.916 151.5,293.076C151.5,289.236 148.34,286.076 144.5,286.076Z" style="fill:rgb(99,0,0);fill-rule:nonzero;"/>
        </g>
        <g transform="matrix(1.20369,0,0,1.24231,-52.1437,-28.3823)">
            <path d="M322.9,286.076L278.3,286.076C274.46,286.076 271.3,289.236 271.3,293.076C271.3,296.916 274.46,300.076 278.3,300.076L322.9,300.076C326.74,300.076 329.9,296.916 329.9,293.076C329.9,289.236 326.74,286.076 322.9,286.076Z" style="fill:rgb(99,0,0);fill-rule:nonzero;"/>
        </g>
        <g transform="matrix(1.20369,0,0,1.24231,-52.1437,-28.3823)">
            <path d="M233.7,286.076L189.1,286.076C185.26,286.076 182.1,289.236 182.1,293.076C182.1,296.916 185.26,300.076 189.1,300.076L233.7,300.076C237.54,300.076 240.7,296.916 240.7,293.076C240.7,289.236 237.54,286.076 233.7,286.076Z" style="fill:rgb(99,0,0);fill-rule:nonzero;"/>
        </g>
        <g transform="matrix(1.20369,0,0,1.24231,-52.1437,-28.3823)">
            <path d="M389.5,300.076C393.34,300.076 396.5,296.916 396.5,293.076C396.5,289.236 393.34,286.076 389.5,286.076L367.5,286.076C363.66,286.076 360.5,289.236 360.5,293.076C360.5,296.916 363.66,300.076 367.5,300.076L389.5,300.076Z" style="fill:rgb(99,0,0);fill-rule:nonzero;"/>
        </g>
        <g transform="matrix(1.20369,0,0,1.24231,-52.1437,-28.3823)">
            <path d="M166.376,327.56L144.376,327.56C140.536,327.56 137.376,330.72 137.376,334.56C137.376,338.4 140.536,341.56 144.376,341.56L166.376,341.56C170.216,341.56 173.376,338.4 173.376,334.56C173.376,330.72 170.216,327.56 166.376,327.56Z" style="fill:rgb(99,0,0);fill-rule:nonzero;"/>
        </g>
        <g transform="matrix(1.20369,0,0,1.24231,-52.1437,-28.3823)">
            <path d="M266.924,334.56C266.924,338.4 270.084,341.56 273.924,341.56L309.776,341.56C313.616,341.56 316.776,338.4 316.776,334.56C316.776,330.72 313.616,327.56 309.776,327.56L273.924,327.56C270.084,327.56 266.924,330.72 266.924,334.56Z" style="fill:rgb(99,0,0);fill-rule:nonzero;"/>
        </g>
        <g transform="matrix(1.20369,0,0,1.24231,-52.1437,-28.3823)">
            <path d="M238.076,327.56L202.224,327.56C198.384,327.56 195.224,330.72 195.224,334.56C195.224,338.4 198.384,341.56 202.224,341.56L238.072,341.56C241.912,341.56 245.072,338.4 245.072,334.56C245.072,330.72 241.912,327.56 238.072,327.56L238.076,327.56Z" style="fill:rgb(99,0,0);fill-rule:nonzero;"/>
        </g>
        <g transform="matrix(1.20369,0,0,1.24231,-52.1437,-28.3823)">
            <path d="M338.624,334.56C338.624,338.4 341.784,341.56 345.624,341.56L367.624,341.56C371.464,341.56 374.624,338.4 374.624,334.56C374.624,330.72 371.464,327.56 367.624,327.56L345.624,327.56C341.784,327.56 338.624,330.72 338.624,334.56Z" style="fill:rgb(99,0,0);fill-rule:nonzero;"/>
        </g>
        <g transform="matrix(1.20369,0,0,1.24231,-52.1437,-28.3823)">
            <path d="M155.876,376.044C155.876,379.884 159.036,383.044 162.876,383.044L184.876,383.044C188.716,383.044 191.876,379.884 191.876,376.044C191.876,372.204 188.716,369.044 184.876,369.044L162.876,369.044C159.036,369.044 155.876,372.204 155.876,376.044Z" style="fill:rgb(99,0,0);fill-rule:nonzero;"/>
        </g>
        <g transform="matrix(1.20369,0,0,1.24231,-52.1437,-28.3823)">
            <path d="M225.292,376.044C225.292,379.884 228.452,383.044 232.292,383.044L279.708,383.044C283.548,383.044 286.708,379.884 286.708,376.044C286.708,372.204 283.548,369.044 279.708,369.044L232.292,369.044C228.452,369.044 225.292,372.204 225.292,376.044Z" style="fill:rgb(99,0,0);fill-rule:nonzero;"/>
        </g>
        <g transform="matrix(1.20369,0,0,1.24231,-52.1437,-28.3823)">
            <path d="M320.124,376.044C320.124,379.884 323.284,383.044 327.124,383.044L349.124,383.044C352.964,383.044 356.124,379.884 356.124,376.044C356.124,372.204 352.964,369.044 349.124,369.044L327.124,369.044C323.284,369.044 320.124,372.204 320.124,376.044Z" style="fill:rgb(99,0,0);fill-rule:nonzero;"/>
        </g>
    </g>
</svg>
