<svg width="100%" height="100%" viewBox="0 0 513 513" version="1.1" xmlns="http://www.w3.org/2000/svg" xmlns:xlink="http://www.w3.org/1999/xlink" xml:space="preserve" xmlns:serif="http://www.serif.com/" style="fill-rule:evenodd;clip-rule:evenodd;stroke-linecap:round;stroke-linejoin:round;stroke-miterlimit:1.5;">
    <g id="face" transform="matrix(1,0,0,1,0,-40)">
        <g transform="matrix(1.46428,0,0,1.37047,-118.855,0)">
            <rect x="120.38" y="219.14" width="271.24" height="69.54" style="fill:rgb(245,148,0);"/>
        </g>
        <g>
            <g transform="matrix(1.46428,0,0,1.37047,-118.855,0)">
                <path d="M129.616,252.468L177.553,252.468L177.553,307.435L129.616,307.435C114.437,307.435 102.132,295.13 102.132,279.951C102.132,264.772 114.437,252.468 129.616,252.468Z" style="fill:rgb(250,158,62);fill-rule:nonzero;"/>
            </g>
            <g transform="matrix(1.46428,0,0,1.37047,-118.855,0)">
                <path d="M382.384,252.468L334.447,252.468L334.447,307.435L382.384,307.435C397.563,307.435 409.868,295.13 409.868,279.951C409.868,264.772 397.563,252.468 382.384,252.468Z" style="fill:rgb(250,158,62);fill-rule:nonzero;"/>
            </g>
        </g>
        <g transform="matrix(1.46428,0,0,1.37047,-118.855,0)">
            <path d="M256,367.822C195.877,367.822 147.138,319.083 147.138,258.96L147.138,148.855L364.862,148.855L364.862,258.96C364.862,319.082 316.123,367.822 256,367.822Z" style="fill:rgb(255,181,107);fill-rule:nonzero;"/>
        </g>
        <g transform="matrix(1.46428,0,0,1.37047,-118.855,0)">
            <path d="M342.205,148.855L342.205,270.288C342.205,322.312 301.473,364.817 250.161,367.664C252.095,367.766 254.041,367.821 256,367.821C316.123,367.821 364.862,319.082 364.862,258.959L364.862,148.855L342.205,148.855Z" style="fill:rgb(239,146,69);fill-rule:nonzero;"/>
        </g>
        <g transform="matrix(2.78138,0,0,2.7142,-232.047,-354.807)">
            <path d="M203.252,262.398C207.394,262.398 210.752,259.04 210.752,254.898L210.752,252.898C210.752,248.756 207.394,245.398 203.252,245.398C199.11,245.398 195.752,248.756 195.752,252.898L195.752,254.898C195.752,259.04 199.11,262.398 203.252,262.398Z" style="fill:white;fill-rule:nonzero;"/>
        </g>
        <g transform="matrix(1.46428,0,0,1.37047,-118.855,-13)">
            <path d="M308.748,262.398C312.89,262.398 316.248,259.04 316.248,254.898L316.248,252.898C316.248,248.756 312.89,245.398 308.748,245.398C304.606,245.398 301.248,248.756 301.248,252.898L301.248,254.898C301.248,259.04 304.605,262.398 308.748,262.398Z" style="fill-rule:nonzero;"/>
        </g>
        <g transform="matrix(2.78138,0,0,2.7142,-386.047,-354.807)">
            <path d="M203.252,262.398C207.394,262.398 210.752,259.04 210.752,254.898L210.752,252.898C210.752,248.756 207.394,245.398 203.252,245.398C199.11,245.398 195.752,248.756 195.752,252.898L195.752,254.898C195.752,259.04 199.11,262.398 203.252,262.398Z" style="fill:white;fill-rule:nonzero;"/>
        </g>
        <g transform="matrix(1.46428,0,0,1.37047,-118.855,-13)">
            <path d="M203.252,262.398C207.394,262.398 210.752,259.04 210.752,254.898L210.752,252.898C210.752,248.756 207.394,245.398 203.252,245.398C199.11,245.398 195.752,248.756 195.752,252.898L195.752,254.898C195.752,259.04 199.11,262.398 203.252,262.398Z" style="fill-rule:nonzero;"/>
        </g>
    </g>
    <g transform="matrix(1.46428,0,0,1.37047,-118.855,-40)">
        <path d="M423.333,111.047C423.333,78.222 391.08,51.611 351.294,51.611C335.534,51.611 320.967,55.798 309.107,62.882C297.212,47.019 277.864,36.687 256,36.687C234.136,36.687 214.788,47.019 202.893,62.882C191.033,55.799 176.466,51.611 160.706,51.611C120.92,51.611 88.667,78.221 88.667,111.047C88.667,133.375 103.599,152.817 125.665,162.975L120.385,219.141C210.795,227.57 301.204,227.57 391.614,219.141L386.334,162.975C408.402,152.817 423.333,133.375 423.333,111.047Z" style="fill:rgb(240,238,238);fill-rule:nonzero;"/>
    </g>
    <g transform="matrix(1.46428,0,0,1.37047,-118.855,-40)">
        <path d="M423.333,111.047C423.333,78.222 391.08,51.611 351.294,51.611C347.741,51.611 344.253,51.835 340.839,52.246C372.981,56.438 397.667,81.162 397.667,111.047C397.667,133.375 383.88,152.818 363.506,162.975L367.886,221.136C375.795,220.528 383.705,219.879 391.615,219.141L386.335,162.975C408.402,152.817 423.333,133.375 423.333,111.047Z" style="fill:rgb(217,212,212);fill-rule:nonzero;"/>
    </g>
    <g transform="matrix(1.46428,0,0,1.37047,-118.855,-40)">
        <path d="M399.12,249.232L399.12,219.14C399.12,218.864 399.074,218.323 399.074,218.323L394.123,167.47C416.895,155.23 430.831,134.008 430.831,111.046C430.831,74.135 395.149,44.106 351.291,44.106C336.963,44.106 323.148,47.284 310.951,53.343C297.159,38.114 277.073,29.187 256,29.187C234.927,29.187 214.841,38.114 201.05,53.344C188.853,47.285 175.037,44.107 160.71,44.107C139.731,44.107 119.945,50.899 104.997,63.232C101.802,65.868 101.349,70.595 103.985,73.79C106.621,76.985 111.348,77.439 114.543,74.802C126.81,64.681 143.206,59.107 160.71,59.107C174.605,59.107 187.86,62.64 199.042,69.325C202.335,71.294 206.588,70.458 208.891,67.387C219.783,52.86 237.394,44.187 256,44.187C274.606,44.187 292.217,52.86 303.109,67.387C305.413,70.458 309.664,71.295 312.958,69.325C324.14,62.64 337.394,59.107 351.29,59.107C386.877,59.107 415.83,82.407 415.83,111.047C415.83,129.609 403.325,146.897 383.194,156.164C380.381,157.459 378.654,160.35 378.844,163.44L383.674,212.329C377.197,212.9 370.707,213.43 364.3,213.912C292.437,219.288 219.563,219.288 147.701,213.912C141.293,213.431 134.801,212.9 128.325,212.329L133.155,163.44C133.346,160.35 131.618,157.459 128.805,156.164C108.675,146.897 96.17,129.609 96.17,111.047C96.17,106.755 96.816,102.511 98.089,98.432C99.323,94.478 97.119,90.272 93.165,89.037C89.211,87.803 85.005,90.007 83.771,93.961C82.045,99.489 81.17,105.237 81.17,111.047C81.17,134.009 95.106,155.231 117.877,167.471L112.926,218.324C112.897,218.592 112.88,218.864 112.88,219.141L112.88,249.235C101.781,255.286 94.63,267.038 94.63,279.951C94.63,299.245 110.327,314.941 129.62,314.941L153.986,314.941C166.063,336.929 207.63,366.026 207.63,366.026C230.568,375.9 282.993,376.737 304.371,364.809C327.151,354.398 345.943,336.925 358.015,314.941L382.381,314.941C401.674,314.941 417.371,299.245 417.371,279.951C417.37,267.031 410.212,255.275 399.12,249.232ZM384.12,227.345L384.12,245.017C383.542,244.989 382.962,244.97 382.38,244.97L372.36,244.97L372.36,228.331C376.27,228.019 380.197,227.689 384.12,227.345ZM139.64,228.331L139.64,244.97L129.62,244.97C129.038,244.97 128.458,244.988 127.88,245.017L127.88,227.345C131.803,227.689 135.73,228.019 139.64,228.331ZM129.62,299.94C118.598,299.94 109.63,290.973 109.63,279.95C109.63,271.523 114.961,263.962 122.92,261.127C125.052,260.359 127.306,259.97 129.62,259.97L139.646,259.97C139.65,260.312 139.655,260.651 139.66,260.989L139.66,261.014C139.67,261.663 139.689,262.312 139.709,262.962C139.712,263.188 139.722,263.406 139.736,263.631C139.747,263.945 139.758,264.259 139.777,264.565C139.788,264.852 139.8,265.146 139.819,265.433C139.841,265.933 139.872,266.425 139.912,266.924C139.925,267.173 139.943,267.43 139.966,267.726C139.975,267.854 139.986,267.993 140.002,268.172C140.008,268.274 140.017,268.377 140.027,268.48C140.06,268.972 140.105,269.458 140.153,269.951C140.154,269.957 140.164,270.061 140.164,270.067L140.179,270.223C140.238,270.822 140.298,271.428 140.361,271.979C140.405,272.385 140.449,272.79 140.503,273.195C140.58,273.879 140.668,274.555 140.773,275.282L140.963,276.547C140.988,276.729 141.014,276.91 141.042,277.088C141.048,277.123 141.06,277.204 141.066,277.238C141.088,277.39 141.112,277.539 141.138,277.685L141.213,278.134C141.28,278.568 141.357,278.999 141.425,279.373L141.45,279.514C141.521,279.938 141.602,280.374 141.693,280.838C141.816,281.461 141.938,282.083 142.07,282.706C142.187,283.298 142.314,283.891 142.441,284.472C142.449,284.508 142.457,284.543 142.465,284.578L142.808,286.022C142.938,286.576 143.07,287.13 143.201,287.631C143.339,288.172 143.477,288.703 143.624,289.233C143.73,289.642 143.841,290.046 143.954,290.453L144.037,290.749C144.313,291.717 144.6,292.674 144.888,293.597C145.083,294.235 145.288,294.863 145.493,295.49C145.497,295.504 145.529,295.601 145.534,295.615C145.853,296.571 146.182,297.515 146.514,298.44C146.693,298.941 146.879,299.441 147.066,299.941L129.62,299.941L129.62,299.94ZM294.05,352.93C281.964,357.833 269.162,360.32 256,360.32C253.532,360.32 251.077,360.233 248.637,360.058C247.168,359.953 245.706,359.812 244.249,359.644C243.846,359.598 243.444,359.547 243.042,359.496C235.235,358.502 227.602,356.609 220.223,353.82C219.463,353.533 218.705,353.236 217.95,352.93L217.949,352.93C217.948,352.93 217.947,352.929 217.946,352.929C195.003,343.635 176.279,326.292 165.219,304.088C164.863,303.374 164.515,302.652 164.145,301.854C164.064,301.683 163.987,301.51 163.907,301.337C163.733,300.964 163.56,300.592 163.389,300.212C163.388,300.209 163.386,300.207 163.385,300.204C163.372,300.174 163.359,300.146 163.342,300.109L163.21,299.807C163.19,299.757 163.168,299.709 163.146,299.66C163.141,299.649 163.138,299.638 163.133,299.627C162.937,299.183 162.742,298.729 162.555,298.276C162.517,298.183 162.477,298.09 162.435,297.999C162.424,297.973 162.414,297.948 162.403,297.922C161.987,296.933 161.59,295.936 161.194,294.894C161.008,294.397 160.821,293.898 160.636,293.38C160.335,292.545 160.045,291.71 159.749,290.824C159.573,290.287 159.397,289.749 159.219,289.17C158.957,288.327 158.703,287.484 158.477,286.691L158.408,286.443C158.315,286.106 158.221,285.772 158.135,285.433C158.121,285.377 158.106,285.322 158.091,285.267C157.967,284.825 157.853,284.382 157.727,283.889C157.617,283.467 157.516,283.037 157.4,282.544C157.4,282.543 157.4,282.542 157.399,282.541C157.175,281.591 156.96,280.64 156.765,279.689C156.764,279.685 156.763,279.682 156.762,279.679C156.759,279.666 156.757,279.653 156.754,279.64C156.633,279.074 156.522,278.507 156.412,277.945C156.354,277.649 156.296,277.345 156.24,277.009L156.201,276.789C156.142,276.46 156.082,276.13 156.032,275.801C156.027,275.767 156.021,275.733 156.016,275.699L155.926,275.159C155.918,275.115 155.914,275.079 155.906,275.035C155.89,274.926 155.873,274.815 155.854,274.704L155.825,274.497C155.8,274.315 155.774,274.134 155.756,274.023L155.612,273.077C155.534,272.539 155.464,272.002 155.404,271.456C155.398,271.396 155.39,271.336 155.382,271.276C155.382,271.274 155.382,271.273 155.381,271.271C155.34,270.97 155.308,270.667 155.276,270.366C155.276,270.364 155.275,270.362 155.275,270.361C155.273,270.347 155.272,270.334 155.271,270.32C155.212,269.802 155.16,269.276 155.109,268.756L155.086,268.52C155.048,268.13 155.01,267.746 154.987,267.355C154.979,267.214 154.967,267.073 154.951,266.933C154.947,266.883 154.942,266.83 154.937,266.774C154.934,266.725 154.926,266.618 154.922,266.569C154.911,266.422 154.898,266.279 154.892,266.137C154.888,266.031 154.881,265.926 154.872,265.821C154.841,265.445 154.817,265.078 154.802,264.702C154.799,264.62 154.794,264.539 154.788,264.458C154.775,264.282 154.77,264.099 154.764,263.923C154.761,263.847 154.757,263.771 154.752,263.694C154.738,263.489 154.733,263.279 154.725,263.026C154.722,262.946 154.718,262.866 154.713,262.786C154.713,262.786 154.71,262.742 154.708,262.709C154.707,262.666 154.706,262.623 154.705,262.579C154.686,261.979 154.667,261.379 154.658,260.773C154.648,260.173 154.639,259.563 154.639,258.963L154.639,252.473L154.639,229.437C188.291,231.766 222.143,232.946 255.998,232.946C289.853,232.946 323.706,231.766 357.358,229.437L357.358,258.963C357.358,259.563 357.349,260.173 357.339,260.773L357.339,260.779C357.33,261.379 357.311,261.979 357.292,262.579C357.291,262.615 357.29,262.651 357.29,262.686C357.286,262.787 357.283,262.887 357.281,262.985C357.263,263.502 357.238,264.012 357.205,264.529C357.201,264.586 357.198,264.643 357.196,264.7C357.18,265.075 357.157,265.443 357.126,265.819C357.117,265.924 357.111,266.029 357.106,266.135C357.1,266.277 357.088,266.42 357.073,266.602C357.008,267.411 356.944,268.219 356.86,269.018C356.855,269.062 356.851,269.107 356.847,269.151C356.815,269.517 356.776,269.875 356.736,270.24L356.722,270.365C356.689,270.667 356.658,270.969 356.617,271.27C356.617,271.272 356.617,271.273 356.617,271.275C356.605,271.366 356.594,271.457 356.585,271.549C356.576,271.623 356.568,271.696 356.559,271.77L356.559,271.771C356.548,271.842 356.536,271.941 356.526,272.025C356.526,272.027 356.525,272.03 356.525,272.033L356.5,272.249C356.499,272.253 356.499,272.258 356.499,272.262C356.495,272.289 356.49,272.317 356.486,272.344L356.336,273.405C356.331,273.439 356.326,273.474 356.322,273.508C356.309,273.608 356.299,273.704 356.282,273.8C356.265,273.893 356.25,273.987 356.236,274.08L356.217,274.213C356.173,274.524 356.129,274.839 356.063,275.224C355.985,275.718 355.899,276.204 355.813,276.696L355.715,277.251L355.664,277.535C355.648,277.62 355.632,277.706 355.615,277.793L355.586,277.944C355.475,278.509 355.364,279.075 355.233,279.689C355.043,280.612 354.845,281.544 354.619,282.459C354.612,282.487 354.596,282.557 354.589,282.586C354.486,283.024 354.384,283.46 354.261,283.932C354.146,284.384 354.032,284.826 353.908,285.268C353.892,285.323 353.878,285.378 353.864,285.434C353.777,285.773 353.684,286.107 353.591,286.444L353.539,286.633C353.296,287.486 353.042,288.328 352.77,289.205C352.603,289.751 352.426,290.288 352.237,290.868C351.955,291.712 351.665,292.547 351.357,293.403C351.181,293.896 350.996,294.39 350.784,294.955C350.407,295.947 350.012,296.94 349.598,297.925C349.592,297.94 349.581,297.967 349.569,297.996C349.526,298.089 349.485,298.184 349.446,298.279C349.259,298.733 349.064,299.186 348.868,299.63C348.862,299.642 348.859,299.655 348.853,299.668C348.833,299.715 348.811,299.762 348.791,299.81L348.671,300.086C348.652,300.126 348.634,300.166 348.616,300.206C348.615,300.209 348.613,300.212 348.611,300.215C348.373,300.744 348.133,301.267 347.858,301.848C347.846,301.874 347.835,301.897 347.823,301.923C347.611,302.38 347.39,302.828 347.171,303.279C347.039,303.552 346.912,303.827 346.777,304.099C335.721,326.292 316.997,343.634 294.05,352.93ZM382.38,299.94L364.932,299.94C365.12,299.44 365.305,298.942 365.477,298.46C365.478,298.456 365.479,298.453 365.481,298.449C365.482,298.446 365.483,298.443 365.485,298.44C365.485,298.439 365.486,298.437 365.486,298.436C365.823,297.499 366.149,296.563 366.465,295.616C366.47,295.602 366.502,295.505 366.506,295.491C366.712,294.863 366.916,294.236 367.101,293.631C367.399,292.674 367.686,291.717 367.979,290.69L368.045,290.454C368.158,290.046 368.269,289.643 368.375,289.234C368.522,288.704 368.66,288.175 368.788,287.674C368.93,287.131 369.061,286.577 369.181,286.064C369.476,284.873 369.723,283.702 369.916,282.764C370.049,282.142 370.172,281.519 370.299,280.874C370.301,280.864 370.304,280.85 370.306,280.839C370.323,280.761 370.341,280.671 370.352,280.614L370.415,280.264C370.462,280.013 370.507,279.764 370.549,279.514C370.549,279.512 370.549,279.509 370.55,279.507L370.59,279.281C370.69,278.713 370.788,278.149 370.865,277.661C370.939,277.228 371.004,276.776 371.068,276.331L371.07,276.317C371.106,276.104 371.136,275.887 371.166,275.668C371.172,275.627 371.179,275.586 371.185,275.545L371.184,275.545C371.187,275.523 371.191,275.503 371.193,275.481L371.328,274.526C371.365,274.289 371.395,274.041 371.426,273.773L371.439,273.681C371.453,273.583 371.464,273.486 371.474,273.388C371.484,273.309 371.493,273.23 371.501,273.152C371.552,272.761 371.595,272.37 371.638,271.98L371.651,271.858C371.699,271.41 371.747,270.969 371.787,270.52C371.88,269.621 371.955,268.709 372.034,267.721C372.055,267.45 372.074,267.187 372.087,266.925C372.128,266.418 372.159,265.919 372.181,265.411C372.224,264.74 372.256,264.077 372.277,263.404C372.278,263.37 372.279,263.336 372.279,263.301C372.284,263.194 372.287,263.085 372.289,262.976C372.309,262.319 372.329,261.662 372.339,261.012C372.344,260.666 372.35,260.32 372.354,259.972L382.38,259.972C384.694,259.972 386.948,260.361 389.104,261.137C397.039,263.963 402.371,271.524 402.371,279.951C402.37,290.973 393.402,299.94 382.38,299.94Z" style="fill-rule:nonzero;"/>
    </g>
    <g transform="matrix(1.46428,0,0,1.37047,-118.855,-110)">
        <path d="M128.71,222.736C142.404,233.25 366.266,230.476 364.3,228.212C364.3,228.212 375.316,219.831 364.3,213.912C292.437,219.288 234.305,217.395 160.021,213.912C146.323,213.27 135.84,214.555 120.38,202.239C120.38,202.239 123.234,220.022 128.71,222.736Z" style="fill-rule:nonzero;"/>
    </g>
    <g id="moustache" transform="matrix(0.86212,0,0,0.838129,35.2979,45.0127)">
        <g transform="matrix(1,0,0,1,1.24345e-14,177.66)">
            <path d="M437.107,230.572C419.598,230.572 401.918,225.07 387.011,213.977L354.038,189.44C339.559,178.665 321.991,172.845 303.942,172.845C303.942,172.845 269.803,173.462 255.999,188.255C242.195,173.462 208.056,172.845 208.056,172.845C190.007,172.845 172.439,178.664 157.96,189.44L124.987,213.977C110.939,224.431 93.472,230.572 74.891,230.572C37.134,230.585 7.498,201.084 7.498,201.084L7.498,259.136C7.498,301.754 94.044,377.243 180.164,316.336C180.164,316.336 233.672,324.803 255.999,297.004C278.326,324.803 331.834,316.336 331.834,316.336C417.953,377.243 504.5,301.754 504.5,259.136L504.5,201.084C504.5,201.085 474.864,230.585 437.107,230.572Z" style="fill:rgb(251,172,66);fill-rule:nonzero;"/>
        </g>
        <g transform="matrix(1,0,0,1,1.24345e-14,177.66)">
            <path d="M208.438,317.195C203.334,316.837 200.168,316.337 200.168,316.337C199.576,316.756 198.984,317.145 198.392,317.55C201.514,317.554 204.901,317.455 208.438,317.195Z" style="fill:rgb(245,148,0);fill-rule:nonzero;"/>
        </g>
        <g transform="matrix(1,0,0,1,1.24345e-14,177.66)">
            <path d="M504.5,216.11L504.5,201.085C504.5,201.085 479.803,225.653 446.781,229.93C467.554,232.507 486.637,226.863 504.5,216.11Z" style="fill:rgb(245,148,0);fill-rule:nonzero;"/>
        </g>
        <g transform="matrix(1,0,0,1,1.24345e-14,177.66)">
            <path d="M276.003,188.257C285.235,178.365 303.548,174.815 314.676,173.547C311.131,173.09 307.548,172.847 303.943,172.847C303.943,172.847 281.83,173.253 266.002,181.123C269.838,183.031 273.31,185.371 276.003,188.257Z" style="fill:rgb(245,148,0);fill-rule:nonzero;"/>
        </g>
        <g transform="matrix(1,0,0,1,1.24345e-14,177.66)">
            <path d="M144.991,213.978L177.964,189.441C189.552,180.817 203.119,175.378 217.327,173.546C211.814,172.918 208.057,172.846 208.057,172.846C190.008,172.846 172.44,178.665 157.961,189.441L124.988,213.978C113.29,222.684 99.576,228.15 85.222,229.93C105.365,232.539 127.287,227.153 144.991,213.978Z" style="fill:rgb(245,148,0);fill-rule:nonzero;"/>
        </g>
        <g transform="matrix(1,0,0,1,1.24345e-14,177.66)">
            <path d="M27.503,259.137L27.503,216.11C15.104,208.646 7.5,201.085 7.5,201.085L7.5,259.137C7.5,292.087 59.236,344.667 122.507,338.689C68.689,333.569 27.503,288.536 27.503,259.137Z" style="fill:rgb(245,148,0);fill-rule:nonzero;"/>
        </g>
        <g transform="matrix(1,0,0,1,1.24345e-14,177.66)">
            <path d="M351.838,316.337C351.838,316.337 344.256,317.537 333.611,317.55C359.732,335.456 385.834,340.939 409.497,338.688C390.931,336.935 371.375,330.155 351.838,316.337Z" style="fill:rgb(245,148,0);fill-rule:nonzero;"/>
        </g>
        <g transform="matrix(1,0,0,1,1.24345e-14,177.66)">
            <path d="M276.003,297.005C273.128,300.586 269.731,303.56 266.002,306.034C284.19,318.094 310.371,318.121 323.566,317.195C307.13,315.985 287.462,311.272 276.003,297.005Z" style="fill:rgb(245,148,0);fill-rule:nonzero;"/>
        </g>
        <g transform="matrix(1,0,0,1,1.24345e-14,177.66)">
            <path d="M336.164,310.215L333.673,308.454C310.372,312.14 276.618,310.699 261.849,292.31L256,285.029L250.151,292.31C235.428,310.641 201.501,312.12 178.327,308.454L175.837,310.215C128.197,343.905 85.629,330.584 64.497,319.645C33.515,303.608 15.002,276.289 15.002,259.141L15.002,216.898C26.441,225.058 44.684,235.346 66.265,237.617L67.836,222.697C37.055,219.458 13.024,195.996 12.794,195.767L0,183.028L0,259.14C0,308.622 92.758,384.791 182.058,324.155C193.396,325.468 232.771,328.278 256,307.814C279.231,328.28 318.607,325.467 329.943,324.155C355.92,341.772 384.58,349.268 413.001,345.85L411.209,330.955C385.277,334.072 360.03,327.095 336.164,310.215Z" style="fill-rule:nonzero;"/>
        </g>
        <g transform="matrix(1,0,0,1,1.24345e-14,177.66)">
            <path d="M511.991,183.117L499.215,195.759C498.939,196.032 471.214,223.076 437.126,223.076C420.767,223.076 404.574,217.699 391.488,207.956L358.514,183.423C342.853,171.766 323.475,165.347 303.947,165.347C299.634,165.394 291.298,166.164 283.712,167.645C272.057,169.922 262.771,173.518 255.997,178.369C239.115,166.288 211.604,165.411 208.188,165.349C189.931,165.152 169.813,171.272 153.488,183.423L120.51,207.957C109.092,216.458 95.573,221.587 81.416,222.793L82.689,237.741C99.632,236.298 115.807,230.161 129.466,219.992L162.444,195.458C175.515,185.727 191.687,180.363 207.985,180.349C216.661,180.518 240.999,183.178 250.515,193.377L255.999,199.255L261.483,193.377C270.961,183.22 295.338,180.532 304.018,180.349C320.315,180.365 336.484,185.729 349.556,195.459L382.53,219.991C398.195,231.654 417.578,238.077 437.104,238.077C458.612,238.077 479.489,229.401 496.996,216.903L496.996,259.14C496.996,287.395 458.395,319.507 425.188,328.279L429.021,342.784C477.921,329.866 511.998,288.334 511.998,259.139L511.991,183.117Z" style="fill-rule:nonzero;"/>
        </g>
        <g transform="matrix(1,0,0,1,1.24345e-14,177.66)">
            <path d="M381.734,254.689L388.557,241.328C403.605,249.013 420.394,253.076 437.107,253.076C448.609,253.076 460.35,250.995 472.005,246.893L476.986,261.043C443.748,272.747 410.209,269.231 381.734,254.689ZM368.009,246.497C365.656,244.87 364.584,244.039 355.719,237.441L364.675,225.406C372.682,231.365 374.36,232.649 376.537,234.154L368.009,246.497ZM343.683,228.486L331.648,219.529L340.604,207.494L352.639,216.451L343.683,228.486Z" style="fill:white;fill-rule:nonzero;"/>
        </g>
    </g>
    <path d="M121.966,279.381C115.509,276.562 206.856,239.586 207.235,247.241L219.253,268.991C199.164,267.261 172.957,277.4 136.732,289.185C136.732,289.185 127.412,281.759 121.966,279.381Z" style="fill:rgb(245,148,0);stroke:black;stroke-width:9.5px;"/>
    <g transform="matrix(-1,0,0,1,514.892,0)">
        <path d="M121.966,279.381C115.509,276.562 206.856,239.586 207.235,247.241L219.253,268.991C199.164,267.261 172.957,277.4 136.732,289.185C136.732,289.185 127.412,281.759 121.966,279.381Z" style="fill:rgb(245,148,0);stroke:black;stroke-width:9.5px;"/>
    </g>
</svg>
