<?xml version="1.0" encoding="UTF-8" standalone="no"?>
<!DOCTYPE svg PUBLIC "-//W3C//DTD SVG 1.1//EN" "http://www.w3.org/Graphics/SVG/1.1/DTD/svg11.dtd">
<svg width="100%" height="100%" viewBox="0 0 500 90" version="1.1" xmlns="http://www.w3.org/2000/svg" xmlns:xlink="http://www.w3.org/1999/xlink" xml:space="preserve" xmlns:serif="http://www.serif.com/" style="fill-rule:evenodd;clip-rule:evenodd;stroke-linejoin:round;stroke-miterlimit:1.41421;">
    <g transform="matrix(1.29435,7.9875e-17,-0.28973,1.29435,-59.9261,-214.7)">
        <g id="Layer1">
            <g>
                <path d="M134.463,214.511C135.759,211.055 138.135,208.031 137.559,203.063C132.375,199.103 124.311,196.727 115.887,196.655C115.383,197.087 114.807,197.519 114.303,197.951C113.223,201.767 115.959,208.103 120.279,208.175C119.559,212.351 116.463,218.903 111.351,218.903C108.039,210.047 111.639,194.999 115.743,188.879C116.751,187.295 118.767,186.071 119.919,184.487L120.279,184.487C123.231,186.647 125.391,190.751 130.287,190.679C136.335,183.335 121.359,174.407 114.303,174.695C113.727,174.767 113.223,174.911 112.647,175.055C108.183,182.903 101.919,193.991 99.903,204.287C98.607,210.911 99.759,219.551 103.359,222.503C115.167,232.295 129.783,226.967 134.463,214.511ZM130.503,218.111C130.863,218.471 130.647,218.327 130.647,219.263L130.287,219.263C130.215,218.111 129.927,218.831 130.503,218.111ZM126.687,213.935L127.047,213.791L127.407,213.791L127.407,213.935C127.119,214.079 126.903,214.223 126.687,214.295L126.687,213.935ZM124.095,218.543L124.095,218.687C123.951,218.903 123.735,219.047 123.591,219.263L123.375,218.543L124.095,218.543ZM121.935,213.935C122.007,214.223 122.079,214.439 122.079,214.655L121.935,214.655L121.719,214.655C121.791,214.439 121.863,214.223 121.935,213.935ZM120.279,226.175C120.567,225.671 120.927,225.167 121.215,224.663C121.431,225.023 120.927,226.103 120.279,226.319L120.279,226.175ZM122.079,184.127C122.151,184.271 122.223,184.343 122.295,184.487L121.935,184.631C121.791,184.487 121.647,184.271 121.575,184.127L122.079,184.127ZM121.215,181.391L120.855,181.031C121.143,181.247 120.927,181.031 121.215,181.391ZM112.791,192.335L113.367,192.335L113.367,192.479L113.223,193.055C113.079,193.127 112.935,193.127 112.791,193.199L112.431,192.839C112.575,192.695 112.719,192.479 112.791,192.335ZM109.191,213.575C108.831,214.295 109.263,213.935 108.471,214.151C108.615,213.935 108.831,213.791 108.975,213.575L109.191,213.575ZM108.615,203.063L107.895,202.487C108.615,202.775 108.255,202.487 108.615,203.063ZM106.671,218.903L106.815,218.903L107.031,219.263C106.887,219.335 106.743,219.479 106.671,219.623C106.599,219.551 106.527,219.479 106.455,219.407L106.671,218.903ZM101.199,216.671C101.487,216.527 101.775,216.311 102.063,216.167L102.423,216.311C102.063,216.455 101.631,216.599 101.199,216.671Z" style="fill:url(#_Linear1);fill-rule:nonzero;"/>
                <path d="M181.191,222.071C180.615,219.479 178.887,215.591 179.535,212.423C180.183,210.911 182.919,208.967 184.359,208.175C184.431,207.815 184.503,207.455 184.503,207.095C183.135,205.655 181.911,204.791 179.175,204.647C177.519,201.911 179.031,198.671 178.383,194.999C177.159,188.591 178.887,178.295 176.511,173.327C175.071,171.239 170.967,171.527 167.223,171.671C165.639,171.815 164.055,171.959 162.471,172.103L162.111,172.103C163.119,181.607 152.751,192.623 151.167,203.207C149.151,204.431 141.303,206.231 138.423,206.303C138.351,206.447 138.279,206.519 138.207,206.663L138.423,207.311C141.159,209.039 144.399,210.479 148.287,210.407C146.703,217.463 142.887,220.703 147.495,227.255C149.799,227.903 151.527,226.823 154.119,227.039C156.135,221.999 158.511,217.103 160.671,211.847C163.407,211.343 165.927,211.415 169.095,211.487C171.687,218.759 169.167,234.455 181.191,228.551C181.191,226.823 180.543,223.943 180.615,223.367C180.831,222.935 181.047,222.575 181.191,222.071ZM168.231,202.415L163.983,202.991L163.767,202.415C165.207,199.391 166.143,195.575 168.231,193.343C168.663,194.999 168.303,199.247 168.231,202.415Z" style="fill:url(#_Linear2);fill-rule:nonzero;"/>
                <path d="M186.015,199.391C185.583,202.055 186.519,206.303 186.375,208.967C186.015,209.687 185.655,210.407 185.295,211.127C184.287,216.023 187.023,220.271 188.535,223.079C189.183,223.223 189.759,223.439 190.335,223.583C197.967,222.791 192.423,206.951 195.951,205.007C195.663,201.479 197.391,191.615 196.527,189.455C197.535,190.247 202.359,194.639 203.007,195.575C203.583,196.511 204.087,197.375 204.663,198.311C207.399,199.463 212.223,191.759 213.663,190.535C213.735,190.607 213.807,190.679 213.879,190.751C212.511,193.631 212.151,199.823 212.079,203.351C212.223,203.495 212.439,203.639 212.583,203.711C212.799,202.703 212.943,201.695 213.159,200.687L213.303,200.687C214.023,202.559 212.655,206.303 212.439,208.247C211.575,214.583 210.351,222.575 214.023,227.399C215.679,227.759 217.119,227.399 219.063,227.255C219.855,220.559 220.647,213.863 221.439,207.167C223.023,202.127 224.247,195.215 224.175,189.455C224.103,185.855 224.031,182.255 223.959,178.583C222.375,175.487 217.695,174.767 214.599,173.543L214.239,173.759C213.447,178.295 205.743,184.631 206.247,187.655C204.303,186.719 200.343,179.591 198.831,177.503C196.527,174.407 192.063,173.687 188.751,171.599L188.535,171.599C189.327,179.447 187.455,190.895 186.015,199.391ZM187.311,212.783L187.095,212.783C187.167,212.495 187.239,212.279 187.311,212.063L187.671,212.063C187.527,212.279 187.383,212.495 187.311,212.783ZM222.879,188.375L222.735,188.735L222.519,188.375L222.879,188.375ZM201.207,185.855L201.567,185.999L200.991,186.575L201.207,185.855ZM195.231,194.711L195.087,194.351C195.375,194.567 195.159,194.495 195.231,194.711ZM188.895,212.063L189.255,212.063L189.471,212.423L189.111,212.567L188.751,212.207L188.895,212.063ZM188.895,217.823L188.751,217.463C189.039,217.679 188.823,217.679 188.895,217.823Z" style="fill:url(#_Linear3);fill-rule:nonzero;"/>
                <path d="M248.871,173.471C247.071,173.615 245.271,173.831 243.471,174.047C242.823,173.543 242.175,173.111 241.599,172.607L238.431,173.039C235.911,172.679 233.607,172.175 231.807,171.599C233.751,178.151 231.951,187.799 230.583,195.503C230.655,198.671 230.727,201.839 230.799,205.007L230.151,218.543C228.207,218.903 226.263,218.327 224.967,217.535L224.751,217.535C225.183,219.047 230.079,226.247 231.375,226.679C238.287,228.839 246.711,226.391 252.615,225.815C255.279,225.527 260.319,226.247 262.335,224.951C263.919,224.087 265.791,220.343 265.935,218.111C259.959,214.223 251.751,215.375 244.047,216.239C245.127,213.287 245.199,208.967 244.479,205.871C249.951,200.615 263.415,207.959 264.063,196.511C258.951,193.559 253.119,194.711 246.567,194.855C245.919,191.759 248.511,185.783 249.447,182.975C253.191,180.671 257.799,183.191 262.335,182.399C263.487,182.183 264.639,181.463 266.295,181.319C266.871,180.023 267.447,178.727 267.951,177.359C265.071,173.687 255.855,172.247 248.871,173.471ZM231.015,217.895L230.583,218.111C230.655,217.247 230.727,216.311 230.799,215.447L231.015,215.447L231.015,217.895ZM231.015,215.015L230.799,215.015C230.871,214.655 230.943,214.295 231.015,214.007L231.375,214.367C231.231,214.583 231.087,214.799 231.015,215.015ZM240.735,210.407L240.951,210.047L241.167,210.407L240.735,210.407ZM262.191,221.855C262.551,222.215 262.335,221.855 262.551,222.503L262.191,222.503L262.191,221.855Z" style="fill:url(#_Linear4);fill-rule:nonzero;"/>
                <path d="M324.399,174.695L325.047,175.127C324.687,174.695 325.047,174.983 324.399,174.695ZM322.239,174.695C322.239,174.047 322.167,173.399 322.095,172.751L321.663,172.751C321.519,173.327 321.447,173.903 321.303,174.479C320.223,174.047 320.439,173.255 319.503,172.751L319.503,173.903C319.071,173.759 318.639,173.687 318.135,173.543C318.711,173.831 319.359,174.191 319.935,174.479C320.079,174.767 320.151,175.055 320.295,175.271C308.271,172.607 306.039,177.863 300.711,185.639L300.135,185.855C299.847,185.207 299.847,185.279 299.343,184.919C298.263,191.399 297.255,199.247 297.759,207.455C297.903,208.895 296.895,209.615 297.399,211.559C299.703,220.847 310.431,230.279 324.039,226.823C332.967,224.519 330.663,218.471 333.471,210.335C334.191,209.039 334.911,207.743 335.559,206.447C336.711,202.847 335.343,194.207 334.983,191.975C334.407,187.583 337.647,182.615 331.671,180.959L331.671,179.591C330.951,179.519 330.231,179.447 329.511,179.375C328.431,178.583 326.415,176.567 326.415,174.695C325.767,174.983 325.623,175.415 325.191,175.847C323.679,175.631 323.679,174.983 322.239,174.695ZM300.711,197.231C300.999,197.447 301.215,197.591 301.503,197.807C300.927,197.591 301.071,197.735 300.711,197.231ZM318.135,186.287C317.415,185.999 317.775,186.287 317.343,185.639C317.631,185.855 317.919,186.071 318.135,186.287ZM315.615,212.711C315.183,214.223 314.679,215.735 314.247,217.247C310.359,217.967 308.919,213.719 307.767,210.767C304.527,202.055 307.911,189.815 312.303,183.911L313.095,184.127C313.599,186.071 313.095,186.863 313.455,188.447C313.815,189.167 314.247,189.887 314.607,190.607C314.391,191.327 314.103,192.047 313.815,192.695C314.391,194.351 314.895,196.007 315.399,197.591C315.687,199.175 315.903,211.631 315.615,212.711ZM316.623,190.391C316.767,190.103 316.983,189.887 317.199,189.599C317.127,190.175 317.055,190.751 316.983,191.327L316.767,191.327L316.623,190.391ZM316.983,194.279C317.415,194.639 317.919,194.927 318.351,195.287C317.487,194.999 317.415,194.855 316.983,194.279ZM318.711,191.183L317.775,190.967L317.991,190.607L318.711,190.967L318.711,191.183ZM328.575,178.655L328.575,179.375C325.911,180.167 324.399,180.455 322.095,181.175C321.807,180.887 321.519,180.671 321.303,180.383C321.447,178.367 322.383,177.719 324.255,177.431C324.327,177.935 324.327,178.511 324.399,179.015L325.191,179.231C325.335,178.583 325.479,177.935 325.623,177.215C327.135,177.359 327.639,177.935 328.575,178.655ZM318.711,172.319C318.279,172.103 317.847,171.815 317.343,171.599L317.343,172.175C317.703,172.319 318.063,172.535 318.351,172.751C318.495,172.607 318.639,172.463 318.711,172.319ZM306.039,174.335C305.751,174.119 305.463,173.903 305.247,173.687C304.383,174.263 304.167,174.407 303.663,175.271C304.167,175.127 304.671,174.911 305.247,174.695C305.175,175.127 305.103,175.487 305.031,175.847C306.039,175.559 305.967,175.559 306.039,174.335Z" style="fill:url(#_Linear5);fill-rule:nonzero;"/>
                <path d="M351.327,195.359L351.327,195.935C352.335,195.575 352.911,194.207 353.055,193.055L352.695,192.911L352.335,193.271C351.615,193.703 351.543,194.495 351.327,195.359ZM373.071,175.919C371.559,173.039 364.863,171.599 361.623,171.959C361.479,174.911 359.751,176.207 358.959,178.439C356.295,185.783 354.495,193.919 350.751,200.327L350.607,200.687C349.959,196.727 349.311,192.695 348.663,188.735C348.303,184.343 348.951,179.015 348.087,174.767C345.639,173.255 342.759,171.671 338.943,171.599C339.015,175.775 337.359,177.215 336.855,181.247C335.847,190.175 338.295,199.679 340.095,207.383L340.455,207.527C340.527,207.527 340.599,207.455 340.671,207.383C340.455,206.807 340.311,206.231 340.095,205.655L340.095,204.143C341.823,204.719 341.103,206.591 341.463,207.527L341.463,208.319C341.031,208.247 340.671,208.175 340.311,208.103C341.103,210.767 341.967,213.359 342.759,215.951C343.911,218.327 345.063,220.775 346.215,223.151L345.855,223.583C344.919,222.719 344.415,222.143 344.127,220.703L343.695,220.487L343.335,220.703C344.199,225.095 348.735,225.959 352.479,227.543C353.055,226.247 352.911,225.743 354.423,225.239C354.639,224.735 354.927,224.231 355.143,223.727C355.287,224.303 355.431,224.879 355.503,225.455L355.719,225.455C358.383,223.223 358.887,217.103 360.327,213.647C363.639,205.511 367.023,196.583 370.191,187.943C371.199,185.135 374.943,179.807 373.071,175.919ZM339.951,181.823L340.311,181.823C340.167,182.039 340.023,182.255 339.951,182.399L339.951,181.823ZM339.519,200.687C340.095,201.047 339.879,200.759 340.095,201.479L339.519,200.687ZM340.311,200.687C340.383,200.543 340.455,200.327 340.455,200.111C340.671,200.615 340.527,200.327 340.311,200.687ZM341.607,209.255C341.823,209.111 342.039,208.895 342.183,208.679C342.183,208.679 342.831,211.199 343.119,211.775C341.895,211.343 341.967,210.551 341.607,209.255ZM343.119,212.351L343.911,212.927C343.839,213.215 343.767,213.503 343.695,213.863L343.695,214.223L342.975,214.223C342.975,213.071 342.903,212.927 343.119,212.351ZM343.335,215.375C343.911,215.735 344.487,216.167 345.063,216.527L345.279,219.911C344.415,219.047 343.911,216.455 343.335,215.375ZM345.063,200.903L345.279,200.327L345.423,200.327C345.207,200.903 345.423,200.543 345.063,200.903ZM347.511,176.711C347.295,176.855 347.007,176.999 346.791,177.071L346.791,176.711C346.935,176.639 347.007,176.567 347.151,176.495L347.511,176.495L347.511,176.711ZM351.903,220.127C352.119,220.343 352.335,220.487 352.479,220.703C352.119,220.415 352.191,220.487 351.903,220.127ZM359.751,181.103L360.111,181.103L359.535,181.463L359.751,181.103ZM359.535,207.743C359.175,207.455 359.391,207.743 359.175,207.383L359.535,207.743ZM356.511,218.975L356.295,218.615C356.439,218.543 356.583,218.471 356.655,218.399L357.087,218.399C356.871,218.615 356.655,218.831 356.511,218.975ZM357.807,212.135L358.167,212.135L357.663,212.927L357.447,212.927C357.591,212.639 357.663,212.423 357.807,212.135ZM358.167,215.015L357.663,215.159C358.023,213.647 358.239,213.215 358.599,211.919C358.743,212.063 358.959,212.207 359.175,212.351C358.815,213.215 358.527,214.079 358.167,215.015ZM359.319,211.559C359.175,211.487 358.959,211.415 358.743,211.343C359.247,210.623 359.679,209.831 360.111,209.111C360.543,209.687 359.751,210.623 359.319,211.559ZM360.111,208.319C360.255,207.959 360.327,207.527 360.471,207.167L361.047,207.023L361.263,207.023C360.903,207.815 361.047,208.031 360.111,208.319ZM370.551,178.007C370.407,177.791 370.191,177.503 369.975,177.287C370.407,177.575 370.335,177.647 370.551,178.007ZM362.775,201.479C363.063,202.127 363.279,202.703 363.567,203.351C362.919,202.775 362.703,202.199 362.775,201.479ZM363.135,190.607L363.351,190.247L363.351,190.607L363.135,190.607ZM363.135,183.767L363.351,183.407L363.711,183.407L363.135,183.767ZM365.439,188.519C365.151,188.303 364.935,188.159 364.647,187.943C364.935,188.087 365.151,188.231 365.439,188.303L365.439,188.519ZM370.191,183.407L370.407,183.767L369.975,183.767L370.191,183.407Z" style="fill:url(#_Linear6);fill-rule:nonzero;"/>
                <path d="M398.271,173.471C396.471,173.615 394.671,173.831 392.871,174.047C392.223,173.543 391.575,173.111 390.999,172.607L387.831,173.039C385.311,172.679 383.007,172.175 381.207,171.599C383.151,178.151 381.351,187.799 379.983,195.503C380.055,198.671 380.127,201.839 380.199,205.007L379.551,218.543C377.607,218.903 375.663,218.327 374.367,217.535L374.151,217.535C374.583,219.047 379.479,226.247 380.775,226.679C387.687,228.839 396.111,226.391 402.015,225.815C404.679,225.527 409.719,226.247 411.735,224.951C413.319,224.087 415.191,220.343 415.335,218.111C409.359,214.223 401.151,215.375 393.447,216.239C394.527,213.287 394.599,208.967 393.879,205.871C399.351,200.615 412.815,207.959 413.463,196.511C408.351,193.559 402.519,194.711 395.967,194.855C395.319,191.759 397.911,185.783 398.847,182.975C402.591,180.671 407.199,183.191 411.735,182.399C412.887,182.183 414.039,181.463 415.695,181.319C416.271,180.023 416.847,178.727 417.351,177.359C414.471,173.687 405.255,172.247 398.271,173.471ZM380.415,217.895L379.983,218.111C380.055,217.247 380.127,216.311 380.199,215.447L380.415,215.447L380.415,217.895ZM380.415,215.015L380.199,215.015C380.271,214.655 380.343,214.295 380.415,214.007L380.775,214.367C380.631,214.583 380.487,214.799 380.415,215.015ZM390.135,210.407L390.351,210.047L390.567,210.407L390.135,210.407ZM411.591,221.855C411.951,222.215 411.735,221.855 411.951,222.503L411.591,222.503L411.591,221.855Z" style="fill:url(#_Linear7);fill-rule:nonzero;"/>
                <path d="M448.311,225.455C448.887,225.167 449.463,224.879 450.039,224.591C451.407,224.231 451.695,225.239 453.063,224.591C457.023,221.711 451.119,202.991 450.615,198.311C452.991,195.647 457.095,194.711 458.679,191.111C460.911,185.999 458.895,183.623 456.591,180.743C451.839,174.767 444.063,172.751 433.191,172.967C431.103,173.903 427.863,173.687 425.919,173.327L425.919,174.047C424.047,174.407 423.111,174.047 421.527,173.687C421.383,174.335 421.383,174.191 421.023,174.551C421.167,176.639 421.239,178.655 421.383,180.743C422.103,181.103 423.975,181.103 424.695,181.607C423.831,181.535 423.759,181.535 422.967,181.751C421.887,184.559 422.103,188.231 421.383,191.471C419.223,201.119 412.815,225.095 425.919,227.543C426.855,226.967 427.719,226.391 428.583,225.815C429.735,225.887 430.167,226.247 430.887,226.679C431.391,223.727 432.975,221.063 433.551,217.679C434.271,213.143 433.263,207.599 434.559,203.279C436.359,203.063 438.087,202.919 439.887,202.703C440.031,210.839 442.623,222.647 448.311,225.455ZM455.727,190.391L455.727,190.607C455.151,190.319 455.295,190.463 455.007,190.031L455.727,190.391ZM419.439,206.807L419.583,206.807C419.511,206.951 419.367,207.167 419.295,207.311C419.295,207.167 419.367,206.951 419.439,206.807ZM419.295,213.143L419.799,213.647C419.295,213.359 419.511,213.575 419.295,213.143ZM423.111,207.455L423.327,207.167L423.471,207.167L423.831,207.671L423.111,207.455ZM427.359,207.815L427.215,207.455C427.503,207.743 427.287,207.671 427.359,207.815ZM426.855,201.479L427.359,201.479C426.855,201.695 427.287,201.767 426.855,201.479ZM427.215,224.375L427.215,223.655L427.503,223.655C427.431,223.943 427.287,224.159 427.215,224.375ZM432.471,214.367L432.471,213.791L432.615,213.791C432.615,214.007 432.543,214.151 432.471,214.367ZM442.839,212.927L442.695,212.927C442.767,212.639 442.911,212.351 443.055,212.063L443.415,212.423C443.199,212.567 443.055,212.783 442.839,212.927ZM450.255,185.855L449.895,185.135C450.255,185.495 450.111,185.207 450.255,185.855ZM435.279,179.159L435.783,178.943C441.183,178.871 448.887,179.951 448.671,185.639C446.871,187.223 444.063,188.735 441.615,189.527C439.887,190.031 437.583,189.959 436.143,190.751C434.559,188.519 436.143,182.039 435.279,179.159Z" style="fill:url(#_Linear8);fill-rule:nonzero;"/>
            </g>
        </g>
    </g>
    <defs>
        <linearGradient id="_Linear1" x1="0" y1="0" x2="1" y2="0" gradientUnits="userSpaceOnUse" gradientTransform="matrix(11.6309,58.281,-58.5977,-1.41486,281.024,171.57)"><stop offset="0" style="stop-color:rgb(92,46,136);stop-opacity:1"/><stop offset="1" style="stop-color:rgb(237,22,143);stop-opacity:1"/></linearGradient>
        <linearGradient id="_Linear2" x1="0" y1="0" x2="1" y2="0" gradientUnits="userSpaceOnUse" gradientTransform="matrix(11.6309,58.281,-58.5977,-1.41486,281.024,171.57)"><stop offset="0" style="stop-color:rgb(92,46,136);stop-opacity:1"/><stop offset="1" style="stop-color:rgb(237,22,143);stop-opacity:1"/></linearGradient>
        <linearGradient id="_Linear3" x1="0" y1="0" x2="1" y2="0" gradientUnits="userSpaceOnUse" gradientTransform="matrix(11.6309,58.281,-58.5977,-1.41486,281.024,171.57)"><stop offset="0" style="stop-color:rgb(92,46,136);stop-opacity:1"/><stop offset="1" style="stop-color:rgb(237,22,143);stop-opacity:1"/></linearGradient>
        <linearGradient id="_Linear4" x1="0" y1="0" x2="1" y2="0" gradientUnits="userSpaceOnUse" gradientTransform="matrix(11.6309,58.281,-58.5977,-1.41486,281.024,171.57)"><stop offset="0" style="stop-color:rgb(92,46,136);stop-opacity:1"/><stop offset="1" style="stop-color:rgb(237,22,143);stop-opacity:1"/></linearGradient>
        <linearGradient id="_Linear5" x1="0" y1="0" x2="1" y2="0" gradientUnits="userSpaceOnUse" gradientTransform="matrix(11.6309,58.281,-58.5977,-1.41486,281.024,171.57)"><stop offset="0" style="stop-color:rgb(92,46,136);stop-opacity:1"/><stop offset="1" style="stop-color:rgb(237,22,143);stop-opacity:1"/></linearGradient>
        <linearGradient id="_Linear6" x1="0" y1="0" x2="1" y2="0" gradientUnits="userSpaceOnUse" gradientTransform="matrix(11.6309,58.281,-58.5977,-1.41486,281.024,171.57)"><stop offset="0" style="stop-color:rgb(92,46,136);stop-opacity:1"/><stop offset="1" style="stop-color:rgb(237,22,143);stop-opacity:1"/></linearGradient>
        <linearGradient id="_Linear7" x1="0" y1="0" x2="1" y2="0" gradientUnits="userSpaceOnUse" gradientTransform="matrix(11.6309,58.281,-58.5977,-1.41486,281.024,171.57)"><stop offset="0" style="stop-color:rgb(92,46,136);stop-opacity:1"/><stop offset="1" style="stop-color:rgb(237,22,143);stop-opacity:1"/></linearGradient>
        <linearGradient id="_Linear8" x1="0" y1="0" x2="1" y2="0" gradientUnits="userSpaceOnUse" gradientTransform="matrix(11.6309,58.281,-58.5977,-1.41486,281.024,171.57)"><stop offset="0" style="stop-color:rgb(92,46,136);stop-opacity:1"/><stop offset="1" style="stop-color:rgb(237,22,143);stop-opacity:1"/></linearGradient>
    </defs>
</svg>
