<?xml version="1.0" encoding="UTF-8" standalone="no"?>
<!DOCTYPE svg PUBLIC "-//W3C//DTD SVG 1.1//EN" "http://www.w3.org/Graphics/SVG/1.1/DTD/svg11.dtd">
<svg width="100%" height="100%" viewBox="0 0 513 513" version="1.1" xmlns="http://www.w3.org/2000/svg" xmlns:xlink="http://www.w3.org/1999/xlink" xml:space="preserve" xmlns:serif="http://www.serif.com/" style="fill-rule:evenodd;clip-rule:evenodd;stroke-linejoin:round;stroke-miterlimit:1.41421;">
    <g transform="matrix(1.42269,0,0,1.33155,-108.48,-18.8638)">
        <path d="M320.168,219.369L320.168,284.208C320.168,336.232 271.08,371.11 208.721,367.821C210.655,367.923 254.041,367.821 256,367.821C316.123,367.821 365.422,317.872 365.422,257.749L388.485,219.369L320.168,219.369Z" style="fill:rgb(227,167,222);fill-rule:nonzero;"/>
    </g>
    <g transform="matrix(1.42269,0,0,1.33155,-108.48,-18.8638)">
        <path d="M423.333,111.047C423.333,78.222 391.08,51.611 351.294,51.611C347.741,51.611 310.925,63.515 307.511,63.926C339.654,68.118 364.862,81.162 364.862,111.047C364.862,133.375 344.926,163.536 324.552,173.693L324.552,219.14C332.461,218.532 383.705,219.879 391.615,219.141L386.335,162.975C408.402,152.817 423.333,133.375 423.333,111.047Z" style="fill:rgb(227,167,222);fill-rule:nonzero;"/>
    </g>
    <g transform="matrix(0.971596,0,0,0.971596,7,10.284)">
        <path d="M74.721,207.249C71.119,225.256 68.755,243.195 69.048,260.991C78.531,261.774 309.354,270.528 414.581,263.161C423.963,262.5 433.466,261.774 442.95,260.991L435.878,193.99C435.599,189.755 438.128,185.793 442.247,184.019C471.725,171.318 490.035,147.626 490.035,122.187C490.035,82.937 447.64,51.005 395.531,51.005C375.183,51.005 355.776,55.846 339.402,65.008C334.579,67.708 328.354,66.561 324.98,62.352C309.032,42.443 283.244,30.557 256,30.557C228.755,30.557 202.968,42.443 187.019,62.352C183.647,66.561 177.419,67.707 172.597,65.008C156.224,55.846 136.815,51.005 116.469,51.005C90.838,51.005 66.83,58.644 48.867,72.514C44.189,76.128 37.267,75.506 33.408,71.127C29.548,66.749 30.211,60.27 34.889,56.658C56.777,39.756 85.75,30.447 116.469,30.447C137.447,30.447 157.678,34.803 175.538,43.107C195.732,22.234 225.143,10 256,10C286.857,10 316.268,22.234 336.463,43.105C354.323,34.801 374.552,30.446 395.532,30.446C459.753,30.446 512.001,71.6 512.001,122.186C512.001,153.654 491.595,182.739 458.25,199.513L465.5,269.206C465.5,269.206 465.567,269.947 465.567,270.326L465.567,311.566C481.809,319.848 492.29,335.959 492.292,353.666C492.292,380.107 469.307,401.618 441.057,401.618L405.378,401.618C385.178,447.891 320.962,478.49 255.997,482.536C175.749,483.916 134.247,442.769 106.623,401.618L70.944,401.618C42.694,401.618 19.709,380.107 19.709,353.666C19.709,335.969 30.18,319.863 46.432,311.57C44.922,273.519 47.694,236.227 53.749,199.515C20.406,182.74 0,153.656 0,122.187C0,114.225 1.281,106.347 3.809,98.771C5.616,93.352 11.774,90.332 17.564,92.023C23.354,93.715 26.581,99.48 24.774,104.898C22.91,110.489 21.964,116.305 21.964,122.187C21.964,143.893 36.608,166.367 57.52,177.748C83.482,194.125 100.573,192.507 115.46,193.161C224.233,197.935 309.354,200.528 414.581,193.161C430.712,201.273 414.581,212.759 414.581,212.759C417.319,215.709 121.077,219.291 74.721,207.249ZM107.579,324.902C107.579,325.724 109.177,366.219 123.071,386.745C142.733,423.806 178.968,463.638 256,463.809C314.705,461.333 346.171,442.774 365.46,421.752C376.18,410.069 383.139,397.625 388.923,386.76C389.12,386.387 403.544,362.194 404.599,324.596L404.416,284.437C355.14,287.629 305.57,289.246 255.997,289.246C206.424,289.246 156.855,287.629 107.579,284.437L107.579,324.902ZM96.49,381.061C89.77,363.451 86.087,343.414 85.625,326.282L70.944,326.282C67.556,326.282 64.255,326.815 61.134,327.868C49.479,331.753 41.673,342.115 41.673,353.664C41.673,368.771 54.805,381.06 70.944,381.06L70.944,381.061L96.49,381.061ZM441.055,381.06C457.195,381.06 470.326,368.771 470.328,353.666C470.328,342.117 462.52,331.754 450.901,327.881C447.744,326.818 444.444,326.285 441.055,326.285L426.374,326.285C425.623,340.691 415.344,388.551 415.507,381.06L441.055,381.06ZM443.603,281.57L443.603,305.789C442.757,305.751 426.383,305.725 426.383,305.725L426.383,282.922C432.109,282.494 437.859,282.042 443.603,281.57ZM85.616,305.725L85.616,282.922C79.891,282.494 74.141,282.042 68.396,281.57L68.396,305.789C69.243,305.75 85.616,305.725 85.616,305.725Z" style="fill:rgb(79,39,118);fill-rule:nonzero;"/>
    </g>
</svg>
