<svg height="512pt" viewBox="0 -66 512.00058 512" width="512pt" xmlns="http://www.w3.org/2000/svg"><path d="m205.007812 47.902344c68.757813-6.914063 99.820313 23.667968 120.417969 55.585937 22.019531-17.191406 31.894531-38.621093 2.347657-61.929687-72.324219-57.0625-173.222657-26.261719-191.363282-8.613282-19.570312 19.042969-22.710937 46.648438-22.710937 46.648438 25.441406-15.976562 55.773437-28.117188 91.308593-31.691406zm0 0" fill="#ff6930"/><path d="m223.636719 332.214844c15.289062 14.757812 38.460937 33.296875 63.671875 39.835937 9.542968 2.476563 18.828125-4.839843 18.828125-14.695312v-56.753907c-18.589844 16.523438-43.722657 30.035157-82.5 31.613282zm0 0" fill="#ff6930"/><path d="m478.4375 200.570312c0 60.761719 24.53125 128.359376 24.53125 128.359376-91.140625-.761719-70.105469-94.941407-121.75-94.941407-51.648438 0-51.648438 110.890625-187.605469 97.21875-135.953125-13.671875-184.566406-130.636719-184.566406-130.636719s60.003906-138.996093 195.960937-152.667968c135.953126-13.671875 124.5625 119.246094 176.207032 119.246094 51.648437 0 30.609375-94.179688 121.753906-94.941407 0 0-24.53125 67.601563-24.53125 128.363281zm0 0" fill="#ffc265"/><path d="m212.460938 26.003906c-36.308594 3.652344-67.195313 16.246094-92.976563 32.738282-4.71875 11.535156-5.785156 20.851562-5.785156 20.851562 25.441406-15.976562 55.773437-28.117188 91.304687-31.6875 68.761719-6.917969 99.824219 23.664062 120.421875 55.585938 5.148438-4.023438 9.636719-8.277344 13.105469-12.730469-20.640625-34.894531-50.726562-72.332031-126.070312-64.757813zm0 0" fill="#ff5426"/><path d="m250.8125 354.574219c23.484375-3.605469 41.179688-12.058594 55.324219-22.550781v-31.421876c-18.589844 16.523438-43.71875 30.035157-82.5 31.613282 7.421875 7.164062 16.707031 15.21875 27.175781 22.359375zm0 0" fill="#ff5426"/><path d="m381.21875 197.988281c-60.148438.640625-51.648438 110.890625-187.605469 97.21875-102.644531-10.320312-155.492187-79.511719-175.230469-112.800781-6.277343 11.089844-9.335937 18.164062-9.335937 18.164062s48.609375 116.964844 184.566406 130.636719c135.953125 13.671875 135.953125-97.21875 187.601563-97.21875 51.648437 0 30.609375 94.183594 121.753906 94.941407 0 0-5.488281-15.132813-11.277344-37.507813-53.398437-12.40625-48.828125-94.089844-110.472656-93.433594zm0 0" fill="#ffb541"/><path d="m222.164062 155.570312c-18.175781-2.144531-45.617187 14.382813-60.746093 24.726563.746093 6.515625 1.140625 13.132813 1.140625 19.84375 0 3.914063-.132813 7.796875-.390625 11.644531 15.273437 10.367188 42.117187 26.328125 59.996093 24.21875 26.222657-3.09375 25.042969-40.21875 25.042969-40.21875s1.179688-37.121094-25.042969-40.214844zm0 0" fill="#ff6930"/><path d="m245.894531 182.285156c-2.214843 10.957032-8.109375 24.875-23.730469 26.71875-17.878906 2.109375-45.039062-14.046875-60.308593-24.414062.003906-.011719-.007813-.015625-.007813-.023438.460938 5.128906.710938 10.324219.710938 15.574219 0 3.914063-.132813 7.796875-.390625 11.644531 15.269531 10.367188 42.117187 26.328125 59.996093 24.21875 26.21875-3.09375 25.042969-40.21875 25.042969-40.21875s.191407-6.066406-1.3125-13.5zm0 0" fill="#ff5426"/><path d="m9.046875 200.570312s30.941406 74.4375 112.476563 111.488282c25.589843-30.1875 41.035156-69.246094 41.035156-111.917969 0-46.863281-18.625-89.371094-48.859375-120.546875-71.902344 45.148438-104.652344 120.976562-104.652344 120.976562zm0 0" fill="#ffe9c8"/><path d="m18.382812 182.40625c-6.28125 11.09375-9.335937 18.164062-9.335937 18.164062s30.941406 74.4375 112.476563 111.488282c7.390624-8.71875 13.925781-18.175782 19.496093-28.246094-68.703125-23.617188-106.597656-74.355469-122.636719-101.40625zm0 0" fill="#ffdca7"/><path d="m494.371094 263.804688c-.820313-4.085938-4.796875-6.742188-8.882813-5.914063-4.085937.816406-6.730469 4.792969-5.914062 8.878906 4.695312 23.421875 10.527343 43.3125 14.210937 54.867188-39.085937-4.125-51.640625-29.054688-63.8125-53.226563-10.328125-20.503906-21.003906-41.703125-47.996094-41.703125-23.019531 0-37.152343 18.003907-52.117187 37.066407-24.125 30.742187-54.15625 69-135.871094 60.78125-21.683593-2.183594-42.121093-7.113282-61.242187-14.738282 5.242187-6.921875 9.996094-14.210937 14.183594-21.78125 2.015624-3.644531.695312-8.238281-2.949219-10.253906-3.648438-2.015625-8.238281-.695312-10.257813 2.949219-4.414062 7.980469-9.519531 15.625-15.199218 22.804687-23.390626-11.394531-44.625-27.117187-63.53125-47.089844-22.964844-24.269531-35.289063-47.75-39.140626-55.792968 4.363282-9.09375 19.117188-37.683594 44.957032-67.035156 15.671875-17.800782 32.730468-32.875 50.8125-44.933594 27.65625 30.671875 42.824218 70.023437 42.824218 111.515625 0 18.546875-3.027343 36.757812-8.992187 54.132812-1.285156 3.738281.632813 7.945313 4.289063 9.4375 3.964843 1.617188 8.597656-.496093 9.984374-4.535156 3.828126-11.152344 6.539063-22.621094 8.128907-34.289063 16.160156 9.910157 35.285156 19.0625 50.816406 19.0625 1.421875 0 2.816406-.074218 4.171875-.234374 26.167969-3.089844 32.273438-32.574219 31.859375-47.957032.414063-15.378906-5.691406-44.867187-31.859375-47.953125-16.535156-1.953125-38.277344 8.425781-56.253906 19.609375-5.824219-32.097656-20.179688-61.996094-41.9375-86.851562 25.28125-14.453125 52.4375-23.226563 80.796875-26.078125 35.933593-3.609375 64.015625 2.984375 85.855469 20.164062 19.074218 15.003907 30.855468 35.953125 41.25 54.4375 13.128906 23.351563 25.53125 45.40625 49.421874 45.40625 26.992188 0 37.667969-21.199219 47.992188-41.703125 12.171875-24.167968 24.722656-49.097656 63.804688-53.222656-6.972657 21.785156-21.53125 73.023438-21.53125 121.003906 0 10.503906.714843 21.886719 2.128906 33.832032.488281 4.140624 4.238281 7.089843 8.378906 6.609374 4.140625-.492187 7.097656-4.242187 6.609375-8.382812-1.34375-11.359375-2.027344-22.144531-2.027344-32.058594 0-59.046875 23.988281-125.898437 24.230469-126.570312 1.746094-4.808594-1.972656-10.238282-7.15625-10.117188-56.871094.472656-74.085938 34.652344-87.914062 62.117188-10.742188 21.332031-17.640626 33.402344-34.515626 33.402344-14.335937 0-23.121093-14.332032-36.269531-37.714844-3.105469-5.519532-6.378906-11.339844-9.96875-17.222656 12.285157-10.976563 18.527344-22.382813 18.558594-33.976563.03125-12.535156-7.175781-24.585937-21.414063-35.820313-15.863281-12.515624-34.042968-21.800781-54.035156-27.59375-4.003906-1.160156-8.1875 1.144532-9.347656 5.148438s1.144531 8.1875 5.148438 9.347656c18.109374 5.246094 34.558593 13.640625 48.886718 24.945313 10.414063 8.21875 15.6875 16.273437 15.667969 23.933593-.015625 6.695313-3.988281 13.8125-11.820313 21.21875-21.71875-30.816406-55.363281-59.042968-123.445312-52.199218-27.710938 2.785156-54.324219 10.832031-79.3125 23.917968 3.039062-8.1875 8.082031-18.035156 16.316406-26.050781 10.519532-10.234375 55.996094-26.558593 105.417969-21.273437 4.140625.441406 7.863281-2.558594 8.304687-6.699219.445313-4.144531-2.554687-7.863281-6.699218-8.308594-53.007813-5.667969-103.148438 11.457031-117.546875 25.464844-16.96875 16.511719-22.695313 38.394531-24.4375 47.761719-20.324219 13.160156-39.414063 29.835937-56.824219 49.671875-32.601562 37.148437-47.902344 72.152343-48.539062 73.625-.808594 1.878906-.824219 4-.039063 5.886719.519531 1.253906 13.101563 31.058593 43.023437 62.835937 27.636719 29.347656 75.902344 65.871094 148.875 73.210937 8.183594.824219 15.894532 1.210938 23.191407 1.207032 1.640625 0 3.253906-.023438 4.851562-.0625 15.839844 14.898437 39.3125 33.058594 65.085938 39.742187 7.226562 1.875 14.984375-.003906 20.597656-4.914062 4.929687-4.3125 7.78125-10.625 7.78125-17.175781v-53.761719c11.121094-10.335938 19.890625-21.503907 27.746094-31.511719 13.726562-17.488281 24.566406-31.296875 40.246093-31.296875 16.875 0 23.773438 12.066406 34.515626 33.398437 13.828124 27.464844 31.042968 61.644532 87.914062 62.117188 5.183594.128906 8.90625-5.296875 7.15625-10.117188-.097656-.273437-10.113281-28.082031-17.191406-63.390624zm-273.296875-100.953126c19.148437 2.257813 18.546875 32.441407 18.539062 32.726563-.003906.148437-.003906.316406 0 .460937.007813.308594.609375 30.488282-18.539062 32.746094-10.898438 1.285156-29.609375-6.257812-51.707031-20.757812.109374-2.601563.167968-5.210938.167968-7.828125 0-5.445313-.253906-10.855469-.726562-16.222657 22.34375-14.753906 41.253906-22.425781 52.265625-21.125zm77.820312 195.519532c0 4.878906-4.71875 8.722656-9.5 7.480468-17.722656-4.597656-34.578125-15.691406-48.027343-26.835937 24.171874-3.476563 42.683593-11.789063 57.527343-22.167969zm0 0"/><path d="m72.75 189.640625c0 10.667969 6.730469 19.023437 15.316406 19.023437 8.589844 0 15.316406-8.355468 15.316406-19.023437s-6.726562-19.023437-15.316406-19.023437c-8.585937 0-15.316406 8.355468-15.316406 19.023437zm0 0"/></svg>