<svg viewBox="-60 0 512 512.00123" xmlns="http://www.w3.org/2000/svg"><path d="m174.859375 324.03125-19.066406 1.859375c-6.613281.644531-12.660157-3.9375-13.585938-10.320313l-41.652343-287.707031c-1.21875-8.429687 4.085937-16.074219 11.804687-16.941406l29.800781-3.339844c7.75-.871093 14.761719 5.414063 15.582032 13.910157l27.957031 289.816406c.621093 6.425781-4.214844 12.078125-10.839844 12.722656zm0 0" fill="#fccf3f"/><path d="m125.359375 345.890625-18.9375.941406c-6.570313.328125-12.441406-4.4375-13.179687-10.722656l-33.320313-283.230469c-.976563-8.292968 4.496094-15.476562 12.171875-15.914062l29.597656-1.691406c7.691406-.4375 14.457032 6.054687 15.03125 14.382812l19.714844 284.292969c.4375 6.308593-4.503906 11.613281-11.078125 11.941406zm0 0" fill="#efc03c"/><path d="m97.046875 365.710938-18.5625 2.136718c-6.433594.742188-12.613281-3.550781-13.878906-9.664062l-56.777344-274.78125c-1.65625-8.027344 3.089844-15.4375 10.570313-16.429688l28.882812-3.824218c7.511719-.996094 14.707031 4.859374 15.984375 12.960937l43.675781 277.167969c.972656 6.164062-3.441406 11.6875-9.894531 12.433594zm0 0" fill="#fccf3f"/><path d="m218.121094 324.03125 19.066406 1.859375c6.613281.644531 12.660156-3.9375 13.585938-10.320313l41.648437-287.703124c1.222656-8.429688-4.082031-16.078126-11.804687-16.941407l-29.800782-3.34375c-7.746094-.867187-14.757812 5.414063-15.578125 13.914063l-27.957031 289.8125c-.621094 6.425781 4.210938 12.078125 10.839844 12.722656zm0 0" fill="#fccf3f"/><path d="m267.621094 345.890625 18.9375.941406c6.570312.328125 12.441406-4.4375 13.179687-10.722656l33.320313-283.230469c.976562-8.292968-4.496094-15.476562-12.171875-15.914062l-29.601563-1.691406c-7.6875-.4375-14.453125 6.054687-15.027344 14.382812l-19.714843 284.292969c-.4375 6.308593 4.5 11.613281 11.078125 11.941406zm0 0" fill="#efc03c"/><path d="m295.929688 365.710938 18.566406 2.136718c6.433594.742188 12.613281-3.550781 13.875-9.664062l56.777344-274.777344c1.660156-8.027344-3.085938-15.441406-10.566407-16.433594l-28.882812-3.824218c-7.511719-.992188-14.707031 4.859374-15.984375 12.964843l-43.679688 277.164063c-.972656 6.164062 3.441406 11.6875 9.894532 12.433594zm0 0" fill="#fccf3f"/><path d="m202.992188 355.070312h-18.921876c-6.566406 0-11.972656-5-12.132812-11.253906l-7.203125-281.679687c-.210937-8.246094 5.890625-15.035157 13.570313-15.035157h29.582031c7.675781 0 13.800781 6.789063 13.613281 15.035157l-6.40625 281.679687c-.140625 6.253906-5.535156 11.253906-12.101562 11.253906zm0 0" fill="#efc03c"/><path d="m203.800781 380.984375-17.378906 7.128906c-6.03125 2.472657-13-.011719-15.660156-5.605469l-119.601563-251.675781c-3.496094-7.359375-.636718-15.8125 6.382813-18.746093l27.0625-11.316407c7.027343-2.9375 15.363281.84375 18.5 8.367188l107.292969 257.101562c2.386718 5.710938-.5625 12.269531-6.597657 14.746094zm0 0" fill="#fccf3f"/><path d="m203.980469 425.917969-18.761719.867187c-6.511719.300782-12.238281-4.386718-12.859375-10.550781l-27.9375-277.242187c-.816406-8.105469 4.71875-15.105469 12.316406-15.507813l29.292969-1.546875c7.605469-.402344 14.179688 5.964844 14.605469 14.101562l14.523437 278.210938c.320313 6.183594-4.660156 11.371094-11.179687 11.667969zm0 0" fill="#efc03c"/><path d="m284.933594 379.425781 18.226562.816407c6.324219.285156 11.996094-4.148438 12.734375-9.972657l33.066407-261.117187c.960937-7.605469-4.253907-14.171875-11.601563-14.546875l-28.335937-1.453125c-7.359376-.375-13.863282 5.597656-14.453126 13.230468l-20.242187 262.011719c-.453125 5.84375 4.273437 10.746094 10.605469 11.03125zm0 0" fill="#efc03c"/><path d="m214.78125 421.738281 19.800781 3.121094c6.871094 1.085937 13.339844-3.558594 14.515625-10.414063l46.5-271.625c1.199219-6.988281-3.550781-13.605468-10.554687-14.707031l-26.984375-4.253906c-7.003906-1.105469-13.558594 3.730469-14.570313 10.746094l-39.316406 272.757812c-.992187 6.886719 3.734375 13.292969 10.609375 14.375zm0 0" fill="#fccf3f"/><path d="m288.664062 175.261719c-3.960937 0-7.480468 2.464843-8.898437 6.164062-12.851563 33.46875-45.28125 57.234375-83.277344 57.234375-37.992187 0-70.421875-23.765625-83.273437-57.234375-1.421875-3.699219-4.9375-6.164062-8.898438-6.164062h-87.300781c-5.898437 0-10.378906 5.320312-9.375 11.132812l53.476563 310.207031c.789062 4.566407 4.746093 7.898438 9.378906 7.898438h251.988281c4.632813 0 8.589844-3.332031 9.378906-7.898438l53.476563-310.207031c1.003906-5.816406-3.476563-11.132812-9.378906-11.132812zm0 0" fill="#fc4e51"/><path d="m375.960938 175.261719h-60.023438c5.902344 0 10.378906 5.320312 9.375 11.132812l-53.476562 310.210938c-.789063 4.5625-4.746094 7.894531-9.375 7.894531h60.023437c4.632813 0 8.589844-3.332031 9.378906-7.894531l53.476563-310.210938c1.003906-5.816406-3.476563-11.132812-9.378906-11.132812zm0 0" fill="#ea3942"/><path d="m360.578125 330.027344h-328.175781l10.382812 60.242187h307.40625zm0 0" fill="#f3e8d7"/><path d="m360.578125 330.027344h-60.027344l-10.386719 60.242187h60.027344zm0 0" fill="#e5d8c6"/><path d="m274.664062 361.941406c0 43.171875-35 78.171875-78.175781 78.171875-43.171875 0-78.171875-35-78.171875-78.171875 0-43.175781 35-78.171875 78.171875-78.171875 43.175781 0 78.175781 34.996094 78.175781 78.171875zm0 0" fill="#efa335"/><path d="m231.804688 292.207031c2.140624 7.132813 3.308593 14.691407 3.308593 22.519531 0 43.175782-35 78.171876-78.175781 78.171876-12.710938 0-24.703125-3.054688-35.3125-8.4375 9.671875 32.191406 39.523438 55.652343 74.863281 55.652343 43.175781 0 78.171875-35 78.171875-78.171875.003906-30.460937-17.433594-56.835937-42.855468-69.734375zm0 0" fill="#fd8f31"/><path d="m196.488281 276.269531c-47.238281 0-85.671875 38.433594-85.671875 85.671875 0 47.238282 38.433594 85.671875 85.671875 85.671875 47.242188 0 85.671875-38.433593 85.671875-85.671875 0-47.238281-38.429687-85.671875-85.671875-85.671875zm0 156.34375c-38.96875 0-70.671875-31.703125-70.671875-70.671875s31.703125-70.671875 70.671875-70.671875c38.972657 0 70.675781 31.703125 70.675781 70.671875s-31.703124 70.671875-70.675781 70.671875zm0 0"/><path d="m375.960938 167.765625h-.585938l17.117188-82.84375c1.261718-6.101563.011718-12.378906-3.429688-17.21875-3.222656-4.539063-8.019531-7.4375-13.5-8.164063l-28.882812-3.824218c-2.171876-.289063-4.335938-.203125-6.429688.191406l.253906-2.152344c.734375-6.246094-1.0625-12.476562-4.933594-17.085937-3.625-4.320313-8.6875-6.875-14.257812-7.191407l-21.386719-1.222656c.703125-6.074218-.929687-12.183594-4.539062-16.855468-3.472657-4.492188-8.421875-7.308594-13.933594-7.925782l-29.800781-3.34375c-5.507813-.621094-10.980469 1.019532-15.410156 4.613282-4.773438 3.871093-7.859376 9.714843-8.472657 16.03125l-2.710937 28.101562c-.71875-1.066406-1.527344-2.070312-2.429688-2.992188-3.960937-4.050781-9.195312-6.28125-14.742187-6.28125h-29.582031c-3.933594 0-7.695313 1.140626-10.96875 3.238282l-2.128907-22.066406c-.609375-6.316407-3.699219-12.160157-8.472656-16.03125-4.425781-3.59375-9.894531-5.230469-15.410156-4.613282l-29.800781 3.34375c-5.511719.617188-10.460938 3.433594-13.933594 7.925782-3.609375 4.671874-5.242188 10.78125-4.539063 16.855468l-21.386719 1.222656c-5.566406.316407-10.632812 2.871094-14.257812 7.191407-3.871094 4.609375-5.667969 10.839843-4.933594 17.085937l.253906 2.15625c-2.09375-.394531-4.253906-.484375-6.429687-.195312l-28.882813 3.824218c-5.480468.726563-10.273437 3.625-13.5 8.164063-3.441406 4.839844-4.691406 11.117187-3.429687 17.21875l17.117187 82.84375h-.585937c-5.027344 0-9.769531 2.203125-13.011719 6.050781-3.242187 3.847656-4.609375 8.898438-3.753906 13.851563l53.476562 310.210937c1.414063 8.183594 8.464844 14.121094 16.769532 14.121094h251.988281c8.304687 0 15.355469-5.9375 16.765625-14.121094l53.480469-310.210937c.855469-4.953125-.515625-10.003907-3.753907-13.851563-3.242187-3.847656-7.984374-6.050781-13.015624-6.050781zm-37.898438-93.230469c1.425781-2.65625 4.105469-4.296875 6.652344-3.949218l28.882812 3.820312c1.671875.222656 2.683594 1.199219 3.238282 1.984375 1.035156 1.457031 1.390624 3.460937.96875 5.496094l-17.742188 85.875h-10.964844l7.300782-57.664063c.738281-5.808594-.925782-11.632812-4.5625-15.976562-3.539063-4.234375-8.546876-6.722656-14.09375-7.007813l-1.15625-.058593zm-10.230469 27.089844 9.144531.46875c1.707032.089844 2.769532.949219 3.359376 1.652344.980468 1.171875 1.398437 2.757812 1.183593 4.464844l-7.542969 59.554687h-35.039062l4.054688-23.679687c.839843-4.902344-.144532-9.816407-2.730469-14.003907l1.785156-23.121093c.171875-2.246094 1.410156-4.222657 3.125-5.347657 1.027344-.671875 2.226563-1.039062 3.46875-.96875l19.179687.980469zm-37.238281-58.863281c.097656.003906.195312-.003907.296875.003906h.003906l29.566407 1.683594c1.789062.105469 2.960937 1.070312 3.625 1.859375 1.222656 1.460937 1.777343 3.535156 1.523437 5.691406l-2.300781 19.585938s-.003906.003906-.003906.007812l-1.726563 14.691406-12.171875-.621094c-11.414062-.585937-21.414062 8.449219-22.316406 20.140626l-1.148438 14.855468-7.015625-1.105468 4.8125-69.378907c.28125-4.117187 3.40625-7.441406 6.855469-7.414062zm-2.386719 98.792969-4.617187 26.972656c-4.890625 1.515625-8.898438 5.195312-10.824219 10.210937-5.859375 15.257813-16.0625 28.296875-29.507813 37.710938-1.441406 1.007812-2.910156 1.953125-4.402343 2.859375l12.058593-83.632813c.199219-1.394531.933594-2.621093 2.066407-3.453125 1.132812-.839844 2.519531-1.175781 3.910156-.957031l12.792969 2.015625c.003906 0 .011718 0 .019531.003906l14.171875 2.234375c1.390625.21875 2.609375.96875 3.429688 2.113281.820312 1.144532 1.140624 2.535157.902343 3.921876zm-62.246093 54.179687 16.738281-173.519531c.230469-2.34375 1.316406-4.464844 2.992187-5.824219.90625-.734375 2.394532-1.570313 4.289063-1.355469l29.804687 3.339844c1.847656.207031 3.050782 1.308594 3.730469 2.191406 1.277344 1.652344 1.820313 3.921875 1.484375 6.226563l-.261719 1.804687c-.125.039063-.246093.085938-.371093.125-.15625.050782-.3125.105469-.464844.160156-.46875.160157-.933594.335938-1.386719.53125-.117187.046876-.234375.097657-.351563.152344-.886718.394532-1.742187.847656-2.566406 1.359375-.074218.042969-.144531.089844-.21875.136719-.511718.328125-1.015625.675781-1.5 1.046875-.042968.03125-.085937.058594-.128906.09375-.261719.199219-.515625.40625-.765625.617187-.054687.046876-.109375.09375-.164063.140626-.429687.371093-.84375.753906-1.246093 1.15625-.101563.101562-.199219.199218-.300781.304687-.203126.210937-.410157.425781-.605469.648437-.214844.242188-.425781.488282-.628907.738282-.191406.234375-.375.46875-.558593.707031-.136719.183594-.269531.371094-.40625.558594-.171875.242187-.34375.492187-.511719.746093-.1875.289063-.371094.582032-.546875.878907-.109375.183593-.214844.367187-.316406.554687-.1875.335938-.367188.675782-.539063 1.023438-.078125.164062-.160156.332031-.234375.5-.164062.351562-.320312.710937-.46875 1.074218-.058593.148438-.117187.292969-.175781.441407-.171875.453125-.332031.914062-.480469 1.378906-.035156.113281-.066406.230469-.097656.347656-.128906.425781-.242187.859375-.347656 1.300781-.019531.09375-.046875.1875-.066407.285157-.113281.507812-.207031 1.023437-.289062 1.542969-.015625.117187-.035156.238281-.050781.355468-.074219.539063-.136719 1.085938-.175781 1.636719l-4.71875 68.070313-4.832032-.757813c-5.382812-.855469-10.765625.464844-15.148437 3.699219-4.386719 3.238281-7.230469 7.992187-8.007813 13.386718l-10.316406 71.574219zm-51.65625-139.371094c.78125-.804687 2.109374-1.761719 4-1.761719h29.582031c1.890625 0 3.226562.960938 4.015625 1.769532 1.382812 1.414062 2.148437 3.453125 2.101562 5.59375l-2.953125 129.726562-2.925781-56.039062c-.304688-5.84375-2.75-11.261719-6.882812-15.257813-4.285157-4.140625-9.820313-6.253906-15.609376-5.945312l-12.042968.636719-.253906-9.84375s0 0 0-.003907l-1.105469-43.292969c-.054688-2.140624.703125-4.175781 2.074219-5.582031zm12.121093 73.0625c2.117188-.097656 3.664063 1.050781 4.390625 1.753907 1.398438 1.347656 2.226563 3.214843 2.332032 5.253906l4.941406 94.695312c-.53125.007813-1.066406.027344-1.601563.027344-12.65625 0-24.933593-2.871094-36.085937-8.378906l-8.519532-84.535156c-.207031-2.039063.363282-4.011719 1.5625-5.410157.683594-.792969 1.875-1.761719 3.6875-1.859375zm-76.964843-108.859375c.683593-.886718 1.886718-1.984375 3.734374-2.191406l29.800782-3.339844c1.902344-.214844 3.382812.621094 4.292968 1.355469 1.671876 1.359375 2.761719 3.480469 2.988282 5.824219l8.070312 83.671875.257813 9.992187-2.265625.117188c-5.550782.296875-10.621094 2.808594-14.28125 7.074218-3.855469 4.5-5.714844 10.574219-5.101563 16.675782l4.125 40.921875-9.304687-22.296875-7.574219-109.230469c-.039063-.550781-.101563-1.09375-.175781-1.632813-.015625-.121093-.035156-.238281-.050782-.359374-.082031-.519532-.175781-1.035157-.289062-1.546876-.019531-.085937-.042969-.175781-.0625-.261718-.105469-.453125-.222656-.894532-.351562-1.335938-.03125-.101562-.0625-.210937-.09375-.3125-.148438-.480468-.3125-.949218-.492188-1.414062-.046875-.125-.097656-.25-.148438-.375-.164062-.410156-.339843-.8125-.523437-1.207032-.035156-.078124-.066406-.15625-.105469-.226562-.207031-.4375-.433594-.859375-.667968-1.273438-.074219-.136718-.152344-.273437-.230469-.410156-.238281-.402344-.484375-.800781-.742188-1.183594-.070312-.105468-.144531-.207031-.21875-.3125-.214843-.3125-.4375-.617187-.667969-.914062-.09375-.125-.191406-.25-.285156-.371094-.285156-.355468-.578125-.699218-.882812-1.035156-.101563-.113281-.207032-.222656-.3125-.335938-.265625-.28125-.53125-.550781-.808594-.8125-.082031-.082031-.164062-.164062-.25-.246093-.339844-.316407-.6875-.617188-1.046875-.914063-.109375-.089844-.21875-.175781-.332031-.265625-.371094-.296875-.753906-.582031-1.140625-.855469-.050781-.03125-.101563-.0625-.148438-.09375-.378906-.257812-.765625-.503906-1.160156-.734374-.082031-.050782-.164063-.097657-.246094-.144532-.433593-.253906-.878906-.488281-1.332031-.707031-.050781-.027344-.105469-.050781-.15625-.074219-.472656-.222656-.949219-.433594-1.4375-.621094 0-.003906-.003906-.003906-.007812-.003906-.503907-.195312-1.019532-.371094-1.542969-.527344-.019531-.003906-.035157-.011718-.050781-.019531l-.265626-1.820312c-.332031-2.304688.207032-4.574219 1.484376-6.226563zm-40.566407 25.742188c.664063-.789063 1.832031-1.757813 3.625-1.855469l29.582031-1.691406h.019532c.035156 0 .074218.003906.109375 0 3.515625-.105469 6.722656 3.234375 7.011719 7.414062l4.507812 64.992188-3.722656-8.921875c-2.253906-5.394532-6.378906-9.675782-11.621094-12.046875-.648438-.296875-1.308594-.550781-1.972656-.78125-.039063-.011719-.078125-.027344-.117188-.042969-.640625-.214844-1.28125-.390625-1.929687-.546875-.0625-.011719-.128907-.03125-.191407-.046875-.632812-.144531-1.265624-.25-1.902343-.335938-.078125-.011718-.160157-.023437-.238281-.03125-.625-.074218-1.253907-.121093-1.878907-.136718-.089843 0-.175781-.003906-.261719-.007813-.105468 0-.210937-.007812-.3125-.007812-.332031 0-.660156.03125-.992187.046875-.28125.015625-.566406.019531-.847656.042968-.421875.039063-.839844.109376-1.261719.171876-.261719.042968-.527344.066406-.789062.117187-.457032.09375-.910157.214844-1.367188.335937-.214844.058594-.433594.101563-.652344.164063-.667968.203125-1.328125.4375-1.980468.710937l-8.976563 3.753907-1.355469-11.511719-4.011718-34.089844c-.25-2.160156.304687-4.234375 1.527343-5.695312zm-8.460937 72.695312 4.441406-1.859375 4.464844-1.863281h.003906l18.15625-7.59375c1.960938-.816406 3.800781-.242188 4.722656.171875 1.769532.804687 3.175782 2.28125 3.964844 4.164063l37.347656 89.496093c-5.613281-6.78125-10.117187-14.445312-13.316406-22.78125-2.558594-6.667969-8.800781-10.976562-15.902344-10.976562h-27.300781l-19.078125-40.148438c-.878906-1.851562-1.007812-3.898437-.347656-5.621093.136718-.367188.339844-.78125.621094-1.191407.472656-.683593 1.175781-1.359375 2.222656-1.796875zm-45.257813-37.117187c-.421875-2.035157-.070312-4.039063.964844-5.496094.558594-.78125 1.570313-1.761719 3.242187-1.980469l28.882813-3.824218c2.539063-.332032 5.222656 1.296874 6.652344 3.953124l1.585937 13.464844 1.835938 15.617188-3.691406 1.546875c-5.128907 2.144531-9.058594 6.214843-11.066407 11.464843-2.121093 5.535157-1.824219 11.882813.808594 17.417969l16.019531 33.714844h-27.492187zm362.773438 103.234375-23.6875 137.40625h-49.050781c-4.140626 0-7.5 3.355468-7.5 7.5 0 4.140625 3.359374 7.5 7.5 7.5h46.464843l-7.800781 45.242187h-37.675781c-4.144531 0-7.5 3.355469-7.5 7.5s3.355469 7.5 7.5 7.5h35.089843l-16.816406 97.558594c-.167968.96875-1.003906 1.671875-1.988281 1.671875h-251.988281c-.984375 0-1.820313-.703125-1.988282-1.671875l-16.816406-97.558594h35.089844c4.140625 0 7.5-3.355469 7.5-7.5s-3.359375-7.5-7.5-7.5h-37.675781l-7.800781-45.242187h46.695312c4.140625 0 7.5-3.359375 7.5-7.5 0-4.144532-3.359375-7.5-7.5-7.5h-49.28125l-23.6875-137.40625c-.132812-.765625.167969-1.3125.445312-1.640625.273438-.328125.765626-.71875 1.542969-.71875h87.296875c.839844 0 1.582032.53125 1.898438 1.351562 6.933594 18.058594 19.003906 33.488281 34.910156 44.621094 16.277344 11.398437 35.425781 17.421875 55.367188 17.421875 1.023437 0 2.058593-.023438 3.105468-.058594.488282-.015625.980469-.035156 1.472656-.058594.429688-.023437.863282-.046874 1.296876-.074218 4.5625-.273438 9.066406-.859375 13.496093-1.761719.015625-.003906.027344-.003906.039063-.007813 12.855468-2.617187 25.050781-7.828124 35.953125-15.460937 15.90625-11.132813 27.976562-26.5625 34.910156-44.621094.316406-.820312 1.0625-1.351562 1.898437-1.351562h87.300782c.773437 0 1.265625.390625 1.539062.714843.277344.332032.574219.878907.445313 1.644532zm0 0"/></svg>