<svg viewBox="-113 0 512 512" xmlns="http://www.w3.org/2000/svg"><path d="m277.980469 243.339844c0-121.925782.003906-123.265625.003906-124.621094 0-21.089844-17.097656-38.1875-38.191406-38.1875-.089844 0-.179688.003906-.269531.003906.171874-1.464844.269531-2.957031.269531-4.472656 0-21.089844-17.097657-38.191406-38.191407-38.191406-5.078124 0-9.921874 1-14.355468 2.800781-4.433594-1.800781-9.273438-2.800781-14.355469-2.800781-4.578125 0-8.964844.808594-13.035156 2.285156-2.679688-18.46875-18.574219-32.65625-37.785157-32.65625-17.621093 0-32.449218 11.9375-36.851562 28.164062-4.046875-1.457031-8.40625-2.257812-12.953125-2.257812-21.09375 0-38.191406 17.097656-38.191406 38.191406 0 3.578125.503906 7.035156 1.421875 10.316406-16.140625 4.464844-28 19.246094-28 36.804688 0 1.359375.003906 2.683594.003906 124.621094zm0 0" fill="#a0e557"/><path d="m239.792969 80.53125c-.089844 0-.179688.003906-.269531.003906.171874-1.464844.269531-2.957031.269531-4.472656 0-14.109375-7.65625-26.421875-19.039063-33.035156v200.3125h57.226563c0-112.402344 0-122.320313.003906-124.246094 0-.160156 0-.269531 0-.375 0-21.089844-17.101563-38.1875-38.191406-38.1875zm0 0" fill="#93cc4a"/><path d="m242.554688 173.222656c0 53.089844-43.035157 96.125-96.125 96.125-53.089844 0-96.128907-43.035156-96.128907-96.125s43.039063-96.128906 96.128907-96.128906c53.089843 0 96.125 43.039062 96.125 96.128906zm0 0" fill="#fccf3f"/><path d="m147.9375 152.136719c0-45.4375-24.3125-82.269531-54.304688-82.269531-29.992187 0-54.304687 36.832031-54.304687 82.269531 0 45.433593 24.3125 82.265625 54.304687 82.265625 29.992188 0 54.304688-36.832032 54.304688-82.265625zm0 0" fill="#fc4e51"/><path d="m93.632812 69.867188c-1.125 0-2.246093.070312-3.355468.171874v164.191407c1.109375.101562 2.230468.171875 3.355468.171875 29.992188 0 54.304688-36.832032 54.304688-82.265625 0-45.4375-24.3125-82.269531-54.304688-82.269531zm0 0" fill="#ea3942"/><path d="m255.035156 200.71875c0-45.4375-24.3125-82.269531-54.304687-82.269531-29.992188 0-54.304688 36.832031-54.304688 82.269531 0 45.433594 24.3125 82.265625 54.304688 82.265625 29.992187 0 54.304687-36.832031 54.304687-82.265625zm0 0" fill="#fc4e51"/><path d="m200.730469 118.449219c-1.199219 0-2.386719.082031-3.566407.199219v164.140624c1.179688.117188 2.367188.195313 3.566407.195313 29.992187 0 54.304687-36.832031 54.304687-82.265625 0-45.4375-24.3125-82.269531-54.304687-82.269531zm0 0" fill="#ea3942"/><path d="m231.234375 504.5c25.820313 0 46.75-19.15625 46.75-42.78125v-327.933594c-134.863281 52.742188-230.761719 185.335938-260.628906 319.175782-5.9375 26.601562 16.09375 51.539062 45.761719 51.539062zm0 0" fill="#efa335"/><path d="m277.984375 133.785156c-19.960937 7.808594-39.0625 17.375-57.230469 28.425782v299.507812c0 23.628906-20.929687 42.78125-46.746094 42.78125h57.226563c25.820313 0 46.75-19.152344 46.75-42.78125zm0 0" fill="#fd8f31"/><path d="m231.234375 504.5c25.820313 0 46.75-19.15625 46.75-42.78125v-82.949219c0-100.5625-77.929687-196.367187-173.980469-214.773437-15.4375-2.957032-30.59375-7.003906-45.195312-12.457032-13.644532-5.09375-30.957032-19.726562-51.308594-29.992187v340.171875c0 23.625 20.929688 42.78125 46.746094 42.78125zm0 0" fill="#fccf3f"/><path d="m220.753906 461.71875c0 23.625-20.929687 42.78125-46.746094 42.78125h57.226563c25.820313 0 46.75-19.15625 46.75-42.78125v-82.949219c0-53.53125-22.085937-105.710937-57.230469-145.589843zm0 0" fill="#efa335"/><path d="m285.480469 118.71875c0-22.660156-16.582031-41.523438-38.253907-45.082031-1.265624-24.070313-21.246093-43.265625-45.625-43.265625-4.914062 0-9.730468.777344-14.355468 2.3125-4.625-1.535156-9.441406-2.3125-14.355469-2.3125-2.550781 0-5.074219.210937-7.5625.625-6.195313-18.136719-23.539063-30.996094-43.257813-30.996094-18.039062 0-34.203124 10.65625-41.539062 26.65625-2.714844-.5-5.476562-.75-8.265625-.75-25.191406 0-45.691406 20.496094-45.691406 45.691406 0 1.828125.113281 3.65625.332031 5.472656-16.132812 7.289063-26.90625 23.542969-26.90625 41.648438 0 .496094.0507812.980469.144531 1.453125-.0859372.449219-.144531.90625-.144531 1.378906v43.933594c0 4.144531 3.359375 7.5 7.5 7.5s7.496094-3.359375 7.496094-7.5v-31.226563c5.175781 3.085938 10.160156 6.332032 15.050781 9.511719 6.867187 4.472657 13.074219 8.507813 18.945313 11.550781.0625.03125.121093.0625.183593.09375.746094.382813 1.484375.753907 2.21875 1.101563.039063.019531.078125.039063.117188.058594.710937.335937 1.414062.652343 2.113281.953125.15625.070312.3125.132812.46875.199218.699219.296876 1.394531.578126 2.089844.839844 3 1.121094 6.078125 2.1875 9.195312 3.214844 1.882813.621094 3.78125 1.226562 5.707032 1.816406.5625.171875 1.117187.351563 1.683593.523438.785157.234375 1.585938.453125 2.378907.683594 1.125.324218 2.246093.65625 3.382812.96875.261719.074218.53125.140624.796875.210937 7.507813 2.046875 15.273437 3.851563 23.261719 5.382813 1.589844.304687 3.175781.632812 4.757812.984374.398438.089844.796875.183594 1.195313.277344 1.203125.273438 2.40625.558594 3.605469.859375.4375.109375.867187.222657 1.300781.335938 1.195312.308593 2.390625.628906 3.582031.964843.390625.109376.777344.21875 1.164062.328126 1.296876.375 2.589844.765624 3.882813 1.167968.273437.085938.542969.167969.816406.253906 4.789063 1.523438 9.550781 3.257813 14.269531 5.195313.332032.136719.664063.277344.996094.417969 1.164063.484375 2.328125.984375 3.492188 1.496094 33.3125 14.699218 62.804687 39.050781 85.132812 68.953124.042969.054688.082032.113282.125.167969 1.375 1.847657 2.71875 3.722657 4.039063 5.609375.511719.730469 1.023437 1.460938 1.523437 2.199219.472656.691406.9375 1.386719 1.398438 2.082031.925781 1.390625 1.84375 2.785156 2.738281 4.195313.085937.140625.179687.277343.269531.417969 18.988282 30.105468 30.765625 64.292968 33.152344 98.613281v.015625c.132812 1.910156.226562 3.816406.296875 5.722656.019531.4375.035156.871094.050781 1.308594.0625 1.945312.101563 3.890625.101563 5.835937v20.804688c0 4.144531 3.359375 7.5 7.5 7.5s7.496093-3.355469 7.496093-7.5v-265.789063c0-.019531 0-.035156 0-.054687zm-145.925781 47.789062c-8.363282-3.253906-16.882813-5.9375-25.519532-8.011718-.15625-.035156-.308594-.070313-.464844-.105469-1.265624-.300781-2.535156-.59375-3.808593-.871094-1.007813-.21875-2.015625-.417969-3.023438-.617187-.441406-.085938-.882812-.183594-1.324219-.269532-11.125-2.132812-21.78125-4.808593-31.847656-7.972656-.59375-.183594-1.199218-.363281-1.789062-.554687-.019532-.007813-.042969-.011719-.0625-.019531-3.503906-1.132813-6.9375-2.324219-10.285156-3.574219-.007813-.003907-.023438-.007813-.035157-.015625-.457031-.167969-.921875-.359375-1.394531-.554688-.152344-.0625-.304688-.132812-.457031-.199218-.347657-.148438-.695313-.304688-1.050781-.46875-.164063-.078126-.332032-.15625-.5-.234376-.371094-.175781-.742188-.359374-1.117188-.546874-.144531-.070313-.285156-.140626-.429688-.214844-.511718-.257813-1.023437-.527344-1.546874-.804688-.113282-.0625-.230469-.128906-.34375-.191406-.410157-.222656-.820313-.445312-1.234376-.679688-.222656-.125-.445312-.25-.667968-.378906-.316406-.179687-.632813-.363281-.953125-.546875-.234375-.140625-.472657-.277343-.710938-.417969-.332031-.195312-.660156-.394531-.992187-.59375-.210938-.125-.417969-.25-.628906-.375-.527344-.320312-1.058594-.644531-1.589844-.972656 4.402344-34.484375 23.628906-59.949218 45.855468-59.949218 7.578126 0 14.953126 2.992187 21.59375 8.609374.195313.191407.402344.371094.617188.542969 3.558594 3.117188 6.898438 6.980469 9.929688 11.574219 9.457031 14.324219 14.664062 33.515625 14.664062 54.039062 0 4.847657-.292969 9.652344-.882812 14.375zm-1.261719-76.675781c-1.035157-1.566406-2.105469-3.070312-3.203125-4.511719 3.75-.476562 7.535156-.726562 11.335937-.726562 18.167969 0 35.621094 5.453125 50.480469 15.769531 4.984375 3.457031 9.546875 7.386719 13.667969 11.703125-3.21875-.730468-6.507813-1.117187-9.84375-1.117187-14.136719 0-27.90625 6.980469-38.769531 19.648437-2.546876 2.972656-4.90625 6.199219-7.066407 9.652344-1.699219-18.949219-7.4375-36.535156-16.601562-50.417969zm42.546875 90.695313c-1.523438 1.171875-3.046875 2.347656-4.558594 3.542968-.257812.203126-.515625.394532-.769531.597657-6.035157-3.796875-12.207031-7.273438-18.5-10.417969 6.902343-28.710938 24.382812-48.300781 43.71875-48.300781 11.941406 0 23.363281 7.4375 32.085937 20.660156-.238281.128906-.46875.265625-.707031.394531-2.058594 1.128906-4.113281 2.273438-6.15625 3.445313-.433594.246093-.863281.496093-1.296875.746093-1.976562 1.140626-3.949219 2.300782-5.910156 3.480469-.433594.257813-.863282.519531-1.292969.777344-2 1.214844-3.992187 2.445313-5.976563 3.699219-.367187.230468-.734374.457031-1.097656.6875-2.121094 1.347656-4.234375 2.722656-6.339844 4.113281-.214843.144531-.433593.28125-.644531.425781-6.988281 4.644532-13.871093 9.535156-20.640625 14.675782-.640625.484374-1.273437.980468-1.914062 1.472656zm89.644531 119.914062c-6.304687-16.25-14.535156-31.988281-24.542969-46.863281-.046875-.066406-.089844-.132813-.132812-.199219-1.140625-1.6875-2.296875-3.367187-3.484375-5.035156-.058594-.082031-.113281-.167969-.175781-.25-1.101563-1.550781-2.230469-3.089844-3.375-4.621094-.542969-.726562-1.097657-1.441406-1.648438-2.160156-.566406-.742188-1.136719-1.484375-1.714844-2.21875-.683594-.875-1.375-1.746094-2.070312-2.613281-.171875-.210938-.332032-.421875-.503906-.628907-.285157-.355468-.578126-.695312-.863282-1.046874-.753906-.917969-1.507812-1.835938-2.273437-2.742188-.390625-.460938-.785157-.910156-1.175781-1.367188-1.261719-1.46875-2.535157-2.921874-3.828126-4.359374-.742187-.824219-1.480468-1.648438-2.230468-2.457032-.5-.542968-1.003906-1.078125-1.511719-1.613281-.984375-1.046875-1.976563-2.082031-2.972656-3.109375-.296875-.300781-.589844-.605469-.886719-.90625-8.972656-9.113281-18.535156-17.378906-28.570312-24.726562.167968-.132813.335937-.257813.503906-.386719 1.265625-.976563 2.53125-1.941407 3.800781-2.902344.742187-.558594 1.488281-1.109375 2.234375-1.660156.703125-.523438 1.410156-1.046875 2.117188-1.566407.863281-.632812 1.730468-1.261718 2.597656-1.886718.5625-.402344 1.125-.804688 1.6875-1.203125.964844-.691407 1.9375-1.378907 2.910156-2.058594.367188-.257813.742188-.511719 1.113281-.769531 5.0625-3.507813 10.183594-6.886719 15.359375-10.117188.199219-.125.398438-.25.597656-.375 1.242188-.773437 2.488282-1.539062 3.738282-2.292968.191406-.117188.382812-.234376.574218-.351563 5.414063-3.265625 10.882813-6.382813 16.398438-9.339844.109375-.058593.214844-.117187.324219-.175781 1.292969-.691406 2.589843-1.375 3.886719-2.046875 7.9375-4.125 15.976562-7.945313 24.117187-11.429687zm-.003906-171.71875c-8.191407 3.339844-16.296875 6.992188-24.296875 10.949219-1.191406-1.878906-2.425782-3.675781-3.710938-5.382813-7.585937-18.703124-20.351562-34.679687-37.011718-46.246093-17.382813-12.070313-37.796876-18.449219-59.035157-18.449219-8.144531 0-16.234375.953125-24.101562 2.828125-8.703125-6.574219-18.472657-10.054687-28.691407-10.054687-15.660156 0-30.542968 8.371093-41.90625 23.566406-8.574218 11.460937-14.695312 26.257812-17.722656 42.523437-5.871094-3.792969-12.222656-7.777343-18.9375-11.40625.71875-13.058593 9.722656-24.394531 22.429688-27.90625 1.921875-.53125 3.550781-1.804687 4.53125-3.542969.980468-1.734374 1.230468-3.789062.691406-5.707031-.757812-2.714843-1.144531-5.503906-1.144531-8.296875 0-16.925781 13.769531-30.691406 30.691406-30.691406 3.570313 0 7.074219.609375 10.410156 1.8125 1.96875.707031 4.144531.5625 6.003907-.402344 1.859374-.96875 3.226562-2.667968 3.773437-4.6875 3.617187-13.324218 15.796875-22.632812 29.617187-22.632812 15.140626 0 28.191407 11.28125 30.363282 26.238281.324218 2.230469 1.636718 4.199219 3.570312 5.359375 1.9375 1.15625 4.289063 1.382812 6.410156.613281 3.355469-1.21875 6.878907-1.835937 10.476563-1.835937 3.976563 0 7.859375.757812 11.535156 2.25 1.808594.734375 3.832031.734375 5.640625 0 3.675782-1.492188 7.558594-2.25 11.535156-2.25 16.921876 0 30.691407 13.769531 30.691407 30.691406 0 1.164062-.070313 2.339844-.21875 3.601562-.25 2.136719.429687 4.273438 1.859375 5.871094 1.421875 1.59375 3.457031 2.5 5.589844 2.5.113281 0 .226562-.003906.351562-.007812 16.886719.046875 30.605469 13.796875 30.605469 30.691406zm0 0"/><path d="m277.984375 426.976562c-4.144531 0-7.5 3.359376-7.5 7.5v27.242188c0 19.453125-17.605469 35.28125-39.25 35.28125h-176.988281c-21.640625 0-39.246094-15.828125-39.246094-35.28125v-261.378906c0-4.144532-3.359375-7.5-7.5-7.5s-7.5 3.355468-7.5 7.5v261.378906c0 27.722656 24.335938 50.28125 54.25 50.28125h176.984375c29.914063 0 54.25-22.558594 54.25-50.28125v-27.242188c-.003906-4.140624-3.359375-7.5-7.5-7.5zm0 0"/></svg>