<svg height="512pt" viewBox="-113 0 512 512.00013" width="512pt" xmlns="http://www.w3.org/2000/svg"><path d="m143.15625 504.554688c-8.980469 0-16.984375-5.667969-19.96875-14.144532l-91.183594-259.207031h222.304688l-91.183594 259.207031c-2.980469 8.476563-10.984375 14.144532-19.96875 14.144532zm0 0" fill="#ff9838"/><path d="m247.125 231.203125c.050781 1.164063.03125 2.414063-.066406 3.765625-.832032 11.578125-8.96875 20.933594-19.453125 24.039062-10.558594 3.125-18.777344 11.460938-22.429688 21.847657l-73.71875 209.554687c-.929687 2.644532-2.347656 5.015625-4.132812 7.027344 3.9375 4.433594 9.652343 7.117188 15.835937 7.117188 8.980469 0 16.984375-5.667969 19.964844-14.140626l91.183594-259.207031h-7.183594zm0 0" fill="#ff8709"/><path d="m273.070312 216.289062c-4.6875-6.003906-7.433593-13.296874-7.363281-20.917968l.09375-10.765625c0-67.734375-54.910156-122.640625-122.644531-122.640625s-122.640625 54.90625-122.640625 122.640625l.09375 10.765625c.066406 7.621094-2.675781 14.914062-7.363281 20.917968-3.96875 5.085938-6.164063 11.621094-5.65625 18.679688.949218 13.238281 11.636718 24 24.871094 25.035156 10.777343.84375 20.355468-4.613281 25.445312-13.082031 1.792969-2.976563 6.09375-2.886719 7.78125.152344 3.59375 6.472656 10.394531 13.015625 23.210938 13.015625 12.890624 0 19.675781-6.453125 23.234374-12.878906 1.730469-3.128907 6.148438-3.140626 7.890626-.023438 3.601562 6.433594 10.390624 12.902344 23.132812 12.902344 9.894531 0 18.554688-5.300782 23.292969-13.214844 1.765625-2.953125 6.070312-2.769531 7.738281.234375 3.589844 6.460937 10.390625 12.980469 23.226562 12.980469 12.519532 0 19.355469-6.832032 23.039063-13.441406 1.675781-3.003907 6.015625-3.058594 7.742187-.085938 5.035157 8.667969 14.730469 14.292969 25.65625 13.441406 13.234376-1.035156 23.921876-11.796875 24.875-25.039062.507813-7.054688-1.6875-13.589844-5.65625-18.675782zm0 0" fill="#fef1da"/><path d="m273.070312 216.289062c-4.6875-6.003906-7.433593-13.296874-7.363281-20.917968l.09375-10.765625c0-33.890625-13.746093-64.570313-35.964843-86.765625 2.800781 10.292968 4.296874 21.125 4.296874 32.304687.644532 6.40625-3.003906 18.519531 7.269532 31.683594 3.96875 5.082031 6.164062 11.617187 5.65625 18.679687-.625 8.71875-5.472656 16.363282-12.492188 20.859376 2.886719 15.578124 13.699219 16.824218 12.492188 33.601562-.59375 8.308594-4.953125 15.472656-11.246094 20.003906 5.003906 3.613282 11.289062 5.558594 18.042969 5.03125 13.234375-1.035156 23.917969-11.792968 24.871093-25.035156.507813-7.058594-1.6875-13.59375-5.65625-18.679688zm0 0" fill="#fde6bf"/><path d="m273.070312 161.828125c-4.6875-6.007813-7.433593-13.296875-7.363281-20.917969l.09375-10.765625c0-67.734375-54.910156-122.644531-122.644531-122.644531s-122.640625 54.910156-122.640625 122.644531l.09375 10.765625c.066406 7.621094-2.675781 14.910156-7.363281 20.917969-3.96875 5.082031-6.164063 11.621094-5.65625 18.679687.949218 13.238282 11.636718 24 24.871094 25.035157 10.777343.84375 20.355468-4.617188 25.445312-13.082031 1.792969-2.980469 6.09375-2.886719 7.78125.152343 3.59375 6.472657 10.394531 13.015625 23.210938 13.015625 12.890624 0 19.675781-6.453125 23.234374-12.882812 1.730469-3.125 6.148438-3.136719 7.890626-.019532 3.601562 6.433594 10.390624 12.902344 23.132812 12.902344 9.894531 0 18.554688-5.300781 23.292969-13.21875 1.765625-2.949218 6.070312-2.765625 7.738281.238282 3.589844 6.460937 10.390625 12.976562 23.226562 12.976562 12.519532 0 19.355469-6.832031 23.039063-13.4375 1.675781-3.003906 6.015625-3.0625 7.742187-.085938 5.035157 8.667969 14.730469 14.292969 25.65625 13.4375 13.234376-1.035156 23.921876-11.796874 24.875-25.035156.507813-7.058594-1.6875-13.59375-5.65625-18.675781zm0 0" fill="#cc98e8"/><path d="m273.070312 161.828125c-4.6875-6.007813-7.433593-13.296875-7.363281-20.917969l.09375-10.765625c0-67.734375-54.910156-122.644531-122.644531-122.644531-5.363281 0-10.648438.347656-15.832031 1.015625 60.253906 7.765625 106.808593 59.257813 106.808593 121.628906.644532 6.40625-3.007812 18.519531 7.269532 31.683594 3.96875 5.082031 6.164062 11.617187 5.65625 18.679687-.589844 8.1875-4.902344 15.429688-11.242188 20.007813 5.003906 3.609375 11.285156 5.554687 18.039063 5.027344 13.234375-1.035157 23.917969-11.796875 24.871093-25.035157.507813-7.0625-1.6875-13.597656-5.65625-18.679687zm0 0" fill="#bf80e2"/><g fill="#fef1da"><path d="m105.039062 138.992188c0 11.066406-8.96875 20.03125-20.03125 20.03125s-20.03125-8.964844-20.03125-20.03125c0-11.0625 8.96875-20.027344 20.03125-20.027344s20.03125 8.964844 20.03125 20.027344zm0 0"/><path d="m201.023438 77.769531c0 11.0625-8.96875 20.03125-20.03125 20.03125s-20.03125-8.96875-20.03125-20.03125 8.96875-20.03125 20.03125-20.03125 20.03125 8.96875 20.03125 20.03125zm0 0"/><path d="m251.988281 165.804688c7.238281 0 13.800781-2.871094 18.625-7.535157-3.175781-5.230469-4.964843-11.1875-4.910156-17.359375l.097656-10.765625c0-4.953125-.304687-9.835937-.875-14.632812-3.835937-2.117188-8.246093-3.328125-12.9375-3.328125-14.808593 0-26.8125 12.003906-26.8125 26.8125 0 14.804687 12.003907 26.808594 26.8125 26.808594zm0 0"/></g><path d="m270.613281 158.269531c-3.175781-5.230469-4.964843-11.1875-4.90625-17.359375l.09375-10.765625c0-4.90625-.289062-9.746093-.847656-14.5-.011719-.042969-.019531-.089843-.027344-.132812-3.835937-2.117188-8.246093-3.328125-12.9375-3.328125-7.085937 0-13.527343 2.746094-18.320312 7.230468.308593 3.535157.464843 7.113282.464843 10.730469.644532 6.40625-3.007812 18.519531 7.269532 31.683594.617187.792969 1.191406 1.617187 1.722656 2.476563 2.773438.972656 5.753906 1.5 8.863281 1.5 7.238281 0 13.800781-2.871094 18.625-7.535157zm0 0" fill="#fde6bf"/><path d="m48.785156 51.816406c5.351563 8.671875 14.933594 14.453125 25.871094 14.453125 16.777344 0 30.382812-13.605469 30.382812-30.386719 0-7.519531-2.738281-14.398437-7.265624-19.707031-19.191407 7.652344-35.996094 20.003907-48.988282 35.640625zm0 0" fill="#fef1da"/><path d="m274.785156 204.226562c13.851563-12.476562 15.144532-32.992187 4.195313-47.011718-8.253907-10.578125-5.058594-19.628906-5.679688-27.070313 0-24.429687-6.808593-48.242187-19.695312-68.867187-5.257813-8.417969-17.980469-.46875-12.722657 7.949218 6.886719 11.019532 11.808594 23.070313 14.628907 35.636719-20.15625-2.082031-37.835938 13.773438-37.835938 34.132813 0 26.304687 28.476563 42.6875 51.121094 29.917968 1.867187 3.328126 2.726563 7.164063 2.449219 11.054688-1.371094 19.039062-26.828125 25.125-36.5625 8.367188-4.636719-7.980469-16.265625-7.898438-20.78125.203124-7.515625 13.472657-26.605469 12.265626-33.15625.46875-4.433594-7.976562-15.957032-8.429687-20.734375-.445312-7.636719 12.761719-26.582031 12.765625-33.441407.503906-4.601562-8.230468-16.410156-8.234375-21 .046875-6.679687 12.0625-26.390624 12.351563-33.324218-.140625-4.410156-7.941406-15.917969-8.4375-20.769532-.375-3.863281 6.425782-10.9375 10.058594-18.433593 9.46875-15.464844-1.210937-23.476563-19.339844-13.886719-31.625 12.148438-15.558594 8.21875-30.171875 8.855469-36.296875 0-24.664062 7.796875-47.542969 21.054687-66.300781 29.457032 27.09375 77.410156-5.710938 60.039063-43.703125 10.765625-3.339844 22.203125-5.136719 34.050781-5.136719 29.980469 0 58.371094 11.460938 79.9375 32.269532 7.140625 6.886718 17.5625-3.898438 10.417969-10.792969-24.378907-23.523438-56.464844-36.480469-90.355469-36.480469-71.761719 0-130.144531 58.382812-130.144531 130.210938-.632813 7.550781 2.589843 16.410156-5.679688 27-10.914062 13.984374-9.695312 34.503906 4.199219 47.015624-3.167969 8.472657-12.640625 14.355469-11.425781 31.28125 1.316406 18.269532 17.289062 33.226563 36.722656 32.011719l79.285156 225.382813c8.953125 25.449218 45.125 25.480468 54.089844 0l79.28125-225.375c19.417969 1.179687 35.40625-13.707032 36.722656-32.019532 1.214844-16.898437-8.265625-22.839843-11.421875-31.28125zm-179.726562-178.691406c11.824218 23.285156-18.535156 44.527344-36.519532 26.601563 10.246094-11.105469 22.640626-20.195313 36.519532-26.601563zm137.617187 113.460938c0-13 12.707031-22.414063 25.238281-18.382813.257813 3.140625.386719 6.296875.386719 9.464844.324219 7.886719-1.472656 15.222656 2.832031 25.925781-12.765624 6.890625-28.457031-2.390625-28.457031-17.007812zm-161.929687 179.730468 55.265625-55.265624c13.753906 7.527343 32.984375 5 44.132812-8.808594 2.410157 3.234375 5.308594 5.898437 8.621094 7.953125l-94.515625 94.515625zm-5.523438-15.695312-13.953125-39.667969c3.957031-2.164062 7.496094-5.109375 10.386719-8.726562 10.125 13.589843 28.875 15.683593 41.84375 10.117187zm90.828125 184.890625c-4.265625 12.128906-21.511719 12.148437-25.785156 0l-2.4375-6.925781 47.292969-47.292969zm70.265625-199.75-84.382812 84.386719c-7.011719 7.011718 3.582031 17.628906 10.609375 10.605468l62.261719-62.257812-28.167969 80.066406-64.328125 64.328125-13.507813-38.394531 22.492188-22.492188c7.007812-7.011718-3.582031-17.628906-10.609375-10.605468l-17.402344 17.402344-13.507812-38.394532 105.289062-105.292968c12.417969.691406 22.644531-4.117188 29.351562-13.1875 2.933594 3.761718 6.554688 6.816406 10.625 9.042968zm44.929688-53.742187c-1.367188 19-26.808594 25.160156-36.5625 8.371093-4.636719-7.984375-16.265625-7.902343-20.78125.199219-7.515625 13.472656-26.605469 12.265625-33.15625.46875-4.433594-7.976562-15.957032-8.429688-20.734375-.445312-7.636719 12.761718-26.582031 12.765624-33.441407.503906-4.601562-8.230469-16.410156-8.230469-21 .046875-6.679687 12.0625-26.390624 12.351562-33.324218-.136719-4.433594-7.984375-15.949219-8.390625-20.769532-.378906-9.855468 16.390625-35.039062 10.382812-36.40625-8.628906-.765624-10.628907 5.253907-12.839844 9.617188-22.761719 13.003906 3.933593 27.863281-.109375 36.96875-11.492188 13.042969 17.5 41.667969 17.164063 54.4375.222657 12.703125 16.785156 39.902344 17.320312 54.050781-.207032 12.585938 16.886719 40.804688 17.890625 54.269531-.320312 9.117188 11.695312 24.144532 15.75 37.210938 11.796875 4.351562 9.894531 10.382812 12.136719 9.621094 22.761719zm0 0"/><path d="m57.476562 138.996094c0 15.179687 12.351563 27.53125 27.53125 27.53125 15.179688 0 27.53125-12.351563 27.53125-27.53125 0-15.183594-12.351562-27.53125-27.53125-27.53125-15.179687-.003906-27.53125 12.347656-27.53125 27.53125zm40.0625 0c0 6.90625-5.621093 12.527344-12.53125 12.527344-6.910156 0-12.53125-5.621094-12.53125-12.527344 0-6.910156 5.621094-12.53125 12.53125-12.53125 6.910157 0 12.53125 5.621094 12.53125 12.53125zm0 0"/><path d="m153.460938 77.769531c0 15.179688 12.351562 27.53125 27.53125 27.53125 15.179687 0 27.53125-12.351562 27.53125-27.53125 0-15.183593-12.351563-27.535156-27.53125-27.535156-15.179688 0-27.53125 12.351563-27.53125 27.535156zm40.0625 0c0 6.90625-5.621094 12.53125-12.53125 12.53125-6.910157 0-12.53125-5.625-12.53125-12.53125 0-6.910156 5.621093-12.53125 12.53125-12.53125 6.910156 0 12.53125 5.621094 12.53125 12.53125zm0 0"/></svg>