<svg viewBox="0 -118 512.00085 512" xmlns="http://www.w3.org/2000/svg"><path d="m105.828125 114.621094c-12.667969-10.570313-32.714844-8.574219-43.277344 2.136718-14.902343 15.113282-28.140625 33.832032-37.953125 53.25-12.050781 23.84375-32.3125 80.832032 1.96875 96.238282 27.105469 12.1875 61.246094-26.878906 79.777344-41.546875 12.078125-9.5625 24.777344-19.324219 37.335938-27.777344 13.605468-9.160156 17.003906-30.855469 5.34375-42.890625-13.53125-13.957031-28.289063-26.972656-43.195313-39.410156zm0 0" fill="#d38231"/><path d="m406.171875 114.621094c12.667969-10.570313 32.714844-8.574219 43.277344 2.136718 14.902343 15.113282 28.140625 33.832032 37.953125 53.25 12.050781 23.84375 32.3125 80.832032-1.96875 96.238282-27.105469 12.1875-61.246094-26.878906-79.777344-41.546875-12.078125-9.5625-24.777344-19.324219-37.335938-27.777344-13.605468-9.160156-17.003906-30.855469-5.34375-42.890625 13.53125-13.957031 28.289063-26.972656 43.195313-39.410156zm0 0" fill="#d38231"/><path d="m331.511719 59.753906c8.523437-10.921875 25.519531-15.351562 39.03125-11.199218 26.351562 8.101562 54.25 21.183593 74.453125 41.132812 47.746094 47.148438-45.515625 130.109375-93.453125 121.761719-16.375-2.855469-32.933594-6.304688-49.085938-10.304688-16.921875-4.191406-29.695312-24.644531-22.464843-41.886719 14.386718-34.296874 29.03125-70.675781 51.519531-99.503906zm0 0" fill="#e88c38"/><path d="m180.484375 59.753906c-8.699219-11.980468-25.972656-14.777344-39.03125-11.199218-26.59375 7.289062-54.25 21.183593-74.449219 41.132812-47.75 47.152344 45.539063 130.105469 93.449219 121.761719 16.375-2.851563 32.976563-6.675781 49.085937-10.300781 17.578126-3.957032 29.167969-24.835938 22.464844-41.886719-13.769531-35.050781-29.257812-68.847657-51.519531-99.507813zm0 0" fill="#e88c38"/><path d="m348.617188 24.449219c-29.023438-15.824219-59.28125-16.683594-91.277344-16.894531-.101563 0-.207032 0-.308594 0s-.203125 0-.308594 0c-32.515625.207031-63.832031 1.25-93.339844 16.894531-65.496093 34.734375.03125 159.152343 48.710938 176.597656 15.035156 5.386719 28.457031 4.503906 44.9375 5.027344 16.226562-.515625 27.804688.640625 42.878906-5.027344 49.183594-18.496094 113.839844-141.085937 48.707032-176.597656zm0 0" fill="#d38231"/><path d="m348.617188 24.449219c-29.023438-15.824219-59.28125-16.683594-91.277344-16.894531-.101563 0-.207032 0-.308594 0s-.203125 0-.308594 0c-32.515625.207031-63.832031 1.25-93.339844 16.894531-65.496093 34.734375.03125 159.152343 48.710938 176.597656 15.035156 5.386719 28.457031 4.503906 44.9375 5.027344 16.226562-.515625 27.804688.640625 42.878906-5.027344 49.183594-18.496094 113.839844-141.085937 48.707032-176.597656zm0 0" fill="#d38231"/><path d="m497.988281 196.664062s-5.417969 10.652344-15.15625 15.367188c-26.746093 12.957031-35.664062-27.167969-58.886719-31.542969-37.234374-7.015625-55.882812-15.035156-65.082031-20.699219-6.34375 12.285157-2.183593 29.292969 9.457031 37.132813 12.558594 8.453125 25.257813 18.214844 37.335938 27.777344 16.144531 12.78125 44.144531 44.078125 69.015625 43.863281 5.085937-.714844 8.679687-1.488281 10.519531-2.316406 24.535156-11.027344 21.128906-43.351563 12.796875-69.582032zm0 0" fill="#c6752c"/><path d="m302.457031 201.148438c16.152344 3.996093 32.710938 7.449218 49.085938 10.300781 20.953125 3.648437 50.566406-10.148438 73.277343-30.773438-.289062-.066406-.582031-.132812-.875-.1875-52.605468-9.910156-68.140624-21.828125-72.292968-26.277343-1.035156-1.109376-2.511719-1.691407-4.023438-1.558594-23.238281 2-45.511718 2.824218-66.117187 2.976562-.507813 1.210938-1.015625 2.425782-1.519531 3.632813-7.230469 17.238281 5.542968 37.695312 22.464843 41.886719zm0 0" fill="#d38231"/><path d="m106.34375 224.699219c12.078125-9.5625 24.777344-19.324219 37.332031-27.777344 11.679688-7.863281 15.828125-24.949219 9.402344-37.246094-9.132813 5.671875-27.789063 13.75-65.265625 20.8125-23.222656 4.375-32.140625 44.503907-58.886719 31.542969-9.738281-4.714844-15.15625-15.367188-15.15625-15.367188-.246093.777344-.488281 1.5625-.726562 2.347657-.019531.074219-.042969.144531-.0625.21875-.476563 1.582031-.933594 3.183593-1.363281 4.796875-.027344.101562-.054688.203125-.082032.308594-.421875 1.601562-.820312 3.214843-1.191406 4.835937-.023438.109375-.046875.214844-.074219.324219-.164062.742187-.328125 1.484375-.480469 2.230468-.015624.074219-.03125.148438-.046874.21875-.167969.816407-.328126 1.628907-.476563 2.441407-.015625.085937-.03125.171875-.046875.253906-.132812.722656-.253906 1.445313-.371094 2.164063-.023437.136718-.042968.269531-.066406.40625-.128906.804687-.25 1.609374-.359375 2.414062 0 .011719-.003906.023438-.003906.035156-.105469.765625-.199219 1.535156-.28125 2.296875-.019531.160157-.035157.320313-.054688.480469-.082031.773438-.160156 1.542969-.222656 2.308594v.019531c-.0625.78125-.113281 1.558594-.15625 2.332031-.011719.160156-.015625.320313-.023437.484375-.035157.660157-.058594 1.316407-.074219 1.972657-.003907.121093-.007813.242187-.007813.359374-.015625.753907-.015625 1.503907-.007812 2.25 0 .140626.003906.277344.007812.414063.011719.625.03125 1.242187.0625 1.859375.007813.164062.011719.332031.023438.496094.039062.730468.089844 1.453125.15625 2.171875.003906.078125.015625.15625.023437.234375.058594.636718.132813 1.269531.214844 1.898437.023437.179688.046875.359375.074219.535157.09375.667968.195312 1.328124.316406 1.980468.003906.035156.007812.070313.015625.101563.125.683593.269531 1.355469.425781 2.019531.039063.171875.078125.34375.121094.511719.136719.550781.277344 1.097656.433594 1.636719.035156.125.066406.253906.105468.375.191407.640624.394532 1.269531.617188 1.894531.050781.144531.105469.285156.160156.429687.183594.503906.378906 1 .585938 1.492188.0625.148437.125.300781.191406.453125.257812.597656.535156 1.1875.828125 1.765625.042969.089844.09375.179687.140625.269531.257812.496094.527344.980469.808594 1.460937.089844.148438.183594.300782.273437.453126.328125.53125.664063 1.058593 1.023438 1.570312.015625.019531.027343.042969.042969.066406.371093.527344.769531 1.039063 1.175781 1.542969.109375.132813.222656.269531.335937.402344.347656.414062.710938.820312 1.082032 1.21875.085937.089843.167968.183593.253906.273437.453125.46875.925781.921875 1.417968 1.363282.121094.109374.242188.210937.367188.320312.40625.351562.824219.695312 1.253906 1.027344.132813.105468.261719.210937.398438.3125.542968.402344 1.101562.796875 1.683594 1.171875.101562.066406.210937.128906.3125.195312.5.3125 1.015624.617188 1.542968.910157l.515625.28125c.640625.339843 1.296875.667968 1.980469.976562 1.84375.828125 5.4375 1.597656 10.527344 2.3125 24.933594.417969 53.058594-31.042969 69.253906-43.863281zm0 0" fill="#c6752c"/><path d="m87.140625 180.632812c22.722656 20.648438 52.359375 34.464844 73.316406 30.816407 16.375-2.851563 32.976563-6.675781 49.082031-10.300781 17.582032-3.957032 29.167969-24.835938 22.464844-41.890626-.476562-1.210937-.960937-2.417968-1.441406-3.628906-20.691406-.144531-43.074219-.964844-66.433594-2.976562-1.511718-.128906-2.992187.449218-4.027344 1.558594-4.148437 4.449218-19.6875 16.367187-72.289062 26.277343-.226562.042969-.449219.09375-.671875.144531zm0 0" fill="#d38231"/><path d="m299.90625 201.046875c16.851562-6.335937 35.515625-24.890625 50.15625-47.972656-.753906-.339844-1.589844-.496094-2.433594-.421875-33.246094 2.863281-64.519531 3.316406-91.75 2.84375-27.230468.472656-58.503906.019531-91.75-2.84375-.785156-.070313-1.5625.058594-2.277344.351562 14.722657 23.34375 33.480469 42.035156 50.242188 48.042969 15.035156 5.386719 28.457031 4.503906 44.9375 5.027344 16.226562-.515625 27.804688.640625 42.875-5.027344zm0 0" fill="#c6752c"/><path d="m494.144531 166.597656c-7.71875-15.277344-17.523437-30.101562-28.429687-43.113281.890625-14.769531-4.285156-28.183594-15.414063-39.171875-22-21.730469-51.601562-34.59375-73.6875-41.753906-5.265625-10.429688-13.433593-18.769532-24.382812-24.742188-29.558594-16.117187-59.183594-17.578125-94.820313-17.816406h-.738281c-35.058594.222656-66.542969 1.714844-96.828125 17.777344-10.929688 5.792968-19.148438 14.175781-24.460938 24.6875-28.886718 8.578125-54.957031 23.347656-73.6875 41.84375-11.128906 10.992187-16.300781 24.40625-15.40625 39.175781-10.910156 13.007813-20.714843 27.835937-28.433593 43.113281-4.382813 8.667969-25.679688 53.464844-14.792969 84.214844 3.671875 10.378906 10.539062 17.886719 20.40625 22.324219 4.695312 2.109375 9.453125 3.039062 14.222656 3.039062 22.164063 0 44.570313-20.097656 61.75-35.507812 4.265625-3.824219 8.292969-7.4375 11.589844-10.046875 7.519531-5.953125 13.820312-10.816406 19.550781-15.09375 8.089844 2.652344 15.847657 4.042968 22.929688 4.042968 2.863281 0 5.621093-.226562 8.242187-.683593 15.148438-2.636719 30.46875-6.09375 45.28125-9.433594l3.804688-.859375c13.019531 4.410156 24.933594 4.625 37.519531 4.839844 2.734375.046875 5.535156.097656 8.433594.1875.078125.003906.160156.003906.238281.003906s.160156 0 .238281-.003906c3.042969-.097656 5.941407-.132813 8.746094-.167969 11.980469-.152344 22.394531-.296875 35.167969-4.84375 15.828125 3.90625 32.332031 7.363281 49.0625 10.277344 2.625.457031 5.378906.683593 8.246094.683593 7.082031 0 14.839843-1.390624 22.929687-4.039062 5.738281 4.285156 12.039063 9.148438 19.542969 15.085938.847656.671874 1.730468 1.394531 2.640625 2.167968 1.417969 1.195313 3.148437 1.777344 4.867187 1.777344 2.152344 0 4.285156-.910156 5.777344-2.679688 2.691406-3.1875 2.289062-7.957031-.902344-10.644531-1.039062-.875-2.039062-1.699219-3.003906-2.464843-4.679688-3.703126-8.894531-6.992188-12.816406-9.996094 4.066406-2.070313 8.160156-4.410156 12.238281-7.039063 20.722656-13.351562 38.101563-31.667969 47.679687-50.253906 1.5625-3.035156 2.898438-6.042969 4.023438-9.019531 7.230469 9.71875 13.765625 20.210937 19.191406 30.949218 8.660156 17.136719 21.363282 51.664063 14.035156 72.359376-2.273437 6.425781-6.316406 10.867187-12.359374 13.582031-10.21875 4.597656-23.753907-.238281-42.59375-15.210938-3.265626-2.597656-8.015626-2.054687-10.613282 1.210938-2.59375 3.265625-2.050781 8.019531 1.214844 10.613281 11.613281 9.230469 27.664062 20.167969 44.070312 20.167969 4.710938 0 9.449219-.902344 14.117188-3 9.867188-4.4375 16.734375-11.945313 20.40625-22.324219 10.886719-30.746094-10.410156-75.546875-14.792969-84.214844zm-392.488281 52.179688c-3.664062 2.898437-7.859375 6.660156-12.300781 10.644531-16.789063 15.058594-42.15625 37.820313-59.691407 29.933594-6.042968-2.714844-10.085937-7.15625-12.359374-13.582031-7.328126-20.695313 5.375-55.222657 14.035156-72.359376 5.425781-10.738281 11.960937-21.234374 19.195312-30.949218 1.121094 2.972656 2.457032 5.976562 4.019532 9.007812 9.578124 18.589844 26.957031 36.90625 47.683593 50.261719 4.082031 2.628906 8.171875 4.96875 12.238281 7.039063-3.917968 3.003906-8.136718 6.292968-12.820312 10.003906zm196.515625-25.167969c-.117187.042969-.234375.089844-.351563.140625-.191406.074219-.382812.15625-.570312.226562-10.941406 4.113282-19.980469 4.226563-31.425781 4.375-2.800781.035157-5.695313.070313-8.792969.164063-2.886719-.089844-5.683594-.136719-8.414062-.183594-12.230469-.207031-22.792969-.386719-33.976563-4.394531-.140625-.050781-.285156-.117188-.429687-.167969-.027344-.015625-.058594-.023437-.089844-.035156-21.828125-8.191406-48.429688-41.15625-62.089844-77.058594-1.480469-3.902343-5.847656-5.859375-9.746094-4.375-3.898437 1.484375-5.855468 5.847657-4.375 9.746094 11.847656 31.136719 32.359375 59.703125 53.054688 75.527344-10.578125 2.339843-21.277344 4.601562-31.804688 6.433593-1.859375.324219-3.8125.480469-5.84375.480469-27.46875-.003906-69.214844-28.652343-85.335937-59.933593-7.042969-13.671876-12.011719-33.355469 4.328125-49.492188 14.800781-14.613281 34.792968-26.703125 57.238281-34.789062-1.40625 7.816406-1.660156 16.363281-.683594 25.539062.441407 4.148438 4.160157 7.15625 8.308594 6.714844s7.15625-4.164063 6.714844-8.3125c-1.316407-12.386719-.1875-22.953125 3.351562-31.648438.300781-.515625.535157-1.066406.707031-1.640625 3.878907-8.527343 10.207032-15.152343 18.972657-19.800781 27.308593-14.480469 55.644531-15.796875 89.933593-16.015625h.4375c33.507813.222656 61.242188 1.542969 87.710938 15.976563 8.746094 4.765624 15.0625 11.488281 18.945312 20.078124.117188.351563.257813.691407.425782 1.015626 3.410156 8.066406 4.761718 17.710937 3.976562 28.929687-2.695312 38.636719-36.136718 98.84375-70.175781 112.5zm145.84375-49.046875c-17.308594 33.59375-64.171875 64.148438-91.175781 59.445312-10.832032-1.890624-21.5625-4.011718-32.070313-6.335937 11.945313-9.082031 23.925781-22.441406 34.519531-38.75 16.214844-24.972656 26.46875-52.949219 28.132813-76.761719.539063-7.703125.210937-14.894531-.945313-21.542968 18.691407 7.03125 40.539063 17.980468 57.210938 34.445312 16.34375 16.136719 11.375 35.828125 4.328125 49.5zm0 0"/></svg>