<?xml version="1.0" encoding="iso-8859-1"?>
<!-- Generator: Adobe Illustrator 19.0.0, SVG Export Plug-In . SVG Version: 6.00 Build 0)  -->
<svg xmlns="http://www.w3.org/2000/svg" xmlns:xlink="http://www.w3.org/1999/xlink" version="1.1" id="Layer_1" x="0px" y="0px" viewBox="0 0 438.089 438.089" style="enable-background:new 0 0 438.089 438.089;" xml:space="preserve" width="512" height="512">
<g>
	<path style="fill:#333333;" d="M289.546,152.498v186.77h-140.99v-186.77c0.48-0.07,0.96-0.14,1.44-0.2   c0.17-0.02,0.34-0.04,0.51-0.06c0.77-0.1,1.55-0.19,2.33-0.26c0.22-0.03,0.45-0.06,0.68-0.08c0.78-0.08,1.57-0.15,2.36-0.21   c0.27-0.02,0.54-0.04,0.82-0.06c0.8-0.06,1.62-0.11,2.43-0.15c0.25-0.02,0.5-0.03,0.76-0.04c0.74-0.04,1.48-0.07,2.23-0.08   c0.21-0.01,0.42-0.02,0.63-0.02c0.97-0.03,1.95-0.04,2.93-0.04h14.58h92.17c0.98,0,1.96,0.01,2.93,0.04c0.22,0,0.43,0.01,0.64,0.02   c0.74,0.01,1.47,0.04,2.19,0.08c0.28,0.01,0.55,0.02,0.82,0.04c0.74,0.03,1.47,0.08,2.2,0.13c0.41,0.03,0.83,0.06,1.24,0.1   c0.69,0.05,1.38,0.11,2.07,0.19c0.29,0.02,0.57,0.05,0.86,0.09c0.69,0.06,1.38,0.14,2.07,0.24c0.25,0.02,0.5,0.05,0.74,0.09   C288.646,152.368,289.096,152.428,289.546,152.498z"/>
	<path style="fill:#E6E6E6;" d="M297.606,153.908c0.77,0.16,1.54,0.33,2.31,0.51c0.81,0.18,1.62,0.38,2.43,0.59   c0.46,0.11,0.92,0.23,1.38,0.36c0.74,0.19,1.47,0.39,2.2,0.6c0.86,0.24,1.71,0.5,2.56,0.76c0.82,0.25,1.63,0.51,2.43,0.78   c0.49,0.17,0.98,0.33,1.46,0.5c0.25,0.09,0.51,0.18,0.76,0.27c0.57,0.2,1.13,0.4,1.69,0.61c1.46,0.54,2.9,1.11,4.33,1.7   c0.55,0.23,1.09,0.47,1.64,0.7c0.2,0.09,0.4,0.17,0.6,0.27c0.49,0.21,0.98,0.43,1.47,0.65c0.72,0.33,1.44,0.66,2.15,1.01   c0.49,0.24,0.99,0.48,1.48,0.72c0.23,0.11,0.45,0.22,0.67,0.34c0.54,0.27,1.09,0.55,1.63,0.84c0.13,0.06,0.26,0.13,0.38,0.2   c0.57,0.3,1.14,0.61,1.71,0.92c3.93,2.15,7.74,4.52,11.39,7.09c0.46,0.32,0.92,0.65,1.38,0.98c1.95,1.41,3.86,2.87,5.71,4.39   c0.36,0.29,0.72,0.59,1.07,0.89c0.66,0.54,1.31,1.1,1.95,1.66c0.63,0.55,1.26,1.11,1.87,1.67c0.72,0.65,1.44,1.32,2.14,1.99   c0.71,0.67,1.4,1.35,2.09,2.04c0.69,0.69,1.37,1.38,2.04,2.09c0.67,0.7,1.34,1.42,1.99,2.14c0.66,0.72,1.3,1.44,1.94,2.18   c0.55,0.64,1.1,1.28,1.64,1.93c0.18,0.22,0.36,0.43,0.54,0.66c0.5,0.61,0.99,1.22,1.47,1.84c0.05,0.05,0.09,0.1,0.13,0.16   c0.58,0.74,1.16,1.48,1.72,2.24c0.69,0.92,1.37,1.86,2.04,2.81c0.46,0.65,0.91,1.3,1.35,1.96c0.47,0.69,0.93,1.39,1.38,2.09   c0.14,0.2,0.26,0.4,0.39,0.6c0.48,0.74,0.94,1.49,1.4,2.25c0.34,0.55,0.67,1.11,1,1.68c0.29,0.48,0.57,0.96,0.84,1.45   c0.34,0.6,0.67,1.2,1,1.8c0.61,1.11,1.19,2.22,1.76,3.35c0.29,0.57,0.58,1.15,0.86,1.73c0.1,0.2,0.19,0.4,0.29,0.61   c0.33,0.69,0.66,1.39,0.97,2.09c0.46,1,0.91,2.01,1.34,3.02c6.16,14.56,9.56,30.56,9.56,47.37v24.14   c0,23.27-18.87,42.13-42.13,42.13h-62.46v-186.77c1.26,0.17,2.52,0.37,3.77,0.59c0.44,0.07,0.87,0.15,1.31,0.23   c0.54,0.1,1.07,0.2,1.61,0.31c0.4,0.08,0.81,0.16,1.21,0.25C297.496,153.888,297.556,153.898,297.606,153.908z"/>
	<path style="fill:#E6E6E6;" d="M148.556,152.498v186.77h-62.45c-23.27,0-42.13-18.86-42.13-42.13v-24.14   c0-16.96,3.47-33.11,9.73-47.77c0.34-0.78,0.67-1.55,1.02-2.31c0.41-0.9,0.82-1.79,1.25-2.68c0.4-0.82,0.8-1.64,1.22-2.45   c0.97-1.91,1.99-3.78,3.06-5.63c0.87-1.5,1.77-2.99,2.7-4.45c0.12-0.19,0.25-0.39,0.37-0.58c0.47-0.73,0.95-1.45,1.44-2.17   c0.54-0.81,1.1-1.61,1.66-2.41c1.7-2.38,3.48-4.71,5.34-6.96c3.92-4.75,8.2-9.2,12.79-13.3c0.49-0.44,0.98-0.88,1.48-1.31   c0.73-0.63,1.46-1.25,2.2-1.87c0.02-0.01,0.03-0.02,0.05-0.04c2.25-1.85,4.56-3.62,6.94-5.32c1.59-1.13,3.21-2.22,4.86-3.28   c0.82-0.52,1.65-1.04,2.49-1.55c0.83-0.51,1.68-1.01,2.53-1.5c0.05-0.02,0.1-0.05,0.15-0.09c0.8-0.45,1.6-0.9,2.41-1.34   s1.62-0.87,2.44-1.29c0.09-0.05,0.19-0.1,0.29-0.15c0.83-0.42,1.68-0.84,2.52-1.25c0.05-0.02,0.09-0.04,0.14-0.07   c0.84-0.4,1.69-0.79,2.54-1.18c0.76-0.34,1.52-0.68,2.28-1c0.23-0.1,0.47-0.2,0.71-0.31c0.82-0.34,1.64-0.67,2.47-1   c0.04-0.01,0.08-0.03,0.12-0.05c0.85-0.33,1.71-0.66,2.58-0.98c0.12-0.04,0.24-0.09,0.37-0.13c0.64-0.23,1.29-0.46,1.94-0.69   c0.31-0.11,0.63-0.21,0.95-0.32c0.68-0.23,1.37-0.45,2.06-0.67c0.17-0.05,0.34-0.11,0.51-0.16c0.92-0.28,1.85-0.56,2.78-0.82   c0.91-0.26,1.82-0.51,2.74-0.75c0.08-0.02,0.16-0.04,0.25-0.06c0.94-0.24,1.89-0.47,2.84-0.69c0.02-0.01,0.05-0.01,0.07-0.02   c0.9-0.21,1.81-0.41,2.73-0.6c0.13-0.02,0.27-0.05,0.42-0.08c0.78-0.16,1.56-0.31,2.35-0.45   C145.346,152.978,146.946,152.718,148.556,152.498z"/>
	<path style="fill:#CCCCCC;" d="M81.976,297.138v-24.14c0-16.96,3.47-33.11,9.73-47.77c0.34-0.78,0.67-1.55,1.02-2.31   c0.41-0.9,0.82-1.79,1.25-2.68c0.4-0.82,0.8-1.64,1.22-2.45c0.97-1.91,1.99-3.78,3.06-5.63c0.87-1.5,1.77-2.99,2.7-4.45   c0.12-0.19,0.25-0.39,0.37-0.58c0.47-0.73,0.95-1.45,1.44-2.17c0.54-0.81,1.1-1.61,1.66-2.41c1.7-2.38,3.48-4.71,5.34-6.96   c3.92-4.75,8.2-9.2,12.79-13.3c0.49-0.44,0.98-0.88,1.48-1.31c0.73-0.63,1.46-1.25,2.2-1.87c0.02-0.01,0.03-0.02,0.05-0.04   c2.25-1.85,4.56-3.62,6.94-5.32c1.59-1.13,3.21-2.22,4.86-3.28c0.82-0.52,1.65-1.04,2.49-1.55c0.83-0.51,1.68-1.01,2.53-1.5   c0.05-0.02,0.1-0.05,0.15-0.09c0.8-0.45,1.6-0.9,2.41-1.34c0.81-0.44,1.62-0.87,2.44-1.29c0.09-0.05,0.19-0.1,0.29-0.15   c0.052-0.027,0.107-0.053,0.16-0.08v-11.971c-1.61,0.22-3.21,0.48-4.79,0.77c-0.79,0.14-1.57,0.29-2.35,0.45   c-0.15,0.03-0.29,0.06-0.42,0.08c-0.92,0.19-1.83,0.39-2.73,0.6c-0.02,0.01-0.05,0.01-0.07,0.02c-0.95,0.22-1.9,0.45-2.84,0.69   c-0.09,0.02-0.17,0.04-0.25,0.06c-0.92,0.24-1.83,0.49-2.74,0.75c-0.93,0.26-1.86,0.54-2.78,0.82c-0.17,0.05-0.34,0.11-0.51,0.16   c-0.69,0.22-1.38,0.44-2.06,0.67c-0.32,0.11-0.64,0.21-0.95,0.32c-0.65,0.23-1.3,0.46-1.94,0.69c-0.13,0.04-0.25,0.09-0.37,0.13   c-0.87,0.32-1.73,0.65-2.58,0.98c-0.04,0.02-0.08,0.04-0.12,0.05c-0.83,0.33-1.65,0.66-2.47,1c-0.24,0.11-0.48,0.21-0.71,0.31   c-0.76,0.32-1.52,0.66-2.28,1c-0.85,0.39-1.7,0.78-2.54,1.18c-0.05,0.03-0.09,0.05-0.14,0.07c-0.84,0.41-1.69,0.83-2.52,1.25   c-0.1,0.05-0.2,0.1-0.29,0.15c-0.82,0.42-1.63,0.85-2.44,1.29c-0.81,0.44-1.61,0.89-2.41,1.34c-0.05,0.04-0.1,0.07-0.15,0.09   c-0.85,0.49-1.7,0.99-2.53,1.5c-0.84,0.51-1.67,1.03-2.49,1.55c-1.65,1.06-3.27,2.15-4.86,3.28c-2.38,1.7-4.69,3.47-6.94,5.32   c-0.02,0.02-0.03,0.03-0.05,0.04c-0.74,0.62-1.47,1.24-2.2,1.87c-0.5,0.43-0.99,0.87-1.48,1.31c-4.59,4.1-8.87,8.55-12.79,13.3   c-1.86,2.25-3.64,4.58-5.34,6.96c-0.56,0.8-1.12,1.6-1.66,2.41c-0.49,0.72-0.97,1.44-1.44,2.17c-0.12,0.19-0.25,0.39-0.37,0.58   c-0.93,1.46-1.83,2.95-2.7,4.45c-1.07,1.85-2.09,3.72-3.06,5.63c-0.42,0.81-0.82,1.63-1.22,2.45c-0.43,0.89-0.84,1.78-1.25,2.68   c-0.35,0.76-0.68,1.53-1.02,2.31c-6.26,14.66-9.73,30.81-9.73,47.77v24.14c0,23.27,18.86,42.13,42.13,42.13h38   C100.836,339.268,81.976,320.408,81.976,297.138z"/>
	<path style="fill:#F95428;" d="M425.876,190.668c6.98,12.97,5.78,27.31-0.85,38.41c-0.85,1.42-2.02,2.79-3.43,4.09   c-11.61,10.74-30.51,6.77-37.02-7.54c-0.43-1.01-0.88-2.02-1.34-3.02c-0.31-0.7-0.64-1.4-0.97-2.09c-0.1-0.21-0.19-0.41-0.29-0.61   c-0.28-0.58-0.57-1.16-0.86-1.73c-0.57-1.13-1.15-2.24-1.76-3.35l11.2-69.71C404.696,158.188,416.676,173.578,425.876,190.668z"/>
	<path style="fill:#F95428;" d="M390.556,145.118l-11.2,69.71c-0.33-0.6-0.66-1.2-1-1.8c-0.27-0.49-0.55-0.97-0.84-1.45   c-0.33-0.57-0.66-1.13-1-1.68c-0.45-0.76-0.92-1.51-1.4-2.25c-0.13-0.2-0.25-0.4-0.39-0.6c-0.44-0.7-0.9-1.4-1.38-2.09   c-0.43-0.66-0.89-1.31-1.35-1.96c-0.67-0.95-1.35-1.89-2.04-2.81c-0.56-0.76-1.13-1.5-1.72-2.24c-0.04-0.06-0.08-0.11-0.13-0.16   c-0.47-0.62-0.96-1.23-1.47-1.84c-0.18-0.23-0.36-0.44-0.54-0.66c-0.54-0.65-1.08-1.3-1.64-1.93c-0.63-0.74-1.28-1.46-1.94-2.18   c-0.64-0.72-1.31-1.44-1.99-2.14c-0.66-0.71-1.35-1.41-2.04-2.09c-0.69-0.7-1.39-1.38-2.09-2.04c-0.71-0.68-1.42-1.35-2.14-1.99   c-0.62-0.57-1.24-1.13-1.87-1.67c-0.64-0.56-1.29-1.12-1.95-1.66c-0.35-0.3-0.71-0.59-1.07-0.89c-1.85-1.52-3.76-2.98-5.71-4.39   c-0.46-0.33-0.92-0.66-1.38-0.98c-3.65-2.57-7.46-4.94-11.39-7.09c-0.57-0.32-1.14-0.63-1.71-0.92c-0.12-0.07-0.25-0.14-0.38-0.2   c-0.54-0.29-1.08-0.57-1.63-0.84c-0.22-0.12-0.44-0.23-0.67-0.34c-0.49-0.24-0.98-0.49-1.48-0.72c-0.71-0.35-1.43-0.68-2.15-1.01   c-0.49-0.22-0.98-0.44-1.47-0.65c-0.2-0.1-0.4-0.18-0.6-0.27c-0.54-0.24-1.09-0.47-1.64-0.7c-1.43-0.59-2.87-1.16-4.33-1.7   c-0.56-0.21-1.12-0.41-1.69-0.61c-0.25-0.09-0.51-0.18-0.76-0.27c-0.48-0.17-0.97-0.34-1.46-0.5c-0.8-0.27-1.61-0.53-2.43-0.78   c-0.85-0.26-1.7-0.51-2.56-0.76c-0.73-0.21-1.46-0.41-2.2-0.6c-0.46-0.13-0.92-0.25-1.38-0.36c-0.81-0.21-1.62-0.4-2.43-0.59   c-0.77-0.18-1.54-0.35-2.31-0.51c-0.05-0.01-0.11-0.02-0.16-0.03c-0.15-0.04-0.29-0.07-0.44-0.1l-10.21-54.36v-0.01   C326.676,102.678,362.786,119.438,390.556,145.118z"/>
	<path style="fill:#F95428;" d="M286.796,99.418l10.21,54.36c-0.26-0.05-0.51-0.1-0.77-0.15c-0.54-0.11-1.07-0.21-1.61-0.31   c-0.44-0.08-0.87-0.16-1.31-0.23c-1.25-0.22-2.51-0.42-3.77-0.59c-0.45-0.07-0.9-0.13-1.36-0.18c-0.24-0.04-0.49-0.07-0.74-0.09   c-0.68-0.1-1.37-0.18-2.07-0.24c-0.29-0.04-0.57-0.07-0.86-0.09c-0.69-0.07-1.38-0.14-2.07-0.19c-0.41-0.04-0.83-0.07-1.24-0.1   c-0.73-0.05-1.46-0.1-2.2-0.13c-0.27-0.02-0.54-0.03-0.82-0.04c-0.73-0.04-1.46-0.07-2.19-0.08c-0.21-0.01-0.42-0.02-0.64-0.02   c-0.97-0.03-1.95-0.04-2.93-0.04h-92.17l-43.19-50.12v-0.01c9.31-1.55,18.87-2.35,28.61-2.35h106.75c4.84,0,9.63,0.2,14.37,0.59   V99.418z"/>
	<path style="fill:#F95428;" d="M137.066,101.178l43.19,50.12h-14.58c-0.98,0-1.96,0.01-2.93,0.04c-0.21,0-0.42,0.01-0.63,0.02   c-0.75,0.01-1.49,0.04-2.23,0.08c-0.26,0.01-0.51,0.02-0.76,0.04c-0.81,0.04-1.62,0.09-2.43,0.15c-0.28,0.02-0.55,0.04-0.82,0.06   c-0.79,0.06-1.58,0.13-2.36,0.21c-0.23,0.02-0.46,0.05-0.68,0.08c-0.78,0.07-1.56,0.16-2.33,0.26c-0.17,0.02-0.34,0.04-0.51,0.06   c-0.48,0.06-0.96,0.13-1.44,0.2c-1.61,0.22-3.21,0.48-4.79,0.77c-0.79,0.14-1.57,0.29-2.35,0.45c-0.15,0.03-0.29,0.06-0.42,0.08   c-0.91,0.19-1.82,0.39-2.73,0.6c-0.02,0.01-0.05,0.01-0.07,0.02c-0.95,0.21-1.9,0.44-2.84,0.69c-0.09,0.02-0.17,0.04-0.25,0.06   c-0.92,0.24-1.83,0.48-2.74,0.75c-0.93,0.26-1.86,0.53-2.78,0.82c-0.17,0.05-0.34,0.11-0.51,0.16c-0.69,0.21-1.37,0.44-2.06,0.67   c-0.32,0.11-0.64,0.21-0.95,0.32c-0.65,0.22-1.3,0.45-1.94,0.69c-0.13,0.04-0.25,0.09-0.37,0.13c-0.87,0.32-1.73,0.64-2.58,0.98   c-0.04,0.02-0.08,0.04-0.12,0.05c-0.83,0.32-1.65,0.66-2.47,1c-0.24,0.11-0.48,0.21-0.71,0.31c-0.76,0.32-1.52,0.65-2.28,1   c-0.85,0.38-1.7,0.77-2.54,1.18c-0.05,0.03-0.09,0.05-0.14,0.07c-0.85,0.4-1.69,0.82-2.52,1.25c-0.1,0.05-0.2,0.1-0.29,0.15   c-0.82,0.41-1.63,0.84-2.44,1.29c-0.81,0.43-1.61,0.88-2.41,1.34c-0.05,0.04-0.1,0.07-0.15,0.09c-0.85,0.48-1.7,0.98-2.53,1.5   c-0.84,0.5-1.67,1.02-2.49,1.55c-1.65,1.05-3.27,2.15-4.86,3.28c-2.38,1.69-4.7,3.46-6.94,5.32c-0.02,0.02-0.03,0.03-0.05,0.04   c-0.74,0.61-1.48,1.23-2.2,1.87c-0.5,0.42-1,0.86-1.49,1.31l-51.31-22.28c26.08-30.54,62.53-51.98,103.83-58.84V101.178z"/>
	<path style="fill:#F95428;" d="M33.236,160.008l51.31,22.28c-4.59,4.09-8.86,8.54-12.78,13.3c-1.86,2.25-3.65,4.57-5.34,6.96   c-0.57,0.8-1.12,1.6-1.66,2.41c-0.5,0.72-0.97,1.44-1.44,2.17c-0.12,0.19-0.25,0.39-0.37,0.58c-0.94,1.46-1.84,2.95-2.7,4.45   c-1.07,1.85-2.09,3.72-3.06,5.63c-0.42,0.81-0.83,1.63-1.22,2.45c-0.43,0.89-0.85,1.78-1.25,2.68c-0.35,0.76-0.68,1.53-1.02,2.31   c-6.4,14.98-26.18,19.04-37.73,7.55c-1.02-1.01-1.88-2.06-2.55-3.14c-6.93-11.18-8.3-25.79-1.2-38.97   C18.136,179.688,25.196,169.418,33.236,160.008z"/>
	<path style="fill:#FFFFFF;" d="M371.136,304.639c-4.143,0-7.5-3.357-7.5-7.5c0-2.705,0.006-5.41,0.012-8.115   c0.01-4.586,0.021-9.172,0.001-13.758c-0.051-12.405-1.789-23.211-5.313-33.033c-1.869-5.209-4.246-10.303-7.066-15.14   c-1.328-2.276-2.817-4.569-4.552-7.009c-0.774-1.091-1.626-2.222-2.681-3.563c-0.375-0.478-0.753-0.95-1.137-1.42   c-0.06-0.073-0.118-0.146-0.176-0.219c-0.023-0.028-0.047-0.056-0.07-0.084c-1.159-1.389-2.384-2.77-3.64-4.103   c-2.841-3.015-2.7-7.761,0.314-10.602c3.013-2.84,7.761-2.701,10.602,0.314c1.461,1.55,2.886,3.155,4.235,4.772   c0.006,0.008,0.013,0.016,0.019,0.023c0.04,0.047,0.078,0.095,0.116,0.143l0.201,0.246c0.46,0.563,0.895,1.106,1.325,1.654   c1.192,1.516,2.212,2.872,3.117,4.146c1.996,2.808,3.725,5.472,5.283,8.143c3.281,5.629,6.049,11.561,8.228,17.63   c4.11,11.456,6.137,23.897,6.194,38.038c0.02,4.617,0.009,9.234-0.001,13.852c-0.006,2.694-0.012,5.389-0.012,8.083   C378.636,301.281,375.278,304.639,371.136,304.639z"/>
	
		<line style="fill:none;stroke:#333333;stroke-width:15;stroke-linejoin:round;stroke-miterlimit:10;" x1="148.556" y1="339.268" x2="148.556" y2="152.498"/>
	
		<line style="fill:none;stroke:#333333;stroke-width:15;stroke-linejoin:round;stroke-miterlimit:10;" x1="289.546" y1="339.268" x2="289.546" y2="152.498"/>
	<path style="fill:#FFFFFF;" d="M270.056,319.448c-4.143,0-7.5-3.357-7.5-7.5v-99c0-4.143,3.357-7.5,7.5-7.5s7.5,3.357,7.5,7.5v99   C277.556,316.091,274.198,319.448,270.056,319.448z"/>
	<circle style="fill:#FFFFFF;" cx="270.056" cy="183.948" r="7.5"/>
	<circle style="fill:#FFFFFF;" cx="326.657" cy="190.616" r="7.5"/>
	<circle style="fill:#FFFFFF;" cx="272.462" cy="121.901" r="7.5"/>
	<path style="fill:#333333;" d="M432.482,187.115c-31.813-59.087-93.145-95.793-160.06-95.793H165.678   c-66.903,0-128.235,36.705-160.062,95.795c-7.966,14.801-7.431,32.175,1.432,46.474c0.949,1.533,2.174,3.049,3.642,4.51   c5.723,5.69,13.436,8.793,21.423,8.793c1.968,0,3.953-0.188,5.929-0.572c0.429-0.083,0.85-0.189,1.272-0.29   c-1.855,8.702-2.84,17.722-2.84,26.969v24.137c0,27.365,22.264,49.629,49.63,49.629h265.899c27.366,0,49.63-22.264,49.63-49.629   v-24.137c0-9.283-0.993-18.338-2.862-27.071c0.228,0.054,0.452,0.118,0.682,0.167c9.783,2.084,19.962-0.693,27.237-7.426   c1.995-1.849,3.602-3.781,4.773-5.743C439.923,218.763,440.303,201.636,432.482,187.115z M303.476,147.574l-7.431-39.562   c32.324,4.621,62.3,18.625,86.46,39.915l-7.491,46.621C357.435,171.617,332.358,154.726,303.476,147.574z M165.681,158.794h106.745   c3.24,0,6.447,0.143,9.619,0.409v172.563H156.054V159.204C159.229,158.938,162.438,158.794,165.681,158.794z M272.422,106.322   c2.707,0,5.399,0.089,8.084,0.219l7.167,38.157c-5.002-0.59-10.089-0.904-15.247-0.904h-88.737l-31.782-36.881   c4.557-0.376,9.147-0.591,13.771-0.591H272.422z M134.196,109.34l29.71,34.476c-30.604,0.415-58.671,11.515-80.629,29.742   L45.794,157.28C69.569,132.63,100.417,115.837,134.196,109.34z M46.81,222.282c-2.058,4.815-6.407,8.298-11.635,9.315   c-5.179,1.006-10.252-0.497-13.906-4.132c-0.64-0.636-1.135-1.233-1.471-1.776c-6.001-9.683-6.364-21.445-0.974-31.462   c4.821-8.951,10.394-17.329,16.591-25.102l35.984,15.626c-10.231,10.923-18.593,23.617-24.566,37.569   C46.819,222.297,46.81,222.282,46.81,222.282z M51.474,297.138v-24.137c0-54.521,38.405-100.232,89.58-111.525v170.291h-54.95   C67.009,331.767,51.474,316.233,51.474,297.138z M386.633,297.138c0,19.095-15.535,34.629-34.63,34.629h-54.958V161.475   c51.179,11.289,89.588,57.003,89.588,111.526V297.138z M418.585,225.237c-0.302,0.506-0.909,1.338-2.085,2.427   c-3.755,3.476-8.826,4.846-13.923,3.762c-5.147-1.096-9.271-4.461-11.313-9.23c0,0-0.007,0.023-0.019,0.063   c-1.262-2.943-2.63-5.829-4.1-8.655l8.479-52.772c9.089,9.991,17.064,21.166,23.65,33.397   C424.569,204.057,424.312,215.649,418.585,225.237z"/>
	<path style="fill:#FFFFFF;" d="M405.629,209.067c-2.671,0-5.256-1.43-6.61-3.945c-7.572-14.064-17.385-26.717-29.166-37.606   c-20.705-19.148-47.418-32.102-75.218-36.474c-4.092-0.644-6.888-4.482-6.244-8.574s4.475-6.885,8.574-6.244   c31.15,4.9,59.876,18.828,83.07,40.278c13,12.016,23.831,25.982,32.19,41.509c1.964,3.647,0.599,8.195-3.048,10.159   C408.047,208.779,406.829,209.067,405.629,209.067z"/>
</g>















</svg>
