<svg height="512pt" viewBox="-41 0 511 512" width="512pt" xmlns="http://www.w3.org/2000/svg"><path d="m393.980469 7.5h-358.820313c-7.820312 0-14.160156 6.339844-14.160156 14.160156v243.933594h387.140625v-243.933594c0-7.820312-6.339844-14.160156-14.160156-14.160156zm0 0" fill="#855151"/><path d="m393.980469 7.5h-31.519531c7.820312 0 14.160156 6.339844 14.160156 14.160156v243.933594h31.519531v-243.933594c0-7.820312-6.339844-14.160156-14.160156-14.160156zm0 0" fill="#704444"/><path d="m356.007812 260.78125c-35.742187-5.101562-32.667968-26.628906-68.410156-31.730469-35.742187-5.105469-38.8125 16.421875-74.554687 11.320313-35.742188-5.101563-32.667969-26.628906-68.410157-31.730469-35.742187-5.105469-38.816406 16.421875-74.558593 11.320313-27.707031-3.957032-32.09375-17.78125-49.3125-26.175782-5.890625-2.871094-12.761719 1.371094-12.761719 7.925782v269.683593c0 18.28125 14.820312 33.105469 33.105469 33.105469h346.929687c18.285156 0 33.105469-14.820312 33.105469-33.105469v-213.246093c0-5.453126-4.898437-9.628907-10.277344-8.726563-19.015625 3.191406-27.058593 15.328125-54.855469 11.359375zm0 0" fill="#ff9838"/><path d="m96.160156 409.964844h236.820313c5.875 0 10.636719-4.765625 10.636719-10.640625v-65.015625c0-5.875-4.761719-10.636719-10.636719-10.636719h-236.820313c-5.875 0-10.636718 4.761719-10.636718 10.636719v65.015625c0 5.875 4.761718 10.640625 10.636718 10.640625zm0 0" fill="#fef1da"/><path d="m410.863281 249.421875c-13.289062 2.230469-21.226562 8.820313-34.28125 11.242187h.027344c7.09375 0 12.847656 5.75 12.847656 12.847657v198.042969c0 17.1875-13.101562 31.3125-29.863281 32.945312h28.441406c18.285156 0 33.105469-14.824219 33.105469-33.109375v-213.242187c0-5.453126-4.898437-9.628907-10.277344-8.726563zm0 0" fill="#ff8709"/><path d="m409.621094 242.027344c-20.816406 3.488281-26.898438 14.996094-52.554688 11.328125-32.6875-4.667969-30.355468-26.296875-68.410156-31.730469-38.023438-5.433594-41.785156 15.992188-74.550781 11.320312-32.691407-4.667968-30.355469-26.296874-68.414063-31.730468-37.742187-5.390625-42.085937 15.960937-74.558594 11.320312-25.503906-3.640625-28.320312-16.34375-47.085937-25.488281-10.875-5.300781-23.546875 2.574219-23.546875 14.664063v269.683593c0 22.390625 18.214844 40.605469 40.605469 40.605469h346.929687c22.390625 0 40.605469-18.214844 40.605469-40.605469v-213.246093c0-10.101563-9.078125-17.789063-19.019531-16.121094zm4.019531 229.367187c0 14.117188-11.484375 25.605469-25.605469 25.605469h-346.929687c-14.117188 0-25.605469-11.488281-25.605469-25.605469v-269.683593c0-1 1.042969-1.636719 1.976562-1.183594 15.691407 7.648437 21.695313 22.597656 51.539063 26.855468 37.738281 5.390626 42.089844-15.957031 74.558594-11.320312 32.6875 4.667969 30.355469 26.296875 68.410156 31.734375 37.898437 5.410156 41.9375-15.976563 74.554687-11.324219 32.6875 4.667969 30.355469 26.300782 68.410157 31.730469 29.90625 4.273437 39.90625-8.492187 57.15625-11.382813.796875-.132812 1.535156.496094 1.535156 1.328126zm0 0"/><path d="m28.5 163.945312v-19.898437h114.046875v36.574219c0 9.914062 15 9.933594 15 0v-36.574219h114.046875v55.253906c0 9.914063 15 9.929688 15 0v-55.253906h114.046875v76.597656c0 9.914063 15 9.933594 15 0v-198.984375c0-11.941406-9.714844-21.660156-21.660156-21.660156h-358.820313c-11.941406 0-21.660156 9.71875-21.660156 21.660156v142.285156c0 9.914063 15 9.933594 15 0zm258.09375-148.945312h107.386719c3.671875 0 6.660156 2.988281 6.660156 6.660156v107.386719h-114.046875zm-258.09375 6.660156c0-3.671875 2.988281-6.660156 6.660156-6.660156h107.386719v41.382812c0 9.914063 15 9.929688 15 0v-41.382812h114.046875v114.046875h-114.046875v-41.898437c0-9.914063-15-9.929688-15 0v41.898437h-114.046875zm0 0"/><path d="m332.980469 316.171875h-236.820313c-10 0-18.136718 8.136719-18.136718 18.140625v65.015625c0 10 8.136718 18.136719 18.136718 18.136719h236.820313c10 0 18.136719-8.136719 18.136719-18.136719v-65.015625c0-10.003906-8.136719-18.140625-18.136719-18.140625zm3.136719 83.152344c0 1.730469-1.40625 3.140625-3.136719 3.140625h-236.820313c-1.726562 0-3.136718-1.410156-3.136718-3.140625v-65.015625c0-1.730469 1.410156-3.136719 3.136718-3.136719h236.820313c1.730469 0 3.136719 1.40625 3.136719 3.136719zm0 0"/></svg>