<?xml version="1.0" encoding="iso-8859-1"?>
<!-- Generator: Adobe Illustrator 19.0.0, SVG Export Plug-In . SVG Version: 6.00 Build 0)  -->
<svg version="1.1" id="Layer_1" xmlns="http://www.w3.org/2000/svg" xmlns:xlink="http://www.w3.org/1999/xlink" x="0px" y="0px"
	 viewBox="0 0 512.001 512.001" style="enable-background:new 0 0 512.001 512.001;" xml:space="preserve">
<circle style="fill:#F2F2F2;" cx="256.001" cy="256.024" r="247.111"/>
<circle style="fill:#E6E6E6;" cx="256.001" cy="256.024" r="159.581"/>
<g>
	<path style="fill:#FFFFFF;" d="M208.417,108.963h-68.29c-16.603,0-30.062,13.46-30.062,30.063v68.29
		c0,16.603,13.46,30.063,30.062,30.063h68.29c16.603,0,30.062-13.46,30.062-30.063v-68.29
		C238.479,122.423,225.02,108.963,208.417,108.963z"/>
	<path style="fill:#FFFFFF;" d="M303.585,403.089h68.29c16.603,0,30.063-13.46,30.063-30.063v-68.29
		c0-16.603-13.46-30.063-30.063-30.063h-68.29c-16.603,0-30.063,13.46-30.063,30.063v68.29
		C273.522,389.63,286.982,403.089,303.585,403.089z"/>
</g>
<g>
	<rect x="273.518" y="108.959" style="fill:#808080;" width="128.409" height="128.409"/>
	<rect x="110.062" y="274.68" style="fill:#808080;" width="128.409" height="128.409"/>
</g>
<g>
	<rect x="110.062" y="274.68" style="fill:#666666;" width="24.333" height="128.409"/>
	<rect x="273.518" y="108.959" style="fill:#666666;" width="24.333" height="128.409"/>
</g>
<g>
	<circle style="fill:#F97E62;" cx="174.266" cy="173.164" r="27.239"/>
	<circle style="fill:#F97E62;" cx="337.723" cy="338.885" r="27.239"/>
</g>
<path d="M437.02,74.981C388.668,26.629,324.381,0,256.001,0c-41.007,0-81.785,9.932-117.928,28.722
	c-34.969,18.18-65.758,44.661-89.038,76.579c-2.893,3.967-2.023,9.527,1.944,12.42s9.527,2.021,12.42-1.944
	c21.67-29.712,50.327-54.36,82.875-71.282c33.621-17.478,71.564-26.717,109.727-26.717c131.356,0,238.221,106.866,238.221,238.222
	S387.355,494.223,256.001,494.223C124.645,494.221,17.779,387.356,17.779,256.001c0-39.662,9.941-78.925,28.747-113.544
	c2.343-4.314,0.746-9.711-3.568-12.054c-4.315-2.343-9.711-0.746-12.054,3.568C10.686,171.186,0,213.383,0,256.001
	c0,68.38,26.629,132.668,74.981,181.02s112.64,74.981,181.02,74.981s132.668-26.629,181.02-74.981s74.981-112.64,74.981-181.02
	S485.371,123.333,437.02,74.981z"/>
<path d="M140.127,246.241h68.29c21.479,0,38.952-17.474,38.952-38.952v-68.29c0-21.479-17.474-38.952-38.952-38.952h-68.29
	c-21.479,0-38.952,17.474-38.952,38.952v68.29C101.175,228.768,118.648,246.241,140.127,246.241z M118.953,138.999
	c0-11.676,9.499-21.173,21.173-21.173h68.29c11.676,0,21.173,9.499,21.173,21.173v68.29c0,11.676-9.499,21.173-21.173,21.173h-68.29
	c-11.676,0-21.173-9.499-21.173-21.173V138.999z"/>
<path d="M342.643,117.826c4.909,0,8.889-3.98,8.889-8.889s-3.98-8.889-8.889-8.889h-69.121c-4.909,0-8.889,3.98-8.889,8.889v128.415
	c0,4.909,3.98,8.889,8.889,8.889h128.415c4.909,0,8.889-3.98,8.889-8.889V108.937c0-4.909-3.98-8.889-8.889-8.889h-29.663
	c-4.909,0-8.889,3.98-8.889,8.889s3.98,8.889,8.889,8.889h20.774v110.637H282.411V117.826H342.643z"/>
<path d="M174.271,209.274c19.922,0,36.129-16.207,36.129-36.129s-16.207-36.129-36.129-36.129s-36.129,16.207-36.129,36.129
	C138.142,193.067,154.349,209.274,174.271,209.274z M174.271,154.795c10.118,0,18.35,8.232,18.35,18.35
	c0,10.118-8.232,18.35-18.35,18.35c-10.118,0-18.35-8.232-18.35-18.35C155.921,163.027,164.153,154.795,174.271,154.795z"/>
<path d="M264.633,373.001c0,21.479,17.474,38.952,38.952,38.952h68.29c21.479,0,38.952-17.474,38.952-38.952v-68.29
	c0-21.479-17.474-38.952-38.952-38.952h-68.29c-21.479,0-38.952,17.474-38.952,38.952L264.633,373.001L264.633,373.001z
	 M282.411,304.711c0-11.676,9.499-21.173,21.173-21.173h68.29c11.676,0,21.173,9.499,21.173,21.173v68.29
	c0,11.676-9.499,21.173-21.173,21.173h-68.29c-11.676,0-21.173-9.499-21.173-21.173V304.711z"/>
<path d="M101.175,403.063c0,4.909,3.98,8.889,8.889,8.889h128.415c4.909,0,8.889-3.98,8.889-8.889V274.648
	c0-4.909-3.98-8.889-8.889-8.889H110.064c-4.909,0-8.889,3.98-8.889,8.889V403.063z M118.953,283.537H229.59v110.636H118.953
	V283.537z"/>
<path d="M337.729,374.985c19.922,0,36.129-16.207,36.129-36.129c0-6.537-1.767-12.944-5.11-18.53
	c-2.521-4.212-7.979-5.585-12.193-3.064c-4.212,2.521-5.584,7.979-3.064,12.193c1.693,2.828,2.587,6.079,2.587,9.401
	c0,10.118-8.232,18.35-18.35,18.35s-18.35-8.232-18.35-18.35s8.232-18.35,18.35-18.35c4.909,0,8.889-3.98,8.889-8.889
	s-3.98-8.889-8.889-8.889c-19.922,0-36.129,16.207-36.129,36.129C301.6,358.778,317.807,374.985,337.729,374.985z"/>
<g>
</g>
<g>
</g>
<g>
</g>
<g>
</g>
<g>
</g>
<g>
</g>
<g>
</g>
<g>
</g>
<g>
</g>
<g>
</g>
<g>
</g>
<g>
</g>
<g>
</g>
<g>
</g>
<g>
</g>
</svg>
