<svg height="512pt" viewBox="-9 0 512 512.0045" width="512pt" xmlns="http://www.w3.org/2000/svg"><path d="m115.328125 64.40625c-2.289063-18.539062 6.597656-38.019531 22.09375-48.453125 15.496094-10.429687 36.890625-11.324219 53.203125-2.226563 8.34375 4.652344 15.703125 11.78125 25.128906 13.339844 22.179688 3.679688 42.964844-24.933594 63.453125-15.671875 8.75 3.957031 13.695313 13.875 22.507813 17.6875 11.277344 4.871094 23.789062-1.835937 35.308594-6.117187 24.878906-9.25 56.558593 1.1875 62.488281 29.058594 2.972656 13.96875-.417969 20.144531 9.1875 33.113281 8.5 11.46875 20.820312 19.484375 25.390625 33.707031 6.613281 20.589844-6.582032 42.984375-2.609375 64.238281 5.015625 26.835938 36.234375 46.753907 31.726562 73.683594-1.339843 8-5.886719 15.316406-6.402343 23.414063-1.347657 21.050781 23.554687 34.6875 28.398437 55.214843 4.226563 17.898438-11.113281 37.6875-29.5 38.058594l-32.390625 6.535156-302.339844-289.539062zm0 0" fill="#80cf00"/><path d="m455.699219 373.453125-9.765625 1.972656c8.175781-7.71875 12.777344-19.421875 10.175781-30.445312-4.988281-21.132813-30.617187-35.164063-29.230469-56.828125.53125-8.335938 5.207032-15.871094 6.582032-24.101563 4.644531-27.714843-27.488282-48.222656-32.652344-75.839843-4.082032-21.871094 9.492187-44.921876 2.683594-66.109376-4.699219-14.636718-17.375-22.886718-26.125-34.699218-9.882813-13.339844-6.398438-19.703125-9.460938-34.082032-3.410156-16.066406-15.148438-26.503906-29.308594-30.910156 24.621094-8.25 55.109375 2.328125 60.910156 29.609375 2.976563 13.96875-.410156 20.148438 9.191407 33.121094 8.5 11.464844 20.820312 19.484375 25.390625 33.703125 6.613281 20.589844-6.582032 42.980469-2.609375 64.234375 5.011719 26.835937 36.238281 46.757813 31.722656 73.683594-1.332031 8-5.878906 15.320312-6.398437 23.417969-1.34375 21.046874 23.558593 34.691406 28.398437 55.207031 4.222656 17.90625-11.109375 37.6875-29.503906 38.066406zm0 0" fill="#6db000"/><path d="m317.878906 183.53125c0 56.03125-45.421875 101.453125-101.453125 101.453125s-101.453125-45.421875-101.453125-101.453125 45.421875-101.453125 101.453125-101.453125 101.453125 45.421875 101.453125 101.453125zm0 0" fill="#f72c2c"/><path d="m317.875 183.53125c0 56.027344-45.417969 101.457031-101.445312 101.457031-22.921876 0-44.0625-7.601562-61.039063-20.410156 9.460937 2.914063 19.519531 4.484375 29.933594 4.484375 56.027343 0 101.457031-45.429688 101.457031-101.457031 0-33.128907-15.871094-62.546875-40.4375-81.050781 41.421875 12.765624 71.53125 51.363281 71.53125 96.976562zm0 0" fill="#e32929"/><path d="m325.078125 301.503906 107.773437 107.773438-9.710937-173.207032c-.988281-17.597656-15.035156-31.644531-32.632813-32.632812l-173.207031-9.707031zm0 0" fill="#ffc143"/><path d="m432.851562 409.28125-25.621093-25.621094-8.730469-155.542968c-.558594-10.078126-5.402344-18.988282-12.753906-24.949219l4.765625.269531c17.597656.988281 31.640625 15.042969 32.628906 32.628906zm0 0" fill="#eeb900"/><path d="m468.113281 427.785156c5.855469-6.226562 7.804688-15.324218 4.550781-23.226562-6.324218-15.363282 3.238282-31.492188-12.617187-46.398438-19.515625-18.347656-38.5 1.847656-58.015625-16.503906-19.515625-18.347656-.527344-38.539062-20.042969-56.886719-19.511719-18.347656-38.496093 1.84375-58.007812-16.5-19.515625-18.347656-.53125-38.542969-20.042969-56.890625-19.515625-18.347656-38.503906 1.847656-58.015625-16.503906-19.515625-18.347656-.53125-38.539062-20.042969-56.890625-19.515625-18.347656-38.503906 1.847656-58.015625-16.503906-19.519531-18.351563-.53125-38.542969-20.050781-56.894531-15.859375-14.910157-31.363281-4.375-47.089844-9.742188-8.089844-2.761719-17.050781-.257812-22.90625 5.96875l-9.84375 10.472656c-15.214844 16.175782-14.429687 41.625 1.75 56.835938l331.707032 311.886718c16.179687 15.210938 41.625 14.429688 56.839843-1.75zm0 0" fill="#d1f29c"/><path d="m468.117188 427.789062-9.847657 10.46875c-15.210937 16.179688-40.660156 16.957032-56.84375 1.746094l-11.324219-10.65625c14.210938 4.394532 30.324219.699219 41.199219-10.867187l9.847657-10.476563c5.855468-6.222656 7.800781-15.324218 4.554687-23.222656-4.734375-11.496094-.566406-23.433594-4.832031-34.960938 6.363281.429688 12.742187 2.289063 19.175781 8.339844 15.851563 14.902344 6.292969 31.035156 12.617187 46.398438 3.253907 7.898437 1.304688 16.996094-4.546874 23.230468zm0 0" fill="#bddb82"/><path d="m7.492188 82.757812v396.027344c0 14.207032 11.519531 25.726563 25.730468 25.726563h410.867188c23.148437 0 34.519531-28.1875 17.851562-44.25l-410.863281-396.027344c-16.339844-15.75-43.585937-4.171875-43.585937 18.523437zm0 0" fill="#f78e3c"/><path d="m444.085938 504.515625h-9.289063c1.484375-7.761719-.578125-16.273437-7.3125-22.769531l-402.769531-388.21875c-5.0625-4.882813-11.199219-7.085938-17.21875-7.117188v-3.65625c0-22.691406 27.242187-34.269531 43.578125-18.527344l410.867187 396.03125c16.671875 16.066407 5.292969 44.257813-17.855468 44.257813zm0 0" fill="#e8782d"/><path d="m492.496094 333.671875c-2.523438-10.691406-9.175782-19.164063-15.605469-27.355469-7.070313-9.003906-13.179687-16.78125-12.613281-25.660156.222656-3.4375 1.535156-7.089844 2.921875-10.957031 1.320312-3.675781 2.6875-7.476563 3.394531-11.699219 3.054688-18.25-6.996094-32.898438-16.714844-47.0625-6.761718-9.859375-13.152344-19.167969-15.035156-29.234375-.117188-.628906-.222656-1.277344-.304688-1.929687-.53125-4.105469-4.285156-7.007813-8.390624-6.472657-4.101563.53125-7 4.289063-6.46875 8.390625.121093.929688.269531 1.863282.4375 2.765625 2.464843 13.175781 10.0625 24.25 17.410156 34.957031 8.773437 12.785157 16.347656 23.824219 14.289062 36.109376-.484375 2.898437-1.566406 5.914062-2.714844 9.105468-1.601562 4.460938-3.417968 9.515625-3.773437 15.070313-.933594 14.585937 7.945313 25.894531 15.777344 35.871093 5.679687 7.230469 11.042969 14.0625 12.808593 21.539063 1.46875 6.226563-.363281 13.441406-4.902343 19.292969-.726563.9375-1.507813 1.8125-2.328125 2.625-1.484375-2.128906-3.292969-4.246094-5.503906-6.324219-9.789063-9.203125-19.816407-10.554687-28.582032-10.480469l-5.976562-106.574218c-1.199219-21.425782-18.261719-38.488282-39.6875-39.691407l-65.921875-3.695312c.230469-2.882813.363281-5.792969.363281-8.730469 0-60.074219-48.875-108.945312-108.945312-108.945312-18.515626 0-35.960938 4.648437-51.242188 12.828124-.429688-8.855468-2.300781-18.941406-12.242188-28.289062-10.058593-9.457031-20.367187-10.621094-29.304687-10.46875 2.496094-10.628906 8.886719-20.378906 17.964844-26.488281 13.222656-8.898438 31.457031-9.660157 45.375-1.902344 2.3125 1.292969 4.609375 2.84375 7.042969 4.480469 5.8125 3.921875 12.402343 8.367187 20.507812 9.710937 12.855469 2.128907 24.617188-4.097656 34.996094-9.59375 11.835937-6.265625 19.535156-9.835937 26.597656-6.644531 3.070312 1.390625 5.898438 4.234375 8.894531 7.242188 3.726563 3.75 7.949219 7.996093 13.726563 10.492187 12.386718 5.355469 24.742187.425781 35.644531-3.925781 1.824219-.726563 3.546875-1.414063 5.246094-2.046875 11.914062-4.429688 25.890625-3.570313 36.472656 2.246093 5.957031 3.277344 13.585937 9.640626 16.078125 21.351563.835938 3.9375 1.113281 7.222656 1.382812 10.398437.648438 7.722657 1.261719 15.019532 9.113282 25.617188 3.1875 4.296875 6.753906 8.042969 10.203125 11.660156 5.964843 6.253906 11.59375 12.160156 14.074219 19.878906 1.167968 3.640626 1.660156 7.703126 1.496093 12.425782-.0625.8125-.414062 5.125-1.015625 9.203125l-.605468 2.734375c-.898438 4.039062 1.648437 8.039062 5.6875 8.9375 4.035156.898437 8.042968-1.652344 8.9375-5.691406l.664062-2.996094c.039062-.167969.070312-.339844.097656-.511719.769532-5.140625 1.171875-10.472656 1.1875-10.699219.007813-.089844.011719-.183594.015625-.277344.242188-6.554687-.480469-12.347656-2.199219-17.707031-3.53125-10.988281-10.628906-18.433593-17.492187-25.636719-3.28125-3.4375-6.378906-6.6875-9.011719-10.242187-5.316406-7.175781-5.660156-11.234375-6.222656-17.957031-.292969-3.46875-.625-7.398438-1.65625-12.253906-2.867188-13.464844-11.214844-24.601563-23.515625-31.363282-14.503906-7.972656-32.789063-9.152344-48.910156-3.160156-1.867188.691406-3.753907 1.445312-5.578125 2.175781-8.984375 3.585938-17.472656 6.972657-24.148438 4.085938-3.132812-1.351563-6.007812-4.242188-9.050781-7.304688-3.640625-3.660156-7.761719-7.804687-13.34375-10.328125-14.269531-6.449218-27.820313.722656-39.78125 7.054688-9.089844 4.8125-17.660156 9.359375-25.535156 8.054687-4.882813-.8125-9.589844-3.988281-14.578125-7.351562-2.582032-1.742188-5.253906-3.542969-8.125-5.144531-18.722656-10.441407-43.253906-9.414063-61.035156 2.554687-13.195313 8.882813-22.183594 23.472656-24.882813 39.101563-1.792969-.183594-3.535156-.511719-5.214844-1.085938-10.722656-3.660156-22.808593-.550781-30.78125 7.929688l-9.203125 9.789062-6.878906-6.632812c-9.757812-9.40625-23.570312-11.957032-36.046875-6.652344-12.476563 5.300781-20.2265625 17.015625-20.2265625 30.570312v246.070313c0 4.140625 3.3515625 7.492187 7.4921875 7.492187 4.136719 0 7.488281-3.351562 7.488281-7.492187v-246.066407c0-8.894531 5.738281-14.503906 11.105469-16.785156s13.386719-2.519531 19.789062 3.65625l410.867188 396.027344c6.53125 6.296875 6.480469 14.433594 4.253906 19.953125-2.226562 5.515625-7.835937 11.414063-16.910156 11.414063h-410.871094c-10.058594 0-18.238281-8.183594-18.238281-18.238282v-116.417968c0-4.136719-3.351563-7.492188-7.492187-7.492188-4.136719 0-7.48828175 3.355469-7.48828175 7.492188v116.417968c0 18.316406 14.90234375 33.21875 33.21874975 33.21875h410.863282c13.828124 0 25.632812-7.964844 30.808593-20.789062 5.171875-12.824219 2.203125-26.75-7.753906-36.347656l-7.722656-7.445313c1.5-1.238281 2.941406-2.578125 4.308593-4.035156l9.84375-10.472657c7.972657-8.476562 10.335938-20.726562 6.019532-31.207031-1.886719-4.589843-1.960938-9.746093-2.035156-15.203125-.050782-3.976562-.113282-8.339844-.925782-12.867187 3.019532-2.226563 5.796875-4.921875 8.222656-8.054688 7.394532-9.535156 10.179688-21.164062 7.644532-31.910156zm-102.40625-122.753906c13.804687.773437 24.796875 11.769531 25.574218 25.574219l5.941407 106.019531c-5.0625-.367188-9.683594-1.835938-14.441407-6.3125-7.441406-6.996094-7.539062-14.097657-7.664062-23.089844-.136719-10-.308594-22.445313-12.378906-33.796875-12.074219-11.351562-24.511719-10.753906-34.496094-10.273438-8.984375.429688-16.074219.769532-23.515625-6.226562s-7.539063-14.097656-7.660156-23.089844c-.136719-9.859375-.3125-22.097656-11.886719-33.316406zm-173.664063-121.351563c51.8125 0 93.964844 42.152344 93.964844 93.964844 0 2.660156-.136719 5.289062-.359375 7.894531l-60.34375-3.382812c-6.085938-6.558594-6.183594-13.3125-6.296875-21.714844-.136719-10-.308594-22.449219-12.382813-33.800781-12.070312-11.351563-24.507812-10.753906-34.496093-10.277344-8.984375.429688-16.078125.769531-23.519531-6.226562-4.0625-3.820313-5.929688-7.671876-6.8125-11.84375 14.542968-9.242188 31.777343-14.613282 50.246093-14.613282zm246.230469 333.085938-9.84375 10.472656c-1.335938 1.417969-2.769531 2.683594-4.277344 3.804688l-374.59375-361.0625 9.332032-9.921876c2.878906-3.0625 6.785156-4.726562 10.695312-4.726562 1.460938 0 2.925781.230469 4.332031.710938 7.402344 2.527343 14.550781 2.1875 20.859375 1.882812 8.984375-.425781 16.078125-.765625 23.519532 6.230469 7.445312 7 7.542968 14.101562 7.667968 23.09375.136719 10.003906.308594 22.449219 12.382813 33.804687 12.070312 11.347656 24.503906 10.753906 34.496093 10.273438 8.984376-.429688 16.078126-.769532 23.519532 6.230468 7.441406 6.996094 7.539062 14.097657 7.664062 23.089844.136719 10 .308594 22.449219 12.378906 33.800782 12.074219 11.347656 24.503907 10.753906 34.496094 10.273437 8.984375-.429687 16.078125-.769531 23.519532 6.226563 7.441406 7 7.539062 14.101562 7.660156 23.089843.140625 10.003907.308594 22.449219 12.382812 33.800781 12.074219 11.351563 24.507813 10.753907 34.496094 10.273438 8.976562-.429688 16.074219-.769531 23.515625 6.226562 7.4375 6.996094 7.539063 14.097657 7.660156 23.089844.136719 10 .308594 22.449219 12.378907 33.796875 12.074218 11.351563 24.507812 10.757813 34.5 10.277344 8.980468-.429687 16.074218-.769531 23.515624 6.226563 7.445313 6.996093 7.539063 14.097656 7.664063 23.089843.085937 6.316407.183594 13.472657 3.160156 20.703125 2.078125 5.054688.871094 11.039063-3.082031 15.242188zm0 0"/><path d="m33.914062 167.21875c-1.917968 0-3.835937-.730469-5.296874-2.195312-2.925782-2.925782-2.925782-7.667969 0-10.59375l27.699218-27.699219c2.925782-2.925781 7.667969-2.925781 10.59375 0 2.925782 2.925781 2.925782 7.667969 0 10.59375l-27.699218 27.699219c-1.464844 1.464843-3.382813 2.195312-5.296876 2.195312zm0 0"/><path d="m47.765625 277.117188c-1.917969 0-3.835937-.730469-5.300781-2.195313-2.921875-2.925781-2.921875-7.667969 0-10.59375l81.53125-81.527344c2.925781-2.925781 7.667968-2.925781 10.59375 0 2.925781 2.925781 2.925781 7.667969 0 10.59375l-81.527344 81.527344c-1.464844 1.464844-3.382812 2.195313-5.296875 2.195313zm0 0"/><path d="m60.480469 388.148438c-1.917969 0-3.832031-.730469-5.296875-2.195313-2.925782-2.921875-2.925782-7.667969 0-10.589844l128.027344-128.027343c2.925781-2.925782 7.667968-2.925782 10.59375 0 2.921874 2.925781 2.925781 7.671874 0 10.59375l-128.023438 128.027343c-1.464844 1.460938-3.382812 2.191407-5.300781 2.191407zm0 0"/><path d="m116.335938 456.046875c-1.914063 0-3.832032-.734375-5.296876-2.195313-2.925781-2.925781-2.925781-7.667968 0-10.59375l133.527344-133.527343c2.925782-2.925781 7.667969-2.925781 10.59375 0 2.925782 2.925781 2.925782 7.671875 0 10.59375l-133.523437 133.527343c-1.464844 1.460938-3.382813 2.195313-5.300781 2.195313zm0 0"/><path d="m226.1875 469.945312c-1.917969 0-3.832031-.734374-5.296875-2.195312-2.925781-2.925781-2.925781-7.667969 0-10.59375l89.488281-89.488281c2.925782-2.925781 7.667969-2.925781 10.59375 0 2.925782 2.925781 2.925782 7.667969 0 10.59375l-89.488281 89.488281c-1.460937 1.460938-3.378906 2.195312-5.296875 2.195312zm0 0"/><path d="m347.40625 472.476562c-1.917969 0-3.835938-.730468-5.296875-2.195312-2.925781-2.925781-2.925781-7.667969 0-10.59375l32.863281-32.863281c2.925782-2.925781 7.667969-2.925781 10.59375 0 2.925782 2.925781 2.925782 7.667969 0 10.59375l-32.863281 32.863281c-1.464844 1.464844-3.378906 2.195312-5.296875 2.195312zm0 0"/></svg>