<?xml version="1.0" encoding="iso-8859-1"?>
<!-- Generator: Adobe Illustrator 19.0.0, SVG Export Plug-In . SVG Version: 6.00 Build 0)  -->
<svg version="1.1" id="Layer_1" xmlns="http://www.w3.org/2000/svg" xmlns:xlink="http://www.w3.org/1999/xlink" x="0px" y="0px"
	 viewBox="0 0 512 512" style="enable-background:new 0 0 512 512;" xml:space="preserve">
<g>
	<path style="fill:#A3E261;" d="M248.588,134.745l-94.889,25.47c-0.701-0.667-1.38-1.335-2.058-2.013
		c-4.841-4.841-9.331-10.043-13.413-15.562c-16.965-22.925-26.997-51.279-26.997-81.974V9.613
		c60.417,0,111.764,38.838,130.413,92.899C245.195,112.759,247.558,123.56,248.588,134.745z"/>
	<path style="fill:#A3E261;" d="M387.122,9.613v51.053c0,27.11-7.826,52.398-21.342,73.717c-4.524,7.159-9.704,13.866-15.449,20.052
		l-100.544-19.69c1.029-11.185,3.393-21.986,6.933-32.233C275.369,48.451,326.716,9.613,387.122,9.613z"/>
</g>
<path style="fill:#F94848;" d="M246.192,503.518h19.645c45.279,0,85.426-29.109,99.501-72.144l42.143-128.845
	c12.469-38.123,4.837-79.965-20.29-111.23l-9.823-12.223c-22.525-28.028-56.543-44.331-92.501-44.331H227.16
	c-35.957,0-69.976,16.303-92.501,44.331l-9.823,12.223c-25.126,31.265-32.759,73.107-20.29,111.23l42.143,128.845
	C160.766,474.408,200.913,503.518,246.192,503.518z"/>
<g>
	<path style="fill:#91C950;" d="M241.643,102.512c3.551,10.247,5.915,21.048,6.944,32.233l-94.889,25.47
		c-0.701-0.667-1.38-1.335-2.058-2.013c-4.841-4.841-9.331-10.043-13.413-15.562c22.439-25.447,54.819-40.127,88.929-40.127H241.643
		z"/>
	<path style="fill:#91C950;" d="M365.78,134.383c-4.524,7.159-9.704,13.866-15.449,20.052l-100.544-19.69
		c1.029-11.185,3.393-21.986,6.933-32.233h28.15C315.101,102.512,343.963,114.048,365.78,134.383z"/>
</g>
<path style="fill:#DB3A3A;" d="M256.016,503.513h-9.817c-45.285,0-85.434-29.1-99.504-72.145l-42.152-128.841
	c-12.463-38.125-4.829-79.96,20.29-111.232l9.828-12.215c22.529-28.037,56.538-44.334,92.503-44.334h19.905
	c-29.586,0-56.775,16.297-70.72,42.389l-20.448,38.261c-8.98,16.795-11.683,36.237-7.645,54.853l38.634,177.564
	C193.959,480.328,222.742,503.513,256.016,503.513z"/>
<path d="M410.872,213.963c-1.903-4.281-6.915-6.207-11.197-4.305c-4.281,1.903-6.208,6.917-4.305,11.198
	c11.11,24.982,12.548,53.051,4.049,79.035l-42.143,128.845c-12.97,39.656-49.717,66.299-91.44,66.299h-19.645
	c-25.715,0-49.893-10.024-68.079-28.226c-3.312-3.314-8.683-3.316-11.996-0.005s-3.316,8.683-0.005,11.996
	C187.504,500.211,215.944,512,246.193,512h19.645c49.08,0,92.306-31.342,107.564-77.99l42.143-128.845
	C425.351,275.18,423.693,242.79,410.872,213.963z"/>
<path d="M162.147,213.933v26.822c0,4.685,3.798,8.482,8.482,8.482s8.482-3.798,8.482-8.482v-26.822c0-4.685-3.798-8.482-8.482-8.482
	S162.147,209.249,162.147,213.933z"/>
<path d="M144.904,310.583v26.822c0,4.685,3.798,8.482,8.482,8.482s8.482-3.798,8.482-8.482v-26.822c0-4.685-3.798-8.482-8.482-8.482
	S144.904,305.899,144.904,310.583z"/>
<path d="M323.083,213.933v26.822c0,4.685,3.798,8.482,8.482,8.482c4.685,0,8.482-3.798,8.482-8.482v-26.822
	c0-4.685-3.798-8.482-8.482-8.482C326.881,205.451,323.083,209.249,323.083,213.933z"/>
<path d="M364.136,287.835c-4.685,0-8.482,3.798-8.482,8.482v26.822c0,4.685,3.798,8.482,8.482,8.482
	c4.685,0,8.482-3.798,8.482-8.482v-26.822C372.618,291.633,368.82,287.835,364.136,287.835z"/>
<path d="M242.616,236.925v26.822c0,4.685,3.798,8.482,8.482,8.482c4.685,0,8.482-3.798,8.482-8.482v-26.822
	c0-4.685-3.798-8.482-8.482-8.482C246.414,228.442,242.616,232.24,242.616,236.925z"/>
<path d="M219.165,360.638c-4.685,0-8.482,3.798-8.482,8.482v26.822c0,4.685,3.798,8.482,8.482,8.482s8.482-3.798,8.482-8.482
	v-26.822C227.648,364.436,223.85,360.638,219.165,360.638z"/>
<path d="M288.596,336.552v26.822c0,4.685,3.798,8.482,8.482,8.482c4.685,0,8.482-3.798,8.482-8.482v-26.822
	c0-4.685-3.798-8.482-8.482-8.482C292.394,328.07,288.596,331.867,288.596,336.552z"/>
<path d="M267.521,426.6v26.822c0,4.685,3.798,8.482,8.482,8.482c4.685,0,8.482-3.798,8.482-8.482V426.6
	c0-4.685-3.798-8.482-8.482-8.482C271.319,418.117,267.521,421.915,267.521,426.6z"/>
<path d="M154.752,428.736L112.61,299.891c-11.622-35.531-4.579-74.14,18.839-103.279l9.823-12.223
	c21.023-26.16,52.328-41.163,85.889-41.163h57.708c33.56,0,64.865,15.004,85.889,41.163l9.823,12.223
	c2.935,3.652,8.274,4.233,11.925,1.298c3.652-2.935,4.233-8.274,1.298-11.925l-9.823-12.223
	c-6.451-8.027-13.747-15.133-21.701-21.256c21.544-26.149,33.323-58.834,33.323-92.971V8.482c0-4.685-3.798-8.482-8.482-8.482
	c-36.74,0-71.875,13.666-98.931,38.481c-17.781,16.308-31.076,36.488-39.005,58.752c-7.933-22.266-21.229-42.446-39.012-58.752
	C183.112,13.666,147.973,0,111.23,0c-4.685,0-8.482,3.798-8.482,8.482v51.053c0,31.593,9.911,61.684,28.662,87.019
	c1.664,2.248,4.226,3.437,6.824,3.437c1.753,0,3.522-0.542,5.04-1.665c3.765-2.787,4.559-8.099,1.771-11.864
	c-16.573-22.392-25.333-48.994-25.333-76.927V17.241c29.382,1.911,57.162,13.723,78.995,33.743
	c21.748,19.943,35.908,46.428,40.419,75.278h-11.965c-6.132,0-12.199,0.437-18.164,1.287c-2.487-16.36-11.336-36.229-26.447-59.261
	c-2.57-3.917-7.829-5.008-11.745-2.44c-3.917,2.57-5.009,7.829-2.44,11.745c13.983,21.314,22.197,39.631,24.025,53.471
	c-25.083,7.089-47.556,21.808-64.344,42.698l-9.823,12.223c-27.024,33.625-35.151,78.179-21.74,119.181l42.143,128.845
	c2.194,6.708,5.025,13.233,8.413,19.393c1.545,2.808,4.446,4.396,7.44,4.396c1.382,0,2.783-0.338,4.081-1.052
	c4.104-2.257,5.602-7.416,3.344-11.52C159.025,439.99,156.618,434.442,154.752,428.736z M299.656,50.984
	c21.829-20.02,49.606-31.831,78.983-33.743v42.294c0,30.754-10.804,60.175-30.542,83.504c-8.666-4.972-17.894-8.904-27.52-11.706
	c1.756-13.87,9.976-32.284,24.053-53.739c2.57-3.917,1.478-9.176-2.44-11.745c-3.918-2.57-9.176-1.478-11.745,2.44
	c-15.156,23.101-24.011,43.021-26.467,59.408c-6.269-0.942-12.651-1.434-19.108-1.434h-25.622
	C263.753,97.413,277.91,70.927,299.656,50.984z"/>
<g>
</g>
<g>
</g>
<g>
</g>
<g>
</g>
<g>
</g>
<g>
</g>
<g>
</g>
<g>
</g>
<g>
</g>
<g>
</g>
<g>
</g>
<g>
</g>
<g>
</g>
<g>
</g>
<g>
</g>
</svg>
