<svg height="512pt" viewBox="0 -25 512.00066 512" width="512pt" xmlns="http://www.w3.org/2000/svg"><path d="m497.507812 59.523438c10.976563-13.445313 8.785157-33.339844-4.996093-44.054688-13.195313-10.261719-32.410157-8.082031-42.988281 4.863281-6.914063 8.457031-26.515626 59.359375-75.523438 119.394531l-4.96875 6.085938 21.65625 17.679688 4.96875-6.085938c49.332031-60.433594 94.828125-89.285156 101.851562-97.882812zm0 0" fill="#eab765"/><path d="m380.160156 132.039062c0 68.78125-55.757812 124.539063-124.539062 124.539063-68.777344 0-124.535156-55.757813-124.535156-124.539063s55.757812-124.535156 124.535156-124.535156c68.78125 0 124.539062 55.753906 124.539062 124.535156zm0 0" fill="#fff58c"/><path d="m255.621094 7.5c-5.816406 0-11.535156.410156-17.140625 1.179688 60.667969 8.355468 107.394531 60.394531 107.394531 123.359374 0 62.964844-46.726562 115.003907-107.394531 123.359376 5.605469.769531 11.324219 1.179687 17.140625 1.179687 68.78125 0 124.539062-55.757813 124.539062-124.539063s-55.757812-124.539062-124.539062-124.539062zm0 0" fill="#ffea00"/><path d="m467.320312 224.273438c0 68.78125-55.757812 124.535156-124.535156 124.535156-68.78125 0-124.539062-55.753906-124.539062-124.535156s55.757812-124.535157 124.539062-124.535157c68.777344 0 124.535156 55.753907 124.535156 124.535157zm0 0" fill="#cc98e8"/><path d="m342.785156 99.734375c-5.5 0-10.917968.363281-16.226562 1.054687 61.113281 7.953126 108.308594 60.203126 108.308594 123.484376s-47.195313 115.53125-108.308594 123.484374c5.308594.691407 10.726562 1.054688 16.226562 1.054688 68.777344 0 124.535156-55.757812 124.535156-124.539062s-55.757812-124.539063-124.535156-124.539063zm0 0" fill="#bf80e2"/><path d="m292.996094 224.273438c0 68.78125-55.757813 124.535156-124.535156 124.535156-68.78125 0-124.539063-55.753906-124.539063-124.535156s55.757813-124.535157 124.539063-124.535157c68.777343 0 124.535156 55.753907 124.535156 124.535157zm0 0" fill="#ff646f"/><path d="m168.460938 99.734375c-5.644532 0-11.199219.382813-16.644532 1.109375 60.910156 8.136719 107.894532 60.292969 107.894532 123.429688 0 63.136718-46.984376 115.292968-107.894532 123.429687 5.445313.726563 11 1.109375 16.644532 1.109375 68.777343 0 124.535156-55.757812 124.535156-124.539062s-55.757813-124.539063-124.535156-124.539063zm0 0" fill="#ff4755"/><path d="m363.257812 454.664062h-215.273437c-41.519531 0-77.164063-29.546874-84.859375-70.347656l-28.042969-148.695312h441.082031l-28.046874 148.695312c-7.695313 40.800782-43.339844 70.347656-84.859376 70.347656zm0 0" fill="#deecf1"/><path d="m444.707031 235.621094-28.046875 148.695312c-7.691406 40.800782-43.335937 70.347656-84.855468 70.347656h31.453124c41.519532 0 77.164063-29.546874 84.859376-70.347656l28.042968-148.695312zm0 0" fill="#a8d3d8"/><path d="m159.421875 454.664062 219.046875-219.042968h-79.042969l-202.390625 202.390625c28.621094 20.929687 56.808594 15.941406 62.386719 16.652343zm0 0" fill="#ff646f"/><path d="m459.183594 325.636719 16.976562-90.015625h-6.003906l-219.042969 219.042968h79.042969zm0 0" fill="#ff646f"/><path d="m420.417969 364.402344 38.765625-38.765625 16.976562-90.015625h-6.003906l-31.367188 31.367187zm0 0" fill="#ff4755"/><path d="m207.734375 235.621094h-79.042969l-78.757812 78.757812 12.542968 66.5zm0 0" fill="#ff646f"/><path d="m485.597656 248.25h-459.953125c-10.019531 0-18.144531-8.121094-18.144531-18.144531 0-10.019531 8.125-18.144531 18.144531-18.144531h459.953125c10.019532 0 18.144532 8.125 18.144532 18.144531 0 10.023437-8.121094 18.144531-18.144532 18.144531zm0 0" fill="#a8d3d8"/><path d="m210.328125 64.8125c13.410156-9.066406 29.074219-13.859375 45.292969-13.859375 9.914062 0 9.933594-15 0-15-19.226563 0-37.792969 5.683594-53.695313 16.433594-8.214843 5.558593.175781 17.988281 8.402344 12.425781zm0 0"/><path d="m308.207031 150.929688c10.859375-5.140626 22.492188-7.746094 34.578125-7.746094 9.914063 0 9.929688-15 0-15-14.324218 0-28.117187 3.09375-40.996094 9.191406-9.058593 4.289062-2.460937 17.761719 6.417969 13.554688zm0 0"/><path d="m168.460938 128.183594c-18.765626 0-36.960938 5.4375-52.617188 15.71875-8.375 5.5.011719 17.933594 8.230469 12.535156 13.207031-8.671875 28.554687-13.253906 44.382812-13.253906 9.917969 0 9.929688-15 .003907-15zm0 0"/><path d="m485.597656 204.460938h-12.257812c-4.445313-29.5-18.777344-56.621094-40.84375-77.0625 23.058594-23.625 43.449218-40.058594 55.996094-50.171876 7.738281-6.234374 12.40625-10 14.824218-12.960937 13.679688-16.753906 10.890625-41.425781-6.199218-54.71875-16.339844-12.707031-40.296876-10-53.398438 6.035156-2.382812 2.917969-5.140625 8.238281-9.703125 17.054688-7.902344 15.269531-20.84375 40.277343-41.078125 69.46875-3.136719-1.289063-6.328125-2.457031-9.558594-3.5-15.117187-57.808594-67.515625-98.605469-127.757812-98.605469-47.710938 0-91.863282 25.878906-115.226563 67.535156-4.851562 8.648438 8.222657 15.996094 13.082031 7.335938 20.714844-36.929688 59.851563-59.871094 102.144532-59.871094 50.007812 0 94.617187 31.832031 110.828125 79.359375-30.207031-5.480469-62.691407-.453125-90.863281 16.238281-8.53125 5.058594-.898438 17.96875 7.644531 12.90625 70.351562-41.6875 161.175781.417969 174.917969 80.957032h-159.132813c-9.65625-64.082032-64.925781-112.226563-130.554687-112.226563-65.597657 0-120.898438 48.109375-130.558594 112.226563h-12.257813c-14.140625 0-25.644531 11.503906-25.644531 25.644531s11.503906 25.644531 25.644531 25.644531h5.601563l24.511718 129.957031c8.355469 44.300781 47.140626 76.457031 92.226563 76.457031h215.277344c45.082031 0 83.871093-32.15625 92.226562-76.457031l24.507813-129.957031h5.601562c14.140625 0 25.644532-11.503906 25.644532-25.644531s-11.503907-25.644531-25.644532-25.644531zm-38.261718-164.925782c3.542968-6.84375 6.601562-12.753906 7.996093-14.460937 7.992188-9.785157 22.609375-11.441407 32.578125-3.6875 10.4375 8.117187 12.128906 23.171875 3.789063 33.394531-1.429688 1.75-6.613281 5.925781-12.621094 10.765625-12.972656 10.457031-34.15625 27.527344-58.179687 52.265625-4.574219-3.359375-9.339844-6.410156-14.269532-9.136719 19.992188-29.121093 32.8125-53.886719 40.707032-69.140625zm-278.875 67.699219c57.125 0 105.816406 41.28125 115.363281 97.226563h-230.726563c9.527344-55.863282 58.152344-97.226563 115.363282-97.226563zm-101.246094 258.300781-9.175782-48.65625 61.128907-61.128906h57.828125zm-12.542969-66.5-8.160156-43.28125h51.441406zm54.207031 137.738282 55.851563-55.851563c7.011719-7.011719-3.585938-17.628906-10.605469-10.605469l-57.664062 57.664063c-13.023438-11.238281-22.398438-26.730469-25.875-44.601563l127.625-127.628906h70.476562l-93.351562 93.351562c-4.738282 4.738282-1.316407 12.804688 5.304687 12.804688 5.925781 0 1.097656.8125 109.261719-106.15625h57.828125l-191.414063 191.414062h-8.332031c-14.121094 0-27.507813-3.753906-39.105469-10.390624zm68.648438 10.390624 191.414062-191.410156h70.476563l-191.410157 191.410156zm185.730468 0h-14.996093l99.050781-99.050781-6.566406 34.8125c-7.019532 37.222657-39.605469 64.238281-77.488282 64.238281zm88.984376-125.195312-125.191407 125.195312h-57.832031l191.414062-191.410156h4.101563zm33.355468-81.214844h-459.953125c-14.089843 0-14.070312-21.292968 0-21.292968h459.953125c5.871094 0 10.644532 4.777343 10.644532 10.644531 0 5.871093-4.773438 10.648437-10.644532 10.648437zm0 0"/></svg>